<svg width="116" height="134" viewBox="0 0 116 134" fill="none" xmlns="http://www.w3.org/2000/svg">
<g clip-path="url(#clip0_21_2034)">
<path d="M58 134L94.4938 112.946L88.1246 101.906L58 119.277V134Z" fill="url(#paint0_linear_21_2034)"/>
<path d="M30.5824 72.9877L58 94.8184V80.1053L36.9516 61.948L65.3545 12.742L58 0L0 100.483L58 134V119.277L17.406 95.8238L30.5824 72.9877Z" fill="url(#paint1_linear_21_2034)"/>
<path d="M58.1791 94.928L85.5072 73.1472L104.963 106.864L116 100.483L72.1119 24.6479L64.7574 37.3899L79.138 62.1174L58.1791 80.205L58 80.1055V94.8185L58.1791 94.928Z" fill="url(#paint2_linear_21_2034)"/>
</g>
<defs>
<linearGradient id="paint0_linear_21_2034" x1="58" y1="117.953" x2="94.4938" y2="117.953" gradientUnits="userSpaceOnUse">
<stop stop-color="#F1574D"/>
<stop offset="1" stop-color="#851531"/>
</linearGradient>
<linearGradient id="paint1_linear_21_2034" x1="0" y1="66.995" x2="65.3545" y2="66.995" gradientUnits="userSpaceOnUse">
<stop stop-color="#F1574D"/>
<stop offset="1" stop-color="#851531"/>
</linearGradient>
<linearGradient id="paint2_linear_21_2034" x1="0" y1="65.7508" x2="116" y2="65.7508" gradientUnits="userSpaceOnUse">
<stop stop-color="#F1574D"/>
<stop offset="1" stop-color="#851531"/>
</linearGradient>
<clipPath id="clip0_21_2034">
<rect width="116" height="134" fill="white"/>
</clipPath>
</defs>
</svg>
