<svg width="116" height="134" fill="none" xmlns="http://www.w3.org/2000/svg"><g clip-path="url(#a)"><path d="m58 134 36.494-21.054-6.37-11.04L58 119.277V134Z" fill="url(#b)"/><path d="M30.582 72.988 58 94.818V80.105L36.952 61.948l28.403-49.206L58 0 0 100.483 58 134v-14.723L17.406 95.824l13.176-22.836Z" fill="url(#c)"/><path d="m58.18 94.928 27.327-21.78 19.456 33.716L116 100.483 72.112 24.648 64.757 37.39l14.381 24.727-20.959 18.088-.179-.1v14.713l.18.11Z" fill="url(#d)"/></g><defs><linearGradient id="b" x1="58" y1="117.953" x2="94.494" y2="117.953" gradientUnits="userSpaceOnUse"><stop stop-color="#F1574D"/><stop offset="1" stop-color="#851531"/></linearGradient><linearGradient id="c" x1="0" y1="66.995" x2="65.355" y2="66.995" gradientUnits="userSpaceOnUse"><stop stop-color="#F1574D"/><stop offset="1" stop-color="#851531"/></linearGradient><linearGradient id="d" x1="0" y1="65.751" x2="116" y2="65.751" gradientUnits="userSpaceOnUse"><stop stop-color="#F1574D"/><stop offset="1" stop-color="#851531"/></linearGradient><clipPath id="a"><path fill="#fff" d="M0 0h116v134H0z"/></clipPath></defs></svg>