<?xml version="1.0" encoding="UTF-8"?>
<svg id="Layer_2" data-name="Layer 2" xmlns="http://www.w3.org/2000/svg" viewBox="0 0 385.31 176.4">
  <defs>
    <style>
      .cls-1 {
        fill: #fff;
      }

      .cls-2 {
        fill: #b43b2f;
      }

      .cls-3 {
        opacity: .6;
      }
    </style>
  </defs>
  <g id="Layer_1-2" data-name="Layer 1">
    <g>
      <g>
        <g class="cls-3">
          <g>
            <path class="cls-1" d="M20.71,8.94c-3.32,0-5.82,.88-7.51,2.64-1.69,1.76-2.62,4.45-2.8,8.06l25.35,.03v8.03H10.35c.02,4.02,.82,6.9,2.41,8.66,1.59,1.76,4.24,2.64,7.95,2.64h15.04v8.03h-15.49c-3.42,0-6.1-.31-8.06-.93-1.96-.62-3.79-1.66-5.51-3.12-2.23-1.88-3.91-4.33-5.02-7.36-1.12-3.02-1.67-6.64-1.67-10.84C0,16.63,1.67,10.61,5.01,6.73,8.34,2.85,13.52,.91,20.53,.91h15.22V8.94h-15.04Z"/>
            <path class="cls-1" d="M43.78,.91h22.56c5.26,0,9.11,1.12,11.56,3.36s3.68,5.74,3.68,10.51c0,3.54-.76,6.42-2.27,8.66s-3.69,3.68-6.54,4.33l10.88,19.26h-10.32l-9.6-18.14h-10.79v18.14h-9.16V.91Zm20.39,8.22h-11.23v11.61h11.23c3.04,0,5.16-.44,6.34-1.32,1.19-.88,1.78-2.38,1.78-4.52s-.58-3.6-1.73-4.47c-1.16-.87-3.29-1.3-6.39-1.3Z"/>
            <path class="cls-1" d="M105.15,27.83v-8.16h21.67v27.36h-19.71c-3.64,0-6.43-.31-8.37-.94-1.95-.63-3.77-1.66-5.47-3.11-2.23-1.88-3.91-4.33-5.02-7.36-1.12-3.02-1.67-6.64-1.67-10.84,0-8.14,1.67-14.15,5.02-18.04S100.11,.91,107.1,.91h19.71v7.94h-19.71c-3.6,0-6.22,1.23-7.87,3.7-1.65,2.47-2.48,6.4-2.48,11.8,0,5.04,.82,8.69,2.46,10.95,1.64,2.26,4.27,3.39,7.89,3.39h10.32v-10.86h-12.27Z"/>
            <path class="cls-1" d="M131.56,23.5c0-7.93,1.79-13.83,5.38-17.7,3.58-3.87,9.04-5.8,16.37-5.8s12.85,1.96,16.4,5.87c3.54,3.91,5.32,9.95,5.32,18.1s-1.77,14.2-5.32,18.14c-3.55,3.93-9.01,5.9-16.4,5.9s-12.96-1.98-16.47-5.93c-3.52-3.95-5.27-10.14-5.27-18.57Zm21.74-15.59c-3.93,0-6.86,1.3-8.81,3.89-1.94,2.59-2.92,6.52-2.92,11.77,0,5.69,.94,9.86,2.83,12.5,1.89,2.65,4.85,3.97,8.9,3.97s6.94-1.31,8.87-3.94c1.92-2.62,2.89-6.67,2.89-12.13s-.96-9.53-2.89-12.14c-1.92-2.61-4.88-3.92-8.87-3.92Z"/>
            <path class="cls-1" d="M181.3,.91h11.59l17.85,33.13-.44-33.13h9.37V47.03h-10.64l-18.73-34.89,.42,34.89h-9.4V.91Z"/>
            <path class="cls-1" d="M225.7,23.5c0-7.93,1.79-13.83,5.38-17.7,3.58-3.87,9.04-5.8,16.37-5.8s12.85,1.96,16.4,5.87c3.54,3.91,5.32,9.95,5.32,18.1s-1.77,14.2-5.32,18.14c-3.55,3.93-9.01,5.9-16.4,5.9s-12.96-1.98-16.47-5.93c-3.52-3.95-5.27-10.14-5.27-18.57Zm21.74-15.59c-3.93,0-6.86,1.3-8.81,3.89-1.94,2.59-2.92,6.52-2.92,11.77,0,5.69,.94,9.86,2.83,12.5,1.89,2.65,4.85,3.97,8.9,3.97s6.94-1.31,8.87-3.94c1.92-2.62,2.89-6.67,2.89-12.13s-.96-9.53-2.89-12.14c-1.92-2.61-4.88-3.92-8.87-3.92Z"/>
            <path class="cls-1" d="M275.45,.91h13.46l11.12,35.39L311.14,.91h13.4V47.03h-8.98l.74-35.93-11.18,35.93h-9.72l-11.53-36.3,.92,36.3h-9.34V.91Z"/>
            <path class="cls-1" d="M343.18,47.03h-9.57V.91h9.57V47.03Z"/>
            <path class="cls-1" d="M370.22,8.79c-3.79,0-6.53,1.28-8.2,3.83-1.67,2.55-2.5,6.75-2.5,12.58,0,5.06,.8,8.63,2.4,10.7,1.6,2.07,4.37,3.11,8.3,3.11h15.06v8.03h-15.5c-3.42,0-6.11-.31-8.06-.93s-3.79-1.66-5.51-3.12c-2.23-1.88-3.91-4.33-5.02-7.36-1.12-3.02-1.67-6.64-1.67-10.84,0-8.16,1.67-14.18,5.01-18.06,3.34-3.88,8.52-5.82,15.53-5.82h15.24v7.88h-15.06Z"/>
          </g>
          <g>
            <path class="cls-1" d="M11.64,63.99h31.62c11.12,0,19.32,3.08,24.62,9.22,5.29,6.15,7.94,15.69,7.94,28.62,0,6.66-.89,12.39-2.65,17.18-1.77,4.79-4.42,8.68-7.96,11.66-2.72,2.32-5.64,3.97-8.74,4.95s-7.36,1.47-12.78,1.47H11.64V63.99Zm31.33,12.73H26.16v47.64h16.82c6.42,0,10.85-1.71,13.3-5.12,2.44-3.41,3.66-9.65,3.66-18.7s-1.22-15.24-3.66-18.67c-2.44-3.43-6.88-5.15-13.3-5.15Z"/>
            <path class="cls-1" d="M114.27,76.72c-5.26,0-9.22,1.39-11.9,4.18-2.67,2.79-4.15,7.04-4.43,12.78l40.17,.05v12.73h-40.26c.03,6.37,1.31,10.94,3.82,13.72,2.52,2.78,6.72,4.18,12.6,4.18h23.84v12.73h-24.54c-5.42,0-9.67-.49-12.77-1.47-3.1-.98-6.01-2.63-8.73-4.95-3.54-2.98-6.19-6.87-7.96-11.66-1.77-4.79-2.65-10.52-2.65-17.18,0-12.93,2.64-22.47,7.93-28.62,5.29-6.15,13.49-9.22,24.6-9.22h24.12v12.73h-23.84Z"/>
            <path class="cls-1" d="M209.24,77.02h-35.89c-3.85,0-6.68,.76-8.48,2.29-1.8,1.53-2.7,3.95-2.7,7.26,0,2.65,.77,4.64,2.3,5.97,1.53,1.33,3.82,1.99,6.86,1.99h19.21c7.96,0,13.62,1.59,16.98,4.77,3.37,3.18,5.05,8.49,5.05,15.91s-1.94,13.05-5.83,16.58c-3.88,3.53-9.99,5.3-18.32,5.3h-38.66v-13.03h36.36c4.13,0,7.05-.64,8.74-1.91,1.69-1.28,2.54-3.39,2.54-6.34s-.77-5.22-2.33-6.51c-1.55-1.29-4.2-1.94-7.96-1.94h-17.15c-7.96,0-13.77-1.68-17.45-5.05-3.68-3.36-5.52-8.68-5.52-15.94,0-7.76,1.93-13.43,5.8-17.01,3.87-3.58,10.01-5.37,18.44-5.37h38.01v13.03Z"/>
            <path class="cls-1" d="M238.74,137.08h-15.17V63.99h15.17v73.1Z"/>
            <path class="cls-1" d="M278.2,106.65v-12.93h34.34v43.36h-31.24c-5.76,0-10.19-.5-13.27-1.49-3.09-.99-5.97-2.63-8.67-4.92-3.54-2.98-6.19-6.87-7.96-11.66-1.77-4.79-2.65-10.52-2.65-17.18,0-12.9,2.65-22.43,7.96-28.59s13.51-9.25,24.59-9.25h31.24v12.58h-31.24c-5.7,0-9.86,1.96-12.47,5.87-2.62,3.91-3.92,10.14-3.92,18.7,0,7.99,1.3,13.77,3.9,17.35s6.77,5.37,12.5,5.37h16.35v-17.21h-19.45Z"/>
            <path class="cls-1" d="M324.52,63.99h18.37l28.28,52.51-.7-52.51h14.85v73.1h-16.87l-29.69-55.29,.66,55.29h-14.89V63.99Z"/>
          </g>
        </g>
        <g>
          <path class="cls-1" d="M7.68,170.37c0-1.6,.1-2.77,.29-3.52,.19-.75,.52-1.36,.99-1.83,.48-.48,1.12-.84,1.91-1.08s1.79-.35,2.98-.35h4.02v2.19h-4.24c-1.14,0-1.98,.24-2.5,.72-.52,.48-.79,1.26-.81,2.33h7.55v2.18h-7.55v5.14h-2.65v-5.77Z"/>
          <path class="cls-1" d="M18.82,169.74c0-2.16,.52-3.76,1.55-4.82s2.6-1.58,4.71-1.58,3.7,.53,4.72,1.6,1.53,2.71,1.53,4.93-.51,3.86-1.53,4.93-2.59,1.6-4.72,1.6-3.73-.54-4.74-1.61c-1.01-1.08-1.52-2.76-1.52-5.05Zm6.26-4.24c-1.13,0-1.98,.35-2.54,1.06s-.84,1.77-.84,3.2c0,1.55,.27,2.68,.81,3.4s1.4,1.08,2.56,1.08,2-.36,2.55-1.07c.55-.71,.83-1.81,.83-3.3s-.28-2.59-.83-3.3c-.55-.71-1.41-1.07-2.55-1.07Z"/>
          <path class="cls-1" d="M33.14,163.59h6.5c1.51,0,2.62,.3,3.33,.91,.71,.61,1.06,1.56,1.06,2.86,0,.96-.22,1.75-.65,2.36-.44,.61-1.06,1-1.88,1.18l3.13,5.24h-2.97l-2.77-4.93h-3.11v4.93h-2.64v-12.55Zm5.87,2.24h-3.24v3.16h3.24c.88,0,1.49-.12,1.83-.36,.34-.24,.51-.65,.51-1.23s-.17-.98-.5-1.22c-.33-.24-.95-.35-1.84-.35Z"/>
          <path class="cls-1" d="M59.93,176.14h-6.91v-12.55h6.45c.81,0,1.48,.05,1.98,.14,.51,.09,.92,.24,1.23,.44,.46,.29,.81,.67,1.05,1.13,.24,.46,.36,.98,.36,1.57,0,.7-.15,1.29-.45,1.78-.3,.49-.77,.9-1.42,1.23,.65,.27,1.13,.64,1.44,1.11s.47,1.05,.47,1.75c0,1.17-.34,2.04-1.02,2.59s-1.74,.83-3.18,.83Zm-4.27-10.3v2.9h3.86c.6,0,1.04-.12,1.31-.35,.28-.24,.42-.6,.42-1.1s-.14-.87-.42-1.1c-.28-.23-.72-.35-1.31-.35h-3.86Zm3.9,8.08c.6,0,1.04-.12,1.31-.35,.27-.24,.41-.61,.41-1.11s-.14-.89-.41-1.13c-.28-.24-.71-.36-1.31-.36h-3.9v2.95h3.9Z"/>
          <path class="cls-1" d="M71.4,165.77c-.96,0-1.68,.24-2.16,.72-.49,.48-.75,1.21-.81,2.19h7.3v2.19h-7.32c0,1.09,.24,1.88,.69,2.36,.46,.48,1.22,.72,2.29,.72h4.33v2.19h-4.46c-.98,0-1.76-.08-2.32-.25-.56-.17-1.09-.45-1.59-.85-.64-.51-1.12-1.18-1.45-2-.32-.82-.48-1.8-.48-2.95,0-2.22,.48-3.86,1.44-4.91,.96-1.06,2.45-1.58,4.47-1.58h4.38v2.19h-4.33Z"/>
          <path class="cls-1" d="M80.78,165.79h-4.06v-2.19h10.86v2.19h-4.07v10.35h-2.73v-10.35Z"/>
          <path class="cls-1" d="M92.01,165.79h-4.06v-2.19h10.86v2.19h-4.07v10.35h-2.73v-10.35Z"/>
          <path class="cls-1" d="M105.26,165.77c-.96,0-1.68,.24-2.16,.72-.49,.48-.75,1.21-.81,2.19h7.3v2.19h-7.32c0,1.09,.24,1.88,.69,2.36,.46,.48,1.22,.72,2.29,.72h4.33v2.19h-4.46c-.98,0-1.76-.08-2.32-.25-.56-.17-1.09-.45-1.59-.85-.64-.51-1.12-1.18-1.45-2-.32-.82-.48-1.8-.48-2.95,0-2.22,.48-3.86,1.44-4.91,.96-1.06,2.45-1.58,4.47-1.58h4.38v2.19h-4.33Z"/>
          <path class="cls-1" d="M111.91,163.59h6.5c1.51,0,2.62,.3,3.33,.91,.71,.61,1.06,1.56,1.06,2.86,0,.96-.22,1.75-.65,2.36-.44,.61-1.06,1-1.88,1.18l3.13,5.24h-2.97l-2.77-4.93h-3.11v4.93h-2.64v-12.55Zm5.87,2.24h-3.24v3.16h3.24c.88,0,1.49-.12,1.83-.36,.34-.24,.51-.65,.51-1.23s-.17-.98-.5-1.22c-.33-.24-.95-.35-1.84-.35Z"/>
          <path class="cls-1" d="M134.43,163.59v5.09h4.84v-5.09h2.64v12.55h-2.64v-5.24h-4.84v5.24h-2.64v-12.55h2.64Z"/>
          <path class="cls-1" d="M148.1,163.59h2.8l5.35,12.55h-2.94l-1.15-2.99h-5.46l-1.12,2.99h-2.8l5.31-12.55Zm1.3,2.49l-1.84,4.83h3.74l-1.9-4.83Z"/>
          <path class="cls-1" d="M157.13,163.59h3.34l5.14,9.02-.13-9.02h2.7v12.55h-3.06l-5.4-9.49,.12,9.49h-2.71v-12.55Z"/>
          <path class="cls-1" d="M170.73,163.59h5.75c2.02,0,3.51,.53,4.47,1.58s1.44,2.69,1.44,4.91c0,1.14-.16,2.13-.48,2.95-.32,.82-.8,1.49-1.45,2-.5,.4-1.02,.68-1.59,.85-.56,.17-1.34,.25-2.32,.25h-5.82v-12.55Zm5.69,2.19h-3.06v8.18h3.06c1.17,0,1.97-.29,2.42-.88,.44-.59,.67-1.66,.67-3.21s-.22-2.62-.67-3.21c-.44-.59-1.25-.88-2.42-.88Z"/>
          <path class="cls-1" d="M189.19,176.14c-1.17,0-2.04-.1-2.61-.29-.57-.2-1.08-.54-1.53-1.02-.42-.43-.71-.92-.88-1.47-.17-.55-.26-1.31-.26-2.3v-7.46h2.64v7.38c0,.73,.03,1.25,.1,1.55s.18,.54,.34,.72c.25,.3,.56,.51,.92,.63s.87,.19,1.51,.19h3.11v2.08h-3.34Z"/>
          <path class="cls-1" d="M196.71,176.14h-2.76v-12.55h2.76v12.55Z"/>
          <path class="cls-1" d="M199.32,163.59h3.34l5.14,9.02-.13-9.02h2.7v12.55h-3.06l-5.4-9.49,.12,9.49h-2.71v-12.55Z"/>
          <path class="cls-1" d="M217.48,170.91v-2.22h6.24v7.44h-5.68c-1.05,0-1.85-.08-2.41-.26s-1.09-.45-1.58-.84c-.64-.51-1.13-1.18-1.45-2-.32-.82-.48-1.8-.48-2.95,0-2.21,.48-3.85,1.45-4.91s2.45-1.59,4.47-1.59h5.68v2.16h-5.68c-1.04,0-1.79,.34-2.27,1.01-.48,.67-.71,1.74-.71,3.21,0,1.37,.24,2.36,.71,2.98,.47,.61,1.23,.92,2.27,.92h2.97v-2.95h-3.53Z"/>
          <path class="cls-1" d="M236.26,163.59h2.8l5.35,12.55h-2.94l-1.15-2.99h-5.46l-1.12,2.99h-2.8l5.31-12.55Zm1.3,2.49l-1.84,4.83h3.74l-1.9-4.83Z"/>
          <path class="cls-1" d="M245.29,163.59h3.34l5.14,9.02-.13-9.02h2.7v12.55h-3.06l-5.4-9.49,.12,9.49h-2.71v-12.55Z"/>
          <path class="cls-1" d="M258.89,163.59h5.75c2.02,0,3.51,.53,4.47,1.58s1.44,2.69,1.44,4.91c0,1.14-.16,2.13-.48,2.95-.32,.82-.8,1.49-1.45,2-.5,.4-1.02,.68-1.59,.85-.56,.17-1.34,.25-2.32,.25h-5.82v-12.55Zm5.69,2.19h-3.06v8.18h3.06c1.17,0,1.97-.29,2.42-.88,.44-.59,.67-1.66,.67-3.21s-.22-2.62-.67-3.21c-.44-.59-1.25-.88-2.42-.88Z"/>
          <path class="cls-1" d="M284.32,165.73c-1.09,0-1.88,.35-2.36,1.04-.48,.69-.72,1.84-.72,3.42,0,1.38,.23,2.35,.69,2.91,.46,.56,1.26,.84,2.39,.84h4.34v2.19h-4.46c-.98,0-1.76-.08-2.32-.25-.56-.17-1.09-.45-1.59-.85-.64-.51-1.13-1.18-1.45-2-.32-.82-.48-1.8-.48-2.95,0-2.22,.48-3.86,1.44-4.91s2.45-1.58,4.47-1.58h4.39v2.14h-4.34Z"/>
          <path class="cls-1" d="M294.19,163.59h2.8l5.35,12.55h-2.94l-1.15-2.99h-5.46l-1.12,2.99h-2.8l5.31-12.55Zm1.3,2.49l-1.84,4.83h3.74l-1.9-4.83Z"/>
          <path class="cls-1" d="M303.22,163.59h6.5c1.51,0,2.62,.3,3.33,.91,.71,.61,1.06,1.56,1.06,2.86,0,.96-.22,1.75-.65,2.36-.44,.61-1.06,1-1.88,1.18l3.13,5.24h-2.97l-2.77-4.93h-3.11v4.93h-2.64v-12.55Zm5.87,2.24h-3.24v3.16h3.24c.88,0,1.49-.12,1.83-.36,.34-.24,.51-.65,.51-1.23s-.17-.98-.5-1.22c-.33-.24-.95-.35-1.84-.35Z"/>
          <path class="cls-1" d="M316.33,163.59h6.5c1.51,0,2.62,.3,3.33,.91,.71,.61,1.06,1.56,1.06,2.86,0,.96-.22,1.75-.65,2.36-.44,.61-1.06,1-1.88,1.18l3.13,5.24h-2.97l-2.77-4.93h-3.11v4.93h-2.64v-12.55Zm5.87,2.24h-3.24v3.16h3.24c.88,0,1.49-.12,1.83-.36,.34-.24,.51-.65,.51-1.23s-.17-.98-.5-1.22c-.33-.24-.95-.35-1.84-.35Z"/>
          <path class="cls-1" d="M327.43,163.59h2.97l3.1,4.79,3.14-4.79h3.06l-4.85,7.01v5.54h-2.64v-5.54l-4.79-7.01Z"/>
          <path class="cls-1" d="M343.06,176.14h-2.76v-12.55h2.76v12.55Z"/>
          <path class="cls-1" d="M345.67,163.59h3.34l5.14,9.02-.13-9.02h2.7v12.55h-3.06l-5.4-9.49,.12,9.49h-2.71v-12.55Z"/>
          <path class="cls-1" d="M363.83,170.91v-2.22h6.24v7.44h-5.68c-1.05,0-1.85-.08-2.41-.26s-1.09-.45-1.58-.84c-.64-.51-1.13-1.18-1.45-2-.32-.82-.48-1.8-.48-2.95,0-2.21,.48-3.85,1.45-4.91s2.45-1.59,4.47-1.59h5.68v2.16h-5.68c-1.04,0-1.79,.34-2.27,1.01-.48,.67-.71,1.74-.71,3.21,0,1.37,.24,2.36,.71,2.98,.47,.61,1.23,.92,2.27,.92h2.97v-2.95h-3.53Z"/>
        </g>
      </g>
      <path class="cls-1" d="M35.08,57.73c-8.53,0-16.46,2.53-23.13,6.85v71.65c6.67,4.31,14.6,6.85,23.13,6.85,23.57,0,42.67-19.1,42.67-42.67s-19.1-42.67-42.67-42.67Z"/>
      <path class="cls-2" d="M42.22,124.26c-7.99,0-17.37-2.93-21.03-4.2-.03,0-.05-.01-.08-.01-.05,0-.1,.02-.14,.04-.06,.05-.1,.12-.1,.2v3.03c0,.52-.42,.93-.93,.93h-7.05c-.52,0-.93-.42-.93-.93v-20.62c0-.52,.42-.93,.93-.93h7.05c.52,0,.93,.42,.93,.93v3.92c0,.09,.05,.17,.13,.21,.04,.02,.08,.03,.12,.03,.05,0,.09-.01,.13-.04,1-.64,2.16-1.15,3.46-1.49,.11-.03,.18-.12,.18-.23v-27.62c0-.52,.42-.93,.93-.93H63.44c.52,0,.93,.42,.93,.93v30.58c0,.13,.11,.24,.24,.24,.36,0,.66,.04,.94,.12,.84,.25,1.54,.81,1.95,1.58,.86,1.59,.27,3.59-1.32,4.45l-.41,.22c-.16,.11-14.85,9.58-23.56,9.58Zm-12.88-17.63c-5.3,0-7.65,1.99-8.41,2.84-.04,.04-.06,.1-.06,.16v8.17c0,.1,.06,.19,.16,.23,2.89,1.02,12.97,4.37,21.19,4.37s22.46-9.23,22.61-9.32l.47-.26c.68-.37,.94-1.23,.57-1.92-.18-.33-.48-.57-.84-.68-.13-.04-.27-.06-.41-.06-.23,0-.46,.06-.67,.17-.03,.02-.07,.03-.11,.05-.29,.11-7.19,2.78-12.99,4.4-.04,.01-.08,.03-.11,.06-.74,.77-1.73,1.19-2.79,1.19h-11.56c-.52,0-.93-.42-.93-.93s.42-.93,.93-.93h11.56c1.11,0,2-.9,2-2s-.9-2-2-2h-10.38c-.12,0-.24-.02-.36-.07-.01,0-.02-.02-.04-.03-.02-.02-.05-.04-.07-.05l-.05-.03c-.05-.03-.1-.06-.13-.09,0,0-.02-.03-.04-.05-.02-.02-.03-.05-.05-.07l-.04-.05s-.06-.08-.08-.12c0-.01-.01-.04-.01-.06,0-.03-.01-.06-.02-.09,0-.03-.02-.05-.02-.08-.01-.04-.02-.08-.03-.1,0,0,0-.02,0-.03-.04-.27-.61-2.6-7.29-2.6Zm-15.28-2.99c-.13,0-.24,.11-.24,.24v18.27c0,.13,.11,.24,.24,.24h4.7c.13,0,.24-.11,.24-.24v-18.27c0-.13-.11-.24-.24-.24h-4.7Zm15.28,1.12c6.44,0,8.34,2.12,8.9,3.38,.04,.09,.13,.14,.22,.14h9.49c2.14,0,3.87,1.74,3.87,3.87,0,.02,0,.04,0,.06,0,.08,.03,.15,.1,.2,.04,.03,.09,.05,.15,.05,.02,0,.05,0,.07-.01,4.2-1.27,8.54-2.88,10.21-3.51,.09-.04,.16-.13,.16-.23v-30.06c0-.13-.11-.24-.24-.24h-10.58c-.13,0-.24,.11-.24,.24v14.11c0,.36-.21,.69-.53,.84-.13,.06-.26,.09-.41,.09-.21,0-.42-.07-.58-.2l-5.14-4.12s-.1-.05-.15-.05-.11,.02-.15,.05l-5.14,4.12c-.16,.13-.37,.2-.58,.2-.14,0-.28-.03-.41-.09-.32-.16-.53-.49-.53-.84v-14.11c0-.13-.11-.24-.24-.24h-10.58c-.13,0-.24,.11-.24,.24v26c0,.07,.03,.13,.08,.18,.04,.04,.1,.06,.16,.06,0,0,.02,0,.03,0,.79-.09,1.55-.14,2.32-.14Zm15.28-17.63c.21,0,.42,.07,.58,.2l3.97,3.17s.1,.05,.15,.05c.04,0,.07,0,.1-.02,.08-.04,.14-.12,.14-.22v-11.66c0-.13-.11-.24-.24-.24h-9.41c-.13,0-.24,.11-.24,.24v11.66c0,.09,.05,.18,.14,.22,.03,.02,.07,.02,.1,.02,.05,0,.11-.02,.15-.05l3.97-3.17c.17-.13,.37-.2,.58-.2Z"/>
    </g>
  </g>
</svg>