<?xml version="1.0" encoding="UTF-8"?>
<svg id="Layer_2" data-name="Layer 2" xmlns="http://www.w3.org/2000/svg" viewBox="0 0 399.48 213.77">
  <defs>
    <style>
      .cls-1 {
        fill: none;
        stroke: #f06669;
        stroke-miterlimit: 10;
        stroke-width: 3.09px;
      }

      .cls-2 {
        fill: #fff;
      }

      .cls-3 {
        opacity: .6;
      }
    </style>
  </defs>
  <g id="Layer_1-2" data-name="Layer 1">
    <g>
      <g class="cls-3">
        <path class="cls-2" d="M.39,0H18.18l14.7,44.21L47.57,0h17.71V57.61h-11.87l.98-44.87-14.77,44.87h-12.85L11.52,12.27l1.21,45.34H.39V0Z"/>
        <path class="cls-2" d="M89.08,0V34.49c0,5.38,.97,9.14,2.92,11.27,1.95,2.13,5.3,3.19,10.05,3.19s8.1-1.06,10.03-3.17c1.93-2.12,2.9-5.88,2.9-11.29V0h12.11V34.8c0,4.08-.27,7.33-.8,9.76-.54,2.43-1.39,4.35-2.57,5.76-2.3,2.72-5.19,4.72-8.68,6s-7.82,1.92-12.99,1.92-9.52-.64-13.03-1.92c-3.51-1.28-6.42-3.28-8.72-6-1.15-1.38-1.99-3.25-2.51-5.6-.52-2.35-.78-5.66-.78-9.92V0h12.07Z"/>
        <path class="cls-2" d="M161.69,57.61c-5.38,0-9.38-.45-11.99-1.35-2.61-.9-4.95-2.46-7.01-4.68-1.91-1.99-3.25-4.23-4.04-6.74-.78-2.51-1.18-6.04-1.18-10.58V0h12.11V33.86c0,3.37,.15,5.74,.45,7.11,.3,1.37,.82,2.48,1.55,3.31,1.15,1.36,2.56,2.33,4.23,2.9,1.67,.58,3.98,.86,6.94,.86h14.27v9.56h-15.32Z"/>
        <path class="cls-2" d="M185.01,10.11h-18.62V.08h49.85V10.11h-18.69V57.61h-12.54V10.11Z"/>
        <path class="cls-2" d="M234.86,57.61h-12.66V0h12.66V57.61Z"/>
        <path class="cls-2" d="M246.85,0h26.3c4.44,0,7.98,.23,10.62,.69,2.64,.46,4.74,1.18,6.31,2.18,2.61,1.67,4.59,3.86,5.94,6.56s2.02,5.82,2.02,9.35-.55,6.41-1.65,8.88-2.77,4.51-5.02,6.13c-1.88,1.33-4.04,2.28-6.49,2.84-2.44,.56-6.19,.84-11.23,.84h-14.7v20.14h-12.11V0Zm26.14,10.27h-14.03V27.28h14.77c3.66,0,6.37-.7,8.15-2.1,1.78-1.4,2.66-3.53,2.66-6.41,0-3.08-.87-5.27-2.61-6.56-1.74-1.29-4.72-1.94-8.95-1.94Z"/>
        <path class="cls-2" d="M329.27,57.61c-5.38,0-9.38-.45-11.99-1.35-2.61-.9-4.95-2.46-7.01-4.68-1.91-1.99-3.25-4.23-4.04-6.74-.78-2.51-1.18-6.04-1.18-10.58V0h12.11V33.86c0,3.37,.15,5.74,.45,7.11,.3,1.37,.82,2.48,1.55,3.31,1.15,1.36,2.56,2.33,4.23,2.9,1.67,.58,3.98,.86,6.94,.86h14.27v9.56h-15.32Z"/>
        <path class="cls-2" d="M374.79,10.03c-4.38,0-7.69,1.1-9.92,3.29-2.23,2.19-3.46,5.55-3.7,10.07l33.51,.04v10.03h-33.59c.03,5.02,1.09,8.62,3.19,10.82,2.1,2.19,5.6,3.29,10.51,3.29h19.89v10.03h-20.47c-4.52,0-8.07-.38-10.65-1.16-2.59-.77-5.01-2.07-7.29-3.9-2.95-2.35-5.16-5.41-6.64-9.19-1.48-3.78-2.21-8.29-2.21-13.54,0-10.19,2.21-17.71,6.62-22.55,4.41-4.85,11.25-7.27,20.52-7.27h20.12V10.03h-19.89Z"/>
      </g>
      <g class="cls-3">
        <path class="cls-2" d="M0,68.63H34.31l28.34,85.24,28.34-85.24h34.16v111.09h-22.9l1.89-86.53-28.49,86.53h-24.79L21.46,92.28l2.34,87.43H0V68.63Z"/>
        <path class="cls-2" d="M172.68,179.72h-24.41V68.63h24.41v111.09Z"/>
        <path class="cls-2" d="M394.11,88.43h-57.74c-6.2,0-10.74,1.16-13.64,3.48-2.9,2.32-4.35,6-4.35,11.03,0,4.03,1.23,7.05,3.7,9.07,2.47,2.02,6.15,3.02,11.03,3.02h30.91c12.8,0,21.9,2.42,27.32,7.25,5.42,4.84,8.12,12.9,8.12,24.18s-3.12,19.84-9.37,25.2c-6.25,5.37-16.07,8.05-29.47,8.05h-62.19v-19.8h58.49c6.65,0,11.34-.97,14.06-2.91,2.72-1.94,4.08-5.15,4.08-9.63s-1.25-7.94-3.74-9.9-6.76-2.95-12.81-2.95h-27.58c-12.8,0-22.15-2.56-28.07-7.67-5.92-5.11-8.88-13.19-8.88-24.22,0-11.79,3.11-20.4,9.33-25.84,6.22-5.44,16.11-8.16,29.66-8.16h61.14v19.8Z"/>
      </g>
      <path class="cls-2" d="M276.91,168.43c-9.51,7.53-21.53,12.03-34.6,12.03-30.79,0-55.75-24.96-55.75-55.75s24.96-55.75,55.75-55.75c13.61,0,26.08,4.88,35.76,12.98l-1.16,86.5Z"/>
      <g>
        <path class="cls-1" d="M258.84,110.01c-5.79,5.79-14.02,4.63-19.81-1.17-5.79-5.79-6.96-14.02-1.16-19.82l2.33-2.33c5.79-5.79,14.02-4.63,19.81,1.17,5.79,5.79,6.96,14.02,1.16,19.82l-2.33,2.33Z"/>
        <path class="cls-1" d="M260.01,108.85c-2.57,2.57-9.36-.04-15.15-5.83-5.79-5.79-8.4-12.58-5.83-15.15"/>
        <path class="cls-1" d="M234.12,99.52l-3.75,5.83v2.33l-21.83,22.55c-1.23,1.29-1.27,3.11-.27,4.12l4.22,4.16c1.01,1.01,2.86,.85,4.15-.37l23.55-21.09h2.33l5.7-3.52"/>
        <path class="cls-1" d="M210.08,136.83l-2.89,2.89c-3.41,3.41-3.41,8.94,0,12.36l2.48,2.48c3.41,3.41,8.94,3.41,12.36,0l19.79-19.79c3.41-3.41,8.94-3.41,12.36,0h0c3.41,3.42,3.41,8.95,0,12.36l-5.36,5.36"/>
      </g>
      <g>
        <path class="cls-2" d="M.63,207.73c0-1.6,.1-2.77,.3-3.52,.2-.75,.53-1.36,1.01-1.83,.49-.48,1.14-.84,1.95-1.08,.81-.23,1.82-.35,3.03-.35h4.09v2.19H6.69c-1.16,0-2.01,.24-2.54,.72-.53,.48-.8,1.26-.82,2.33h7.68v2.18H3.33v5.14H.63v-5.77Z"/>
        <path class="cls-2" d="M11.98,207.1c0-2.16,.53-3.76,1.58-4.81s2.65-1.58,4.8-1.58,3.77,.53,4.81,1.6c1.04,1.06,1.56,2.71,1.56,4.93s-.52,3.86-1.56,4.93c-1.04,1.07-2.64,1.61-4.81,1.61s-3.8-.54-4.83-1.61c-1.03-1.08-1.55-2.76-1.55-5.05Zm6.37-4.24c-1.15,0-2.01,.35-2.58,1.06-.57,.71-.85,1.77-.85,3.2,0,1.55,.28,2.68,.83,3.4,.55,.72,1.42,1.08,2.61,1.08s2.04-.36,2.6-1.07c.56-.71,.85-1.81,.85-3.3s-.28-2.59-.85-3.3c-.56-.71-1.43-1.07-2.6-1.07Z"/>
        <path class="cls-2" d="M26.56,200.95h6.61c1.54,0,2.67,.3,3.39,.91,.72,.61,1.08,1.56,1.08,2.86,0,.96-.22,1.75-.67,2.36s-1.08,1-1.92,1.18l3.19,5.24h-3.02l-2.82-4.93h-3.16v4.93h-2.69v-12.55Zm5.98,2.24h-3.29v3.16h3.29c.89,0,1.51-.12,1.86-.36s.52-.65,.52-1.23-.17-.98-.51-1.22c-.34-.24-.96-.35-1.87-.35Z"/>
        <path class="cls-2" d="M53.83,213.5h-7.03v-12.55h6.56c.83,0,1.5,.05,2.02,.14s.94,.24,1.26,.44c.47,.29,.83,.67,1.07,1.13,.25,.46,.37,.98,.37,1.57,0,.7-.15,1.29-.46,1.78s-.79,.9-1.44,1.23c.66,.27,1.15,.64,1.46,1.11s.47,1.05,.47,1.75c0,1.17-.35,2.04-1.04,2.59-.7,.55-1.78,.83-3.24,.83Zm-4.35-10.3v2.9h3.93c.61,0,1.05-.12,1.34-.35,.28-.24,.43-.6,.43-1.1s-.14-.87-.43-1.1c-.28-.23-.73-.35-1.34-.35h-3.93Zm3.97,8.08c.61,0,1.06-.12,1.34-.35s.42-.61,.42-1.11-.14-.89-.42-1.13c-.28-.24-.73-.36-1.33-.36h-3.97v2.95h3.97Z"/>
        <path class="cls-2" d="M65.5,203.14c-.97,0-1.71,.24-2.2,.72-.5,.48-.77,1.21-.82,2.19h7.43v2.19h-7.45c0,1.09,.24,1.88,.71,2.36,.47,.48,1.24,.72,2.33,.72h4.41v2.19h-4.54c-1,0-1.79-.08-2.36-.25s-1.11-.45-1.62-.85c-.65-.51-1.15-1.18-1.47-2s-.49-1.81-.49-2.95c0-2.22,.49-3.86,1.47-4.91s2.5-1.58,4.55-1.58h4.46v2.19h-4.41Z"/>
        <path class="cls-2" d="M75.06,203.15h-4.13v-2.19h11.06v2.19h-4.15v10.35h-2.78v-10.35Z"/>
        <path class="cls-2" d="M86.49,203.15h-4.13v-2.19h11.06v2.19h-4.15v10.35h-2.78v-10.35Z"/>
        <path class="cls-2" d="M99.98,203.14c-.97,0-1.71,.24-2.2,.72-.5,.48-.77,1.21-.82,2.19h7.43v2.19h-7.45c0,1.09,.24,1.88,.71,2.36,.47,.48,1.24,.72,2.33,.72h4.41v2.19h-4.54c-1,0-1.79-.08-2.36-.25s-1.11-.45-1.62-.85c-.65-.51-1.15-1.18-1.47-2s-.49-1.81-.49-2.95c0-2.22,.49-3.86,1.47-4.91s2.5-1.58,4.55-1.58h4.46v2.19h-4.41Z"/>
        <path class="cls-2" d="M106.74,200.95h6.61c1.54,0,2.67,.3,3.39,.91,.72,.61,1.08,1.56,1.08,2.86,0,.96-.22,1.75-.67,2.36s-1.08,1-1.92,1.18l3.19,5.24h-3.02l-2.82-4.93h-3.16v4.93h-2.69v-12.55Zm5.98,2.24h-3.29v3.16h3.29c.89,0,1.51-.12,1.86-.36s.52-.65,.52-1.23-.17-.98-.51-1.22c-.34-.24-.96-.35-1.87-.35Z"/>
        <path class="cls-2" d="M132.25,203.09c-1.11,0-1.91,.35-2.4,1.04-.49,.69-.73,1.83-.73,3.42,0,1.38,.23,2.35,.7,2.91s1.28,.84,2.43,.84h4.42v2.19h-4.55c-1,0-1.79-.08-2.36-.25-.57-.17-1.11-.45-1.62-.85-.65-.51-1.15-1.18-1.47-2-.33-.82-.49-1.81-.49-2.95,0-2.22,.49-3.86,1.47-4.91s2.5-1.58,4.55-1.58h4.47v2.14h-4.42Z"/>
        <path class="cls-2" d="M137.82,207.1c0-2.16,.53-3.76,1.58-4.81s2.65-1.58,4.8-1.58,3.77,.53,4.81,1.6c1.04,1.06,1.56,2.71,1.56,4.93s-.52,3.86-1.56,4.93c-1.04,1.07-2.64,1.61-4.81,1.61s-3.8-.54-4.83-1.61c-1.03-1.08-1.55-2.76-1.55-5.05Zm6.37-4.24c-1.15,0-2.01,.35-2.58,1.06-.57,.71-.85,1.77-.85,3.2,0,1.55,.28,2.68,.83,3.4,.55,.72,1.42,1.08,2.61,1.08s2.04-.36,2.6-1.07c.56-.71,.85-1.81,.85-3.3s-.28-2.59-.85-3.3c-.56-.71-1.43-1.07-2.6-1.07Z"/>
        <path class="cls-2" d="M152.4,200.95h3.4l5.23,9.02-.13-9.02h2.75v12.55h-3.12l-5.49-9.49,.12,9.49h-2.75v-12.55Z"/>
        <path class="cls-2" d="M169.92,213.5l-5.57-12.55h3.05l3.84,9.35,3.94-9.35h2.86l-5.34,12.55h-2.78Z"/>
        <path class="cls-2" d="M183.99,203.14c-.97,0-1.71,.24-2.2,.72-.5,.48-.77,1.21-.82,2.19h7.43v2.19h-7.45c0,1.09,.24,1.88,.71,2.36,.47,.48,1.24,.72,2.33,.72h4.41v2.19h-4.54c-1,0-1.79-.08-2.36-.25s-1.11-.45-1.62-.85c-.65-.51-1.15-1.18-1.47-2s-.49-1.81-.49-2.95c0-2.22,.49-3.86,1.47-4.91s2.5-1.58,4.55-1.58h4.46v2.19h-4.41Z"/>
        <path class="cls-2" d="M190.75,200.95h6.61c1.54,0,2.67,.3,3.39,.91,.72,.61,1.08,1.56,1.08,2.86,0,.96-.22,1.75-.67,2.36s-1.08,1-1.92,1.18l3.19,5.24h-3.02l-2.82-4.93h-3.16v4.93h-2.69v-12.55Zm5.98,2.24h-3.29v3.16h3.29c.89,0,1.51-.12,1.86-.36s.52-.65,.52-1.23-.17-.98-.51-1.22c-.34-.24-.96-.35-1.87-.35Z"/>
        <path class="cls-2" d="M214.91,203.19h-6.64c-.71,0-1.24,.13-1.57,.39-.33,.26-.5,.68-.5,1.25,0,.46,.14,.8,.43,1.02,.28,.23,.71,.34,1.27,.34h3.55c1.47,0,2.52,.27,3.14,.82,.62,.55,.93,1.46,.93,2.73s-.36,2.24-1.08,2.85c-.72,.61-1.85,.91-3.39,.91h-7.15v-2.24h6.73c.76,0,1.3-.11,1.62-.33,.31-.22,.47-.58,.47-1.09s-.14-.9-.43-1.12c-.29-.22-.78-.33-1.47-.33h-3.17c-1.47,0-2.55-.29-3.23-.87-.68-.58-1.02-1.49-1.02-2.74,0-1.33,.36-2.3,1.07-2.92,.72-.61,1.85-.92,3.41-.92h7.03v2.24Z"/>
        <path class="cls-2" d="M221.2,200.95h2.85l5.45,12.55h-2.99l-1.17-2.99h-5.55l-1.14,2.99h-2.85l5.41-12.55Zm1.32,2.49l-1.87,4.83h3.81l-1.94-4.83Z"/>
        <path class="cls-2" d="M231.55,203.15h-4.13v-2.19h11.06v2.19h-4.15v10.35h-2.78v-10.35Z"/>
        <path class="cls-2" d="M242.6,213.5h-2.81v-12.55h2.81v12.55Z"/>
        <path class="cls-2" d="M244.44,207.1c0-2.16,.53-3.76,1.58-4.81s2.65-1.58,4.8-1.58,3.77,.53,4.81,1.6c1.04,1.06,1.56,2.71,1.56,4.93s-.52,3.86-1.56,4.93c-1.04,1.07-2.64,1.61-4.81,1.61s-3.8-.54-4.83-1.61c-1.03-1.08-1.55-2.76-1.55-5.05Zm6.37-4.24c-1.15,0-2.01,.35-2.58,1.06-.57,.71-.85,1.77-.85,3.2,0,1.55,.28,2.68,.83,3.4,.55,.72,1.42,1.08,2.61,1.08s2.04-.36,2.6-1.07c.56-.71,.85-1.81,.85-3.3s-.28-2.59-.85-3.3c-.56-.71-1.43-1.07-2.6-1.07Z"/>
        <path class="cls-2" d="M259.02,200.95h3.4l5.23,9.02-.13-9.02h2.75v12.55h-3.12l-5.49-9.49,.12,9.49h-2.75v-12.55Z"/>
      </g>
    </g>
  </g>
</svg>