<?xml version="1.0" encoding="UTF-8"?>
<svg id="Layer_2" data-name="Layer 2" xmlns="http://www.w3.org/2000/svg" viewBox="0 0 458.94 269.96">
  <defs>
    <style>
      .cls-1 {
        fill: #fff;
      }

      .cls-2 {
        fill: none;
        stroke: #f06669;
        stroke-miterlimit: 10;
        stroke-width: 2.24px;
      }

      .cls-3 {
        opacity: .6;
      }
    </style>
  </defs>
  <g id="Layer_1-2" data-name="Layer 1">
    <g>
      <g>
        <path class="cls-1" d="M9.86,220.45h3.88l3.2,9.63,3.2-9.63h3.86v12.55h-2.59l.21-9.78-3.22,9.78h-2.8l-3.32-9.88,.26,9.88h-2.69v-12.55Z"/>
        <path class="cls-1" d="M29.36,233h-2.76v-12.55h2.76v12.55Z"/>
        <path class="cls-1" d="M31.98,220.45h3.34l5.14,9.02-.13-9.02h2.7v12.55h-3.06l-5.4-9.49,.12,9.49h-2.71v-12.55Z"/>
        <path class="cls-1" d="M48.35,233h-2.76v-12.55h2.76v12.55Z"/>
        <path class="cls-1" d="M50.96,220.45h3.88l3.2,9.63,3.2-9.63h3.86v12.55h-2.59l.21-9.78-3.22,9.78h-2.8l-3.32-9.88,.26,9.88h-2.69v-12.55Z"/>
        <path class="cls-1" d="M70.47,233h-2.76v-12.55h2.76v12.55Z"/>
        <path class="cls-1" d="M83.38,222.68l-7.07,8.09h7.07v2.22h-10.59v-2.22l7.16-8.09h-7.16v-2.24h10.59v2.24Z"/>
        <path class="cls-1" d="M91.09,222.63c-.96,0-1.68,.24-2.16,.72-.49,.48-.75,1.21-.81,2.19h7.3v2.19h-7.32c0,1.09,.24,1.88,.69,2.36,.46,.48,1.22,.72,2.29,.72h4.33v2.19h-4.46c-.98,0-1.76-.08-2.32-.25s-1.09-.45-1.59-.85c-.64-.51-1.12-1.18-1.45-2-.32-.82-.48-1.81-.48-2.95,0-2.22,.48-3.86,1.44-4.91,.96-1.06,2.45-1.58,4.47-1.58h4.38v2.19h-4.33Z"/>
        <path class="cls-1" d="M108.34,222.68h-6.52c-.7,0-1.21,.13-1.54,.39-.33,.26-.49,.68-.49,1.25,0,.46,.14,.8,.42,1.02s.69,.34,1.25,.34h3.49c1.45,0,2.47,.27,3.09,.82,.61,.55,.92,1.46,.92,2.73s-.35,2.24-1.06,2.85c-.71,.61-1.82,.91-3.33,.91h-7.03v-2.24h6.61c.75,0,1.28-.11,1.59-.33,.31-.22,.46-.58,.46-1.09s-.14-.9-.42-1.12-.76-.33-1.45-.33h-3.12c-1.45,0-2.5-.29-3.17-.87-.67-.58-1-1.49-1-2.74,0-1.33,.35-2.3,1.05-2.92,.7-.61,1.82-.92,3.35-.92h6.91v2.24Z"/>
        <path class="cls-1" d="M122.87,222.63c-.96,0-1.68,.24-2.16,.72-.49,.48-.75,1.21-.81,2.19h7.3v2.19h-7.32c0,1.09,.24,1.88,.69,2.36,.46,.48,1.22,.72,2.29,.72h4.33v2.19h-4.46c-.98,0-1.76-.08-2.32-.25s-1.09-.45-1.59-.85c-.64-.51-1.12-1.18-1.45-2-.32-.82-.48-1.81-.48-2.95,0-2.22,.48-3.86,1.44-4.91,.96-1.06,2.45-1.58,4.47-1.58h4.38v2.19h-4.33Z"/>
        <path class="cls-1" d="M132.34,226.72l-4.24-6.28h3.09l2.59,3.96,2.57-3.96h3.05l-4.04,6.1,4.33,6.45h-3.16l-2.64-4.37-2.8,4.37h-3.13l4.39-6.27Z"/>
        <path class="cls-1" d="M143.55,222.65h-4.06v-2.19h10.86v2.19h-4.07v10.35h-2.73v-10.35Z"/>
        <path class="cls-1" d="M156.81,222.63c-.96,0-1.68,.24-2.16,.72-.49,.48-.75,1.21-.81,2.19h7.3v2.19h-7.32c0,1.09,.24,1.88,.69,2.36,.46,.48,1.22,.72,2.29,.72h4.33v2.19h-4.46c-.98,0-1.76-.08-2.32-.25s-1.09-.45-1.59-.85c-.64-.51-1.12-1.18-1.45-2-.32-.82-.48-1.81-.48-2.95,0-2.22,.48-3.86,1.44-4.91,.96-1.06,2.45-1.58,4.47-1.58h4.38v2.19h-4.33Z"/>
        <path class="cls-1" d="M163.45,220.45h6.5c1.51,0,2.62,.3,3.33,.91,.71,.61,1.06,1.56,1.06,2.86,0,.96-.22,1.75-.65,2.36-.44,.61-1.06,1-1.88,1.18l3.13,5.24h-2.97l-2.77-4.93h-3.11v4.93h-2.64v-12.55Zm5.87,2.24h-3.24v3.16h3.24c.88,0,1.49-.12,1.83-.36,.34-.24,.51-.65,.51-1.23s-.17-.98-.5-1.22c-.33-.24-.95-.35-1.84-.35Z"/>
        <path class="cls-1" d="M176.56,220.45h3.34l5.14,9.02-.13-9.02h2.7v12.55h-3.06l-5.4-9.49,.12,9.49h-2.71v-12.55Z"/>
        <path class="cls-1" d="M193.76,220.45h2.8l5.35,12.55h-2.94l-1.15-2.99h-5.46l-1.12,2.99h-2.8l5.31-12.55Zm1.3,2.49l-1.84,4.83h3.74l-1.9-4.83Z"/>
        <path class="cls-1" d="M207.77,233c-1.17,0-2.04-.1-2.61-.29-.57-.2-1.08-.54-1.53-1.02-.42-.43-.71-.92-.88-1.47-.17-.55-.26-1.31-.26-2.3v-7.46h2.64v7.38c0,.73,.03,1.25,.1,1.55s.18,.54,.34,.72c.25,.3,.56,.51,.92,.63,.36,.12,.87,.19,1.51,.19h3.11v2.08h-3.34Z"/>
        <path class="cls-1" d="M219.28,220.45h3.34l5.14,9.02-.13-9.02h2.7v12.55h-3.06l-5.4-9.49,.12,9.49h-2.71v-12.55Z"/>
        <path class="cls-1" d="M232.07,226.59c0-2.16,.52-3.76,1.55-4.81s2.6-1.58,4.71-1.58,3.7,.53,4.72,1.6c1.02,1.06,1.53,2.71,1.53,4.93s-.51,3.86-1.53,4.93c-1.02,1.07-2.59,1.61-4.72,1.61s-3.73-.54-4.74-1.61c-1.01-1.08-1.52-2.76-1.52-5.05Zm6.26-4.24c-1.13,0-1.98,.35-2.54,1.06-.56,.71-.84,1.77-.84,3.2,0,1.55,.27,2.68,.81,3.4,.54,.72,1.4,1.08,2.56,1.08s2-.36,2.55-1.07c.55-.71,.83-1.81,.83-3.3s-.28-2.59-.83-3.3c-.55-.71-1.41-1.07-2.55-1.07Z"/>
        <path class="cls-1" d="M249.17,233h-2.76v-12.55h2.76v12.55Z"/>
        <path class="cls-1" d="M262.4,222.68h-6.52c-.7,0-1.21,.13-1.54,.39-.33,.26-.49,.68-.49,1.25,0,.46,.14,.8,.42,1.02s.69,.34,1.25,.34h3.49c1.45,0,2.47,.27,3.09,.82,.61,.55,.92,1.46,.92,2.73s-.35,2.24-1.06,2.85c-.71,.61-1.82,.91-3.33,.91h-7.03v-2.24h6.61c.75,0,1.28-.11,1.59-.33,.31-.22,.46-.58,.46-1.09s-.14-.9-.42-1.12-.76-.33-1.45-.33h-3.12c-1.45,0-2.5-.29-3.17-.87-.67-.58-1-1.49-1-2.74,0-1.33,.35-2.3,1.05-2.92,.7-.61,1.82-.92,3.35-.92h6.91v2.24Z"/>
        <path class="cls-1" d="M270.15,222.63c-.96,0-1.68,.24-2.16,.72-.49,.48-.75,1.21-.81,2.19h7.3v2.19h-7.32c0,1.09,.24,1.88,.69,2.36,.46,.48,1.22,.72,2.29,.72h4.33v2.19h-4.46c-.98,0-1.76-.08-2.32-.25s-1.09-.45-1.59-.85c-.64-.51-1.12-1.18-1.45-2-.32-.82-.48-1.81-.48-2.95,0-2.22,.48-3.86,1.44-4.91,.96-1.06,2.45-1.58,4.47-1.58h4.38v2.19h-4.33Z"/>
        <path class="cls-1" d="M282.15,220.45h2.83l2.9,9.65,2.45-9.65h3.12l2.81,9.65,2.71-9.65h2.71l-3.88,12.55h-3.24l-2.68-9.37-2.34,9.37h-3.22l-4.17-12.55Z"/>
        <path class="cls-1" d="M305.54,220.45v5.09h4.84v-5.09h2.64v12.55h-2.64v-5.24h-4.84v5.24h-2.64v-12.55h2.64Z"/>
        <path class="cls-1" d="M320.79,222.63c-.96,0-1.68,.24-2.16,.72-.49,.48-.75,1.21-.81,2.19h7.3v2.19h-7.32c0,1.09,.24,1.88,.69,2.36,.46,.48,1.22,.72,2.29,.72h4.33v2.19h-4.46c-.98,0-1.76-.08-2.32-.25s-1.09-.45-1.59-.85c-.64-.51-1.12-1.18-1.45-2-.32-.82-.48-1.81-.48-2.95,0-2.22,.48-3.86,1.44-4.91,.96-1.06,2.45-1.58,4.47-1.58h4.38v2.19h-4.33Z"/>
        <path class="cls-1" d="M327.43,220.45h3.34l5.14,9.02-.13-9.02h2.7v12.55h-3.06l-5.4-9.49,.12,9.49h-2.71v-12.55Z"/>
        <path class="cls-1" d="M345.79,220.45h2.97l3.1,4.79,3.14-4.79h3.06l-4.85,7.01v5.54h-2.64v-5.54l-4.79-7.01Z"/>
        <path class="cls-1" d="M357.53,226.59c0-2.16,.52-3.76,1.55-4.81s2.6-1.58,4.71-1.58,3.7,.53,4.72,1.6c1.02,1.06,1.53,2.71,1.53,4.93s-.51,3.86-1.53,4.93c-1.02,1.07-2.59,1.61-4.72,1.61s-3.73-.54-4.74-1.61c-1.01-1.08-1.52-2.76-1.52-5.05Zm6.26-4.24c-1.13,0-1.98,.35-2.54,1.06-.56,.71-.84,1.77-.84,3.2,0,1.55,.27,2.68,.81,3.4,.54,.72,1.4,1.08,2.56,1.08s2-.36,2.55-1.07c.55-.71,.83-1.81,.83-3.3s-.28-2.59-.83-3.3c-.55-.71-1.41-1.07-2.55-1.07Z"/>
        <path class="cls-1" d="M374.44,220.45v7.51c0,1.17,.21,1.99,.64,2.46,.42,.46,1.15,.7,2.19,.7s1.76-.23,2.19-.69c.42-.46,.63-1.28,.63-2.46v-7.51h2.64v7.58c0,.89-.06,1.6-.17,2.13-.12,.53-.3,.95-.56,1.25-.5,.59-1.13,1.03-1.89,1.31-.76,.28-1.7,.42-2.83,.42s-2.07-.14-2.84-.42c-.77-.28-1.4-.71-1.9-1.31-.25-.3-.43-.71-.55-1.22-.11-.51-.17-1.23-.17-2.16v-7.58h2.63Z"/>
        <path class="cls-1" d="M384.67,220.72h1.65v4.77h-1.65v-4.77Z"/>
        <path class="cls-1" d="M388.29,220.45h6.5c1.51,0,2.62,.3,3.33,.91,.71,.61,1.06,1.56,1.06,2.86,0,.96-.22,1.75-.65,2.36-.44,.61-1.06,1-1.88,1.18l3.13,5.24h-2.97l-2.77-4.93h-3.11v4.93h-2.64v-12.55Zm5.87,2.24h-3.24v3.16h3.24c.88,0,1.49-.12,1.83-.36,.34-.24,.51-.65,.51-1.23s-.17-.98-.5-1.22c-.33-.24-.95-.35-1.84-.35Z"/>
        <path class="cls-1" d="M406.57,222.63c-.96,0-1.68,.24-2.16,.72-.49,.48-.75,1.21-.81,2.19h7.3v2.19h-7.32c0,1.09,.24,1.88,.69,2.36,.46,.48,1.22,.72,2.29,.72h4.33v2.19h-4.46c-.98,0-1.76-.08-2.32-.25s-1.09-.45-1.59-.85c-.64-.51-1.12-1.18-1.45-2-.32-.82-.48-1.81-.48-2.95,0-2.22,.48-3.86,1.44-4.91,.96-1.06,2.45-1.58,4.47-1.58h4.38v2.19h-4.33Z"/>
        <path class="cls-1" d="M419.17,226.59c0-2.16,.52-3.76,1.55-4.81s2.6-1.58,4.71-1.58,3.7,.53,4.72,1.6c1.02,1.06,1.53,2.71,1.53,4.93s-.51,3.86-1.53,4.93c-1.02,1.07-2.59,1.61-4.72,1.61s-3.73-.54-4.74-1.61c-1.01-1.08-1.52-2.76-1.52-5.05Zm6.26-4.24c-1.13,0-1.98,.35-2.54,1.06-.56,.71-.84,1.77-.84,3.2,0,1.55,.27,2.68,.81,3.4,.54,.72,1.4,1.08,2.56,1.08s2-.36,2.55-1.07c.55-.71,.83-1.81,.83-3.3s-.28-2.59-.83-3.3c-.55-.71-1.41-1.07-2.55-1.07Z"/>
        <path class="cls-1" d="M433.5,220.45h3.34l5.14,9.02-.13-9.02h2.7v12.55h-3.06l-5.4-9.49,.12,9.49h-2.71v-12.55Z"/>
        <path class="cls-1" d="M13.45,238.93h2.8l5.35,12.55h-2.94l-1.15-2.99h-5.46l-1.12,2.99h-2.8l5.31-12.55Zm1.3,2.49l-1.84,4.83h3.74l-1.9-4.83Z"/>
        <path class="cls-1" d="M34.43,241.07c-1.09,0-1.88,.35-2.36,1.04-.48,.69-.72,1.83-.72,3.42,0,1.38,.23,2.35,.69,2.91,.46,.56,1.26,.84,2.39,.84h4.34v2.19h-4.46c-.98,0-1.76-.08-2.32-.25s-1.09-.45-1.59-.85c-.64-.51-1.13-1.18-1.45-2-.32-.82-.48-1.81-.48-2.95,0-2.22,.48-3.86,1.44-4.91s2.45-1.58,4.47-1.58h4.39v2.14h-4.34Z"/>
        <path class="cls-1" d="M44.3,238.93h2.8l5.35,12.55h-2.94l-1.15-2.99h-5.46l-1.12,2.99h-2.8l5.31-12.55Zm1.3,2.49l-1.84,4.83h3.74l-1.9-4.83Z"/>
        <path class="cls-1" d="M58.31,251.48c-1.17,0-2.04-.1-2.61-.29-.57-.2-1.08-.54-1.53-1.02-.42-.43-.71-.92-.88-1.47-.17-.55-.26-1.31-.26-2.3v-7.46h2.64v7.38c0,.73,.03,1.25,.1,1.55s.18,.54,.34,.72c.25,.3,.56,.51,.92,.63,.36,.12,.87,.19,1.51,.19h3.11v2.08h-3.34Z"/>
        <path class="cls-1" d="M68.03,251.48c-1.17,0-2.04-.1-2.61-.29-.57-.2-1.08-.54-1.53-1.02-.42-.43-.71-.92-.88-1.47-.17-.55-.26-1.31-.26-2.3v-7.46h2.64v7.38c0,.73,.03,1.25,.1,1.55s.18,.54,.34,.72c.25,.3,.56,.51,.92,.63,.36,.12,.87,.19,1.51,.19h3.11v2.08h-3.34Z"/>
        <path class="cls-1" d="M78.68,245.66h5.87v2.19h-5.87v-2.19Z"/>
        <path class="cls-1" d="M103.7,241.17h-6.52c-.7,0-1.21,.13-1.54,.39-.33,.26-.49,.68-.49,1.25,0,.46,.14,.8,.42,1.02s.69,.34,1.25,.34h3.49c1.45,0,2.47,.27,3.09,.82,.61,.55,.92,1.46,.92,2.73s-.35,2.24-1.06,2.85c-.71,.61-1.82,.91-3.33,.91h-7.03v-2.24h6.61c.75,0,1.28-.11,1.59-.33,.31-.22,.46-.58,.46-1.09s-.14-.9-.42-1.12-.76-.33-1.45-.33h-3.12c-1.45,0-2.5-.29-3.17-.87-.67-.58-1-1.49-1-2.74,0-1.33,.35-2.3,1.05-2.92,.7-.61,1.82-.92,3.35-.92h6.91v2.24Z"/>
        <path class="cls-1" d="M105.47,245.08c0-2.16,.52-3.76,1.55-4.81s2.6-1.58,4.71-1.58,3.7,.53,4.72,1.6c1.02,1.06,1.53,2.71,1.53,4.93s-.51,3.86-1.53,4.93c-1.02,1.07-2.59,1.61-4.72,1.61s-3.73-.54-4.74-1.61c-1.01-1.08-1.52-2.76-1.52-5.05Zm6.26-4.24c-1.13,0-1.98,.35-2.54,1.06-.56,.71-.84,1.77-.84,3.2,0,1.55,.27,2.68,.81,3.4,.54,.72,1.4,1.08,2.56,1.08s2-.36,2.55-1.07c.55-.71,.83-1.81,.83-3.3s-.28-2.59-.83-3.3c-.55-.71-1.41-1.07-2.55-1.07Z"/>
        <path class="cls-1" d="M124.55,238.93h2.97l3.1,4.79,3.14-4.79h3.06l-4.85,7.01v5.54h-2.64v-5.54l-4.79-7.01Z"/>
        <path class="cls-1" d="M136.29,245.08c0-2.16,.52-3.76,1.55-4.81s2.6-1.58,4.71-1.58,3.7,.53,4.72,1.6c1.02,1.06,1.53,2.71,1.53,4.93s-.51,3.86-1.53,4.93c-1.02,1.07-2.59,1.61-4.72,1.61s-3.73-.54-4.74-1.61c-1.01-1.08-1.52-2.76-1.52-5.05Zm6.26-4.24c-1.13,0-1.98,.35-2.54,1.06-.56,.71-.84,1.77-.84,3.2,0,1.55,.27,2.68,.81,3.4,.54,.72,1.4,1.08,2.56,1.08s2-.36,2.55-1.07c.55-.71,.83-1.81,.83-3.3s-.28-2.59-.83-3.3c-.55-.71-1.41-1.07-2.55-1.07Z"/>
        <path class="cls-1" d="M153.2,238.93v7.51c0,1.17,.21,1.99,.64,2.46,.42,.46,1.15,.7,2.19,.7s1.76-.23,2.19-.69c.42-.46,.63-1.28,.63-2.46v-7.51h2.64v7.58c0,.89-.06,1.6-.17,2.13-.12,.53-.3,.95-.56,1.25-.5,.59-1.13,1.03-1.89,1.31-.76,.28-1.7,.42-2.83,.42s-2.07-.14-2.84-.42c-.77-.28-1.4-.71-1.9-1.31-.25-.3-.43-.71-.55-1.22-.11-.51-.17-1.23-.17-2.16v-7.58h2.63Z"/>
        <path class="cls-1" d="M164.05,238.93h6.5c1.51,0,2.62,.3,3.33,.91,.71,.61,1.06,1.56,1.06,2.86,0,.96-.22,1.75-.65,2.36-.44,.61-1.06,1-1.88,1.18l3.13,5.24h-2.97l-2.77-4.93h-3.11v4.93h-2.64v-12.55Zm5.87,2.24h-3.24v3.16h3.24c.88,0,1.49-.12,1.83-.36,.34-.24,.51-.65,.51-1.23s-.17-.98-.5-1.22c-.33-.24-.95-.35-1.84-.35Z"/>
        <path class="cls-1" d="M187.54,251.48l-5.47-12.55h3l3.77,9.35,3.87-9.35h2.81l-5.24,12.55h-2.73Z"/>
        <path class="cls-1" d="M195.38,245.08c0-2.16,.52-3.76,1.55-4.81s2.6-1.58,4.71-1.58,3.7,.53,4.72,1.6c1.02,1.06,1.53,2.71,1.53,4.93s-.51,3.86-1.53,4.93c-1.02,1.07-2.59,1.61-4.72,1.61s-3.73-.54-4.74-1.61c-1.01-1.08-1.52-2.76-1.52-5.05Zm6.26-4.24c-1.13,0-1.98,.35-2.54,1.06-.56,.71-.84,1.77-.84,3.2,0,1.55,.27,2.68,.81,3.4,.54,.72,1.4,1.08,2.56,1.08s2-.36,2.55-1.07c.55-.71,.83-1.81,.83-3.3s-.28-2.59-.83-3.3c-.55-.71-1.41-1.07-2.55-1.07Z"/>
        <path class="cls-1" d="M212.48,251.48h-2.76v-12.55h2.76v12.55Z"/>
        <path class="cls-1" d="M220.26,241.07c-1.09,0-1.88,.35-2.36,1.04-.48,.69-.72,1.83-.72,3.42,0,1.38,.23,2.35,.69,2.91,.46,.56,1.26,.84,2.39,.84h4.34v2.19h-4.46c-.98,0-1.76-.08-2.32-.25s-1.09-.45-1.59-.85c-.64-.51-1.13-1.18-1.45-2-.32-.82-.48-1.81-.48-2.95,0-2.22,.48-3.86,1.44-4.91s2.45-1.58,4.47-1.58h4.39v2.14h-4.34Z"/>
        <path class="cls-1" d="M231.71,241.12c-.96,0-1.68,.24-2.16,.72-.49,.48-.75,1.21-.81,2.19h7.3v2.19h-7.32c0,1.09,.24,1.88,.69,2.36,.46,.48,1.22,.72,2.29,.72h4.33v2.19h-4.46c-.98,0-1.76-.08-2.32-.25s-1.09-.45-1.59-.85c-.64-.51-1.12-1.18-1.45-2-.32-.82-.48-1.81-.48-2.95,0-2.22,.48-3.86,1.44-4.91,.96-1.06,2.45-1.58,4.47-1.58h4.38v2.19h-4.33Z"/>
        <path class="cls-1" d="M247.9,251.48h-2.76v-12.55h2.76v12.55Z"/>
        <path class="cls-1" d="M261.12,241.17h-6.52c-.7,0-1.21,.13-1.54,.39-.33,.26-.49,.68-.49,1.25,0,.46,.14,.8,.42,1.02s.69,.34,1.25,.34h3.49c1.45,0,2.47,.27,3.09,.82,.61,.55,.92,1.46,.92,2.73s-.35,2.24-1.06,2.85c-.71,.61-1.82,.91-3.33,.91h-7.03v-2.24h6.61c.75,0,1.28-.11,1.59-.33,.31-.22,.46-.58,.46-1.09s-.14-.9-.42-1.12-.76-.33-1.45-.33h-3.12c-1.45,0-2.5-.29-3.17-.87-.67-.58-1-1.49-1-2.74,0-1.33,.35-2.3,1.05-2.92,.7-.61,1.82-.92,3.35-.92h6.91v2.24Z"/>
        <path class="cls-1" d="M274.07,238.93h2.8l5.35,12.55h-2.94l-1.15-2.99h-5.46l-1.12,2.99h-2.8l5.31-12.55Zm1.3,2.49l-1.84,4.83h3.74l-1.9-4.83Z"/>
        <path class="cls-1" d="M288.08,251.48c-1.17,0-2.04-.1-2.61-.29-.57-.2-1.08-.54-1.53-1.02-.42-.43-.71-.92-.88-1.47-.17-.55-.26-1.31-.26-2.3v-7.46h2.64v7.38c0,.73,.03,1.25,.1,1.55s.18,.54,.34,.72c.25,.3,.56,.51,.92,.63,.36,.12,.87,.19,1.51,.19h3.11v2.08h-3.34Z"/>
        <path class="cls-1" d="M290.88,238.93h2.83l2.9,9.65,2.45-9.65h3.12l2.81,9.65,2.71-9.65h2.71l-3.88,12.55h-3.24l-2.68-9.37-2.34,9.37h-3.22l-4.17-12.55Z"/>
        <path class="cls-1" d="M314.92,238.93h2.8l5.35,12.55h-2.94l-1.15-2.99h-5.46l-1.12,2.99h-2.8l5.31-12.55Zm1.3,2.49l-1.84,4.83h3.74l-1.9-4.83Z"/>
        <path class="cls-1" d="M320.91,238.93h2.97l3.1,4.79,3.14-4.79h3.06l-4.85,7.01v5.54h-2.64v-5.54l-4.79-7.01Z"/>
        <path class="cls-1" d="M344.38,241.17h-6.52c-.7,0-1.21,.13-1.54,.39-.33,.26-.49,.68-.49,1.25,0,.46,.14,.8,.42,1.02s.69,.34,1.25,.34h3.49c1.45,0,2.47,.27,3.09,.82,.61,.55,.92,1.46,.92,2.73s-.35,2.24-1.06,2.85c-.71,.61-1.82,.91-3.33,.91h-7.03v-2.24h6.61c.75,0,1.28-.11,1.59-.33,.31-.22,.46-.58,.46-1.09s-.14-.9-.42-1.12-.76-.33-1.45-.33h-3.12c-1.45,0-2.5-.29-3.17-.87-.67-.58-1-1.49-1-2.74,0-1.33,.35-2.3,1.05-2.92,.7-.61,1.82-.92,3.35-.92h6.91v2.24Z"/>
        <path class="cls-1" d="M356.37,238.93v5.09h4.84v-5.09h2.64v12.55h-2.64v-5.24h-4.84v5.24h-2.64v-12.55h2.64Z"/>
        <path class="cls-1" d="M371.62,241.12c-.96,0-1.68,.24-2.16,.72-.49,.48-.75,1.21-.81,2.19h7.3v2.19h-7.32c0,1.09,.24,1.88,.69,2.36,.46,.48,1.22,.72,2.29,.72h4.33v2.19h-4.46c-.98,0-1.76-.08-2.32-.25s-1.09-.45-1.59-.85c-.64-.51-1.12-1.18-1.45-2-.32-.82-.48-1.81-.48-2.95,0-2.22,.48-3.86,1.44-4.91,.96-1.06,2.45-1.58,4.47-1.58h4.38v2.19h-4.33Z"/>
        <path class="cls-1" d="M381.86,238.93h2.8l5.35,12.55h-2.94l-1.15-2.99h-5.46l-1.12,2.99h-2.8l5.31-12.55Zm1.3,2.49l-1.84,4.83h3.74l-1.9-4.83Z"/>
        <path class="cls-1" d="M390.89,238.93h6.5c1.51,0,2.62,.3,3.33,.91,.71,.61,1.06,1.56,1.06,2.86,0,.96-.22,1.75-.65,2.36-.44,.61-1.06,1-1.88,1.18l3.13,5.24h-2.97l-2.77-4.93h-3.11v4.93h-2.64v-12.55Zm5.87,2.24h-3.24v3.16h3.24c.88,0,1.49-.12,1.83-.36,.34-.24,.51-.65,.51-1.23s-.17-.98-.5-1.22c-.33-.24-.95-.35-1.84-.35Z"/>
        <path class="cls-1" d="M404,238.93h5.75c2.02,0,3.51,.53,4.47,1.58s1.44,2.69,1.44,4.91c0,1.14-.16,2.13-.48,2.95s-.8,1.49-1.45,2c-.5,.4-1.02,.68-1.59,.85-.56,.17-1.34,.25-2.32,.25h-5.82v-12.55Zm5.69,2.19h-3.06v8.18h3.06c1.17,0,1.97-.29,2.42-.88,.44-.59,.67-1.66,.67-3.21s-.22-2.62-.67-3.21c-.44-.59-1.25-.88-2.42-.88Z"/>
        <path class="cls-1" d="M15.03,259.56c-1.09,0-1.88,.35-2.36,1.04-.48,.69-.72,1.83-.72,3.42,0,1.38,.23,2.35,.69,2.91,.46,.56,1.26,.84,2.39,.84h4.34v2.19h-4.46c-.98,0-1.76-.08-2.32-.25s-1.09-.45-1.59-.85c-.64-.51-1.13-1.18-1.45-2-.32-.82-.48-1.81-.48-2.95,0-2.22,.48-3.86,1.44-4.91s2.45-1.58,4.47-1.58h4.39v2.14h-4.34Z"/>
        <path class="cls-1" d="M21.31,257.41h6.5c1.51,0,2.62,.3,3.33,.91,.71,.61,1.06,1.56,1.06,2.86,0,.96-.22,1.75-.65,2.36-.44,.61-1.06,1-1.88,1.18l3.13,5.24h-2.97l-2.77-4.93h-3.11v4.93h-2.64v-12.55Zm5.87,2.24h-3.24v3.16h3.24c.88,0,1.49-.12,1.83-.36,.34-.24,.51-.65,.51-1.23s-.17-.98-.5-1.22c-.33-.24-.95-.35-1.84-.35Z"/>
        <path class="cls-1" d="M32.4,257.41h2.97l3.1,4.79,3.14-4.79h3.06l-4.85,7.01v5.54h-2.64v-5.54l-4.79-7.01Z"/>
        <path class="cls-1" d="M55.87,259.65h-6.52c-.7,0-1.21,.13-1.54,.39-.33,.26-.49,.68-.49,1.25,0,.46,.14,.8,.42,1.02s.69,.34,1.25,.34h3.49c1.45,0,2.47,.27,3.09,.82,.61,.55,.92,1.46,.92,2.73s-.35,2.24-1.06,2.85c-.71,.61-1.82,.91-3.33,.91h-7.03v-2.24h6.61c.75,0,1.28-.11,1.59-.33,.31-.22,.46-.58,.46-1.09s-.14-.9-.42-1.12-.76-.33-1.45-.33h-3.12c-1.45,0-2.5-.29-3.17-.87-.67-.58-1-1.49-1-2.74,0-1.33,.35-2.3,1.05-2.92,.7-.61,1.82-.92,3.35-.92h6.91v2.24Z"/>
        <path class="cls-1" d="M61.2,259.62h-4.06v-2.19h10.86v2.19h-4.07v10.35h-2.73v-10.35Z"/>
        <path class="cls-1" d="M71.27,257.41h2.8l5.35,12.55h-2.94l-1.15-2.99h-5.46l-1.12,2.99h-2.8l5.31-12.55Zm1.3,2.49l-1.84,4.83h3.74l-1.9-4.83Z"/>
        <path class="cls-1" d="M85.28,269.96c-1.17,0-2.04-.1-2.61-.29-.57-.2-1.08-.54-1.53-1.02-.42-.43-.71-.92-.88-1.47-.17-.55-.26-1.31-.26-2.3v-7.46h2.64v7.38c0,.73,.03,1.25,.1,1.55s.18,.54,.34,.72c.25,.3,.56,.51,.92,.63,.36,.12,.87,.19,1.51,.19h3.11v2.08h-3.34Z"/>
        <path class="cls-1" d="M101.97,259.56c-1.09,0-1.88,.35-2.36,1.04-.48,.69-.72,1.83-.72,3.42,0,1.38,.23,2.35,.69,2.91,.46,.56,1.26,.84,2.39,.84h4.34v2.19h-4.46c-.98,0-1.76-.08-2.32-.25s-1.09-.45-1.59-.85c-.64-.51-1.13-1.18-1.45-2-.32-.82-.48-1.81-.48-2.95,0-2.22,.48-3.86,1.44-4.91s2.45-1.58,4.47-1.58h4.39v2.14h-4.34Z"/>
        <path class="cls-1" d="M113.23,269.96c-1.17,0-2.04-.1-2.61-.29-.57-.2-1.08-.54-1.53-1.02-.42-.43-.71-.92-.88-1.47-.17-.55-.26-1.31-.26-2.3v-7.46h2.64v7.38c0,.73,.03,1.25,.1,1.55s.18,.54,.34,.72c.25,.3,.56,.51,.92,.63,.36,.12,.87,.19,1.51,.19h3.11v2.08h-3.34Z"/>
        <path class="cls-1" d="M123.14,259.6c-.96,0-1.68,.24-2.16,.72-.49,.48-.75,1.21-.81,2.19h7.3v2.19h-7.32c0,1.09,.24,1.88,.69,2.36,.46,.48,1.22,.72,2.29,.72h4.33v2.19h-4.46c-.98,0-1.76-.08-2.32-.25s-1.09-.45-1.59-.85c-.64-.51-1.12-1.18-1.45-2-.32-.82-.48-1.81-.48-2.95,0-2.22,.48-3.86,1.44-4.91,.96-1.06,2.45-1.58,4.47-1.58h4.38v2.19h-4.33Z"/>
        <path class="cls-1" d="M133.38,257.41h2.8l5.35,12.55h-2.94l-1.15-2.99h-5.46l-1.12,2.99h-2.8l5.31-12.55Zm1.3,2.49l-1.84,4.83h3.74l-1.9-4.83Z"/>
        <path class="cls-1" d="M142.41,257.41h6.5c1.51,0,2.62,.3,3.33,.91,.71,.61,1.06,1.56,1.06,2.86,0,.96-.22,1.75-.65,2.36-.44,.61-1.06,1-1.88,1.18l3.13,5.24h-2.97l-2.77-4.93h-3.11v4.93h-2.64v-12.55Zm5.87,2.24h-3.24v3.16h3.24c.88,0,1.49-.12,1.83-.36,.34-.24,.51-.65,.51-1.23s-.17-.98-.5-1.22c-.33-.24-.95-.35-1.84-.35Z"/>
      </g>
      <g class="cls-3">
        <path class="cls-1" d="M17.04,6.95c-2.73,0-4.79,.68-6.18,2.05s-2.16,3.46-2.3,6.27l20.86,.02v6.25H8.51c.02,3.12,.68,5.37,1.99,6.73,1.31,1.37,3.49,2.05,6.54,2.05h12.38v6.25h-12.75c-2.81,0-5.02-.24-6.63-.72-1.61-.48-3.12-1.29-4.54-2.43-1.84-1.46-3.21-3.37-4.13-5.72-.92-2.35-1.38-5.16-1.38-8.43C0,12.93,1.37,8.25,4.12,5.23S11.13,.71,16.9,.71h12.53V6.95h-12.38Z"/>
        <path class="cls-1" d="M37.04,.71h9.54l14.69,25.76-.37-25.76h7.71V36.57h-8.76l-15.42-27.13,.34,27.13h-7.73V.71Z"/>
        <path class="cls-1" d="M87.22,36.57L71.58,.71h8.56l10.78,26.72L101.98,.71h8.03l-14.98,35.87h-7.81Z"/>
        <path class="cls-1" d="M120.86,36.57h-7.88V.71h7.88V36.57Z"/>
        <path class="cls-1" d="M129.33,.71h18.57c4.33,0,7.5,.87,9.52,2.61,2.02,1.74,3.03,4.46,3.03,8.17,0,2.75-.62,4.99-1.87,6.73-1.24,1.74-3.04,2.86-5.38,3.37l8.95,14.98h-8.49l-7.9-14.1h-8.88v14.1h-7.54V.71Zm16.79,6.39h-9.25v9.03h9.25c2.5,0,4.25-.34,5.22-1.02,.98-.68,1.46-1.85,1.46-3.51s-.48-2.8-1.43-3.48-2.7-1.01-5.26-1.01Z"/>
        <path class="cls-1" d="M165.49,18.27c0-6.16,1.48-10.75,4.43-13.76,2.95-3.01,7.44-4.51,13.47-4.51s10.58,1.52,13.5,4.56c2.92,3.04,4.38,7.73,4.38,14.08s-1.46,11.04-4.38,14.1c-2.92,3.06-7.42,4.59-13.5,4.59s-10.66-1.54-13.56-4.61c-2.89-3.07-4.34-7.89-4.34-14.44Zm17.9-12.12c-3.23,0-5.65,1.01-7.25,3.03s-2.4,5.07-2.4,9.15c0,4.42,.78,7.67,2.33,9.72,1.55,2.06,3.99,3.09,7.32,3.09s5.71-1.02,7.3-3.06c1.58-2.04,2.38-5.18,2.38-9.43s-.79-7.41-2.38-9.44c-1.58-2.03-4.02-3.05-7.3-3.05Z"/>
        <path class="cls-1" d="M207.42,.71h9.54l14.69,25.76-.37-25.76h7.71V36.57h-8.76l-15.42-27.13,.34,27.13h-7.73V.71Z"/>
        <path class="cls-1" d="M247.29,.71h11.08l9.15,27.52L276.66,.71h11.03V36.57h-7.39l.61-27.94-9.2,27.94h-8l-9.49-28.23,.76,28.23h-7.69V.71Z"/>
        <path class="cls-1" d="M310.88,6.95c-2.73,0-4.79,.68-6.18,2.05s-2.16,3.46-2.3,6.27l20.86,.02v6.25h-20.91c.02,3.12,.68,5.37,1.99,6.73,1.31,1.37,3.49,2.05,6.54,2.05h12.38v6.25h-12.75c-2.81,0-5.02-.24-6.63-.72-1.61-.48-3.12-1.29-4.54-2.43-1.84-1.46-3.21-3.37-4.13-5.72-.92-2.35-1.38-5.16-1.38-8.43,0-6.34,1.37-11.02,4.12-14.04s7.01-4.53,12.78-4.53h12.53V6.95h-12.38Z"/>
        <path class="cls-1" d="M330.88,.71h9.54l14.69,25.76-.37-25.76h7.71V36.57h-8.76l-15.42-27.13,.34,27.13h-7.73V.71Z"/>
        <path class="cls-1" d="M378.57,7h-11.59V.76h31.03V7h-11.64v29.57h-7.81V7Z"/>
        <path class="cls-1" d="M408.36,.71h8l15.3,35.87h-8.39l-3.29-8.54h-15.59l-3.2,8.54h-8L408.36,.71Zm3.71,7.12l-5.25,13.81h10.69l-5.44-13.81Z"/>
        <path class="cls-1" d="M449.4,36.57c-3.35,0-5.84-.28-7.47-.84-1.63-.56-3.08-1.53-4.37-2.92-1.19-1.24-2.03-2.64-2.51-4.2s-.73-3.76-.73-6.59V.71h7.54V21.79c0,2.1,.09,3.57,.28,4.43,.19,.85,.51,1.54,.96,2.06,.72,.85,1.59,1.45,2.64,1.8,1.04,.36,2.48,.54,4.32,.54h8.88v5.95h-9.54Z"/>
      </g>
      <g class="cls-3">
        <path class="cls-1" d="M27.84,173.01c-3.53,0-6.08,1.12-7.63,3.37-1.55,2.24-2.33,5.93-2.33,11.07,0,4.45,.75,7.59,2.24,9.41s4.07,2.73,7.73,2.73h14.02v7.07h-14.43c-3.18,0-5.69-.27-7.51-.81-1.82-.54-3.53-1.46-5.13-2.75-2.08-1.66-3.64-3.81-4.68-6.47-1.04-2.66-1.56-5.84-1.56-9.53,0-7.18,1.55-12.47,4.66-15.88,3.11-3.41,7.93-5.12,14.46-5.12h14.19v6.93h-14.02Z"/>
        <path class="cls-1" d="M60.87,166.09h9.05l17.3,40.57h-9.49l-3.73-9.66h-17.64l-3.62,9.66h-9.05l17.17-40.57Zm4.19,8.06l-5.93,15.62h12.09l-6.15-15.62Z"/>
        <path class="cls-1" d="M91.2,166.09h10.79l16.61,29.14-.41-29.14h8.72v40.57h-9.91l-17.44-30.69,.39,30.69h-8.75v-40.57Z"/>
        <path class="cls-1" d="M153.02,173.01c-3.53,0-6.08,1.12-7.63,3.37-1.55,2.24-2.33,5.93-2.33,11.07,0,4.45,.75,7.59,2.24,9.41s4.07,2.73,7.73,2.73h14.02v7.07h-14.43c-3.18,0-5.69-.27-7.51-.81-1.82-.54-3.53-1.46-5.13-2.75-2.08-1.66-3.64-3.81-4.68-6.47-1.04-2.66-1.56-5.84-1.56-9.53,0-7.18,1.55-12.47,4.66-15.88,3.11-3.41,7.93-5.12,14.46-5.12h14.19v6.93h-14.02Z"/>
        <path class="cls-1" d="M191.15,173.15c-3.09,0-5.42,.77-6.99,2.32-1.57,1.55-2.44,3.91-2.6,7.09l23.6,.03v7.07h-23.65c.02,3.53,.77,6.07,2.25,7.62,1.48,1.54,3.95,2.32,7.4,2.32h14v7.07h-14.42c-3.18,0-5.68-.27-7.5-.81-1.82-.54-3.53-1.46-5.13-2.75-2.08-1.66-3.64-3.81-4.68-6.47-1.04-2.66-1.56-5.84-1.56-9.53,0-7.18,1.55-12.47,4.66-15.88,3.11-3.41,7.93-5.12,14.45-5.12h14.17v7.06h-14Z"/>
        <path class="cls-1" d="M229.85,206.66c-3.79,0-6.6-.32-8.44-.95s-3.49-1.73-4.94-3.3c-1.34-1.4-2.29-2.98-2.84-4.75-.55-1.77-.83-4.25-.83-7.45v-24.12h8.53v23.84c0,2.37,.11,4.04,.32,5.01,.21,.97,.57,1.74,1.09,2.33,.81,.96,1.8,1.64,2.98,2.04,1.18,.4,2.81,.61,4.88,.61h10.05v6.73h-10.79Z"/>
        <path class="cls-1" d="M262.41,206.66c-3.79,0-6.6-.32-8.44-.95s-3.49-1.73-4.94-3.3c-1.34-1.4-2.29-2.98-2.84-4.75-.55-1.77-.83-4.25-.83-7.45v-24.12h8.53v23.84c0,2.37,.11,4.04,.32,5.01,.21,.97,.57,1.74,1.09,2.33,.81,.96,1.8,1.64,2.98,2.04,1.18,.4,2.81,.61,4.88,.61h10.05v6.73h-10.79Z"/>
        <path class="cls-1" d="M291.56,166.09h9.05l17.3,40.57h-9.49l-3.73-9.66h-17.64l-3.62,9.66h-9.05l17.17-40.57Zm4.19,8.06l-5.93,15.62h12.09l-6.15-15.62Z"/>
        <path class="cls-1" d="M325.56,173.21h-13.11v-7.07h35.1v7.07h-13.16v33.45h-8.83v-33.45Z"/>
        <path class="cls-1" d="M361.79,206.66h-8.91v-40.57h8.91v40.57Z"/>
        <path class="cls-1" d="M368.74,185.96c0-6.97,1.67-12.16,5.01-15.57,3.34-3.4,8.42-5.11,15.24-5.11s11.96,1.72,15.27,5.16c3.3,3.44,4.95,8.75,4.95,15.92s-1.65,12.49-4.95,15.95c-3.3,3.46-8.39,5.19-15.27,5.19s-12.06-1.74-15.33-5.22c-3.27-3.48-4.91-8.92-4.91-16.34Zm20.24-13.72c-3.66,0-6.39,1.14-8.2,3.42-1.81,2.28-2.72,5.73-2.72,10.35,0,5,.88,8.67,2.63,11,1.75,2.33,4.52,3.49,8.28,3.49s6.46-1.15,8.26-3.46c1.79-2.31,2.69-5.86,2.69-10.67s-.9-8.38-2.69-10.68c-1.79-2.3-4.54-3.45-8.26-3.45Z"/>
        <path class="cls-1" d="M416.18,166.09h10.79l16.61,29.14-.41-29.14h8.72v40.57h-9.91l-17.44-30.69,.39,30.69h-8.75v-40.57Z"/>
      </g>
      <g class="cls-3">
        <g>
          <path class="cls-1" d="M6.96,54.22h26.62l40.98,71.88-1.02-71.88h21.51v100.07h-24.44L27.58,78.59l.95,75.7H6.96V54.22Z"/>
          <path class="cls-1" d="M111.72,103.23c0-17.2,4.12-30,12.35-38.39,8.23-8.4,20.76-12.59,37.58-12.59s29.51,4.24,37.65,12.73c8.14,8.49,12.21,21.58,12.21,39.28s-4.07,30.82-12.21,39.35c-8.14,8.53-20.69,12.8-37.65,12.8s-29.75-4.29-37.82-12.87c-8.07-8.58-12.11-22.01-12.11-40.3Zm49.93-33.83c-9.02,0-15.76,2.81-20.23,8.44-4.46,5.63-6.7,14.14-6.7,25.53,0,12.34,2.16,21.39,6.49,27.13,4.33,5.74,11.14,8.61,20.43,8.61s15.94-2.85,20.36-8.54c4.42-5.69,6.63-14.47,6.63-26.31s-2.21-20.67-6.63-26.34c-4.42-5.67-11.21-8.51-20.36-8.51Z"/>
          <path class="cls-1" d="M250.86,154.29h-21.99V54.22h21.99v100.07Z"/>
          <path class="cls-1" d="M359.09,72.06h-52.01c-5.58,0-9.68,1.04-12.29,3.13-2.61,2.09-3.91,5.4-3.91,9.94,0,3.63,1.11,6.35,3.34,8.17,2.22,1.82,5.54,2.72,9.94,2.72h27.84c11.53,0,19.73,2.18,24.61,6.54,4.88,4.36,7.32,11.62,7.32,21.78s-2.81,17.87-8.44,22.7c-5.63,4.83-14.48,7.25-26.55,7.25h-56.02v-17.83h52.69c5.99,0,10.21-.87,12.66-2.62,2.45-1.75,3.68-4.64,3.68-8.68s-1.12-7.15-3.37-8.92c-2.25-1.77-6.09-2.66-11.54-2.66h-24.85c-11.53,0-19.96-2.3-25.29-6.91-5.33-4.61-8-11.88-8-21.82,0-10.62,2.8-18.38,8.41-23.28,5.6-4.9,14.51-7.35,26.72-7.35h55.07v17.83Z"/>
          <path class="cls-1" d="M423.73,71.65c-7.62,0-13.36,1.91-17.24,5.72-3.88,3.81-6.02,9.64-6.43,17.5l58.2,.07v17.43h-58.34c.04,8.71,1.89,14.98,5.54,18.79,3.65,3.81,9.73,5.72,18.26,5.72h34.54v17.43h-35.56c-7.85,0-14.02-.67-18.51-2.01-4.49-1.34-8.71-3.6-12.65-6.77-5.13-4.08-8.97-9.41-11.53-15.96-2.56-6.56-3.84-14.4-3.84-23.52,0-17.7,3.83-30.76,11.5-39.18,7.66-8.42,19.55-12.63,35.65-12.63h34.95v17.43h-34.54Z"/>
        </g>
      </g>
      <circle class="cls-1" cx="162.87" cy="104.75" r="55.82"/>
      <g>
        <path class="cls-2" d="M171.84,118.27c7.47-7.47,7.47-19.59,0-27.06"/>
        <path class="cls-2" d="M179.22,125.65c11.55-11.55,11.55-30.27,0-41.82"/>
        <path class="cls-2" d="M186.6,133.03c15.62-15.62,15.62-40.95,0-56.57"/>
        <polygon class="cls-2" points="161.79 104.75 161.79 136.05 160.05 136.05 137.44 118.66 137.44 104.75 137.44 90.83 160.05 73.44 161.79 73.44 161.79 104.75"/>
        <polyline class="cls-2" points="137.44 118.66 121.79 118.66 121.79 104.74 121.79 90.83 137.44 90.83"/>
      </g>
    </g>
  </g>
</svg>