<?xml version="1.0" encoding="UTF-8"?>
<svg id="Layer_2" data-name="Layer 2" xmlns="http://www.w3.org/2000/svg" viewBox="0 0 392.12 314.42">
  <defs>
    <style>
      .cls-1 {
        fill: #f06669;
      }

      .cls-2 {
        fill: #fff;
      }

      .cls-3 {
        opacity: .6;
      }
    </style>
  </defs>
  <g id="Layer_1-2" data-name="Layer 1">
    <g>
      <g>
        <g class="cls-3">
          <g>
            <path class="cls-2" d="M120.95,67.9c-5.78,0-10.07-.48-12.88-1.45s-5.32-2.64-7.53-5.03c-2.05-2.13-3.49-4.54-4.33-7.24-.84-2.69-1.26-6.48-1.26-11.36V6.04h13V42.4c0,3.62,.16,6.17,.48,7.64,.32,1.47,.88,2.66,1.66,3.56,1.23,1.46,2.75,2.5,4.54,3.11,1.79,.62,4.28,.93,7.45,.93h15.32v10.27h-16.45Z"/>
            <path class="cls-2" d="M137.28,36.34c0-10.63,2.54-18.54,7.63-23.73,5.09-5.19,12.83-7.78,23.23-7.78s18.24,2.62,23.28,7.87c5.03,5.25,7.55,13.34,7.55,24.28s-2.52,19.05-7.55,24.32c-5.03,5.27-12.79,7.91-23.28,7.91s-18.39-2.65-23.38-7.95c-4.99-5.3-7.49-13.61-7.49-24.91Zm30.87-20.91c-5.58,0-9.74,1.74-12.5,5.22-2.76,3.48-4.14,8.74-4.14,15.78,0,7.63,1.34,13.22,4.01,16.77,2.68,3.55,6.89,5.32,12.63,5.32s9.85-1.76,12.59-5.28c2.73-3.52,4.1-8.94,4.1-16.26s-1.37-12.78-4.1-16.28c-2.73-3.51-6.93-5.26-12.59-5.26Z"/>
            <path class="cls-2" d="M200.9,6.04h13.93l14.31,47.55,12.08-47.55h15.36l13.84,47.55,13.38-47.55h13.34l-19.1,61.86h-15.95l-13.21-46.2-11.53,46.2h-15.86L200.9,6.04Z"/>
          </g>
          <g>
            <path class="cls-2" d="M26.58,142.43c-5.78,0-10.07-.48-12.88-1.45s-5.32-2.64-7.53-5.03c-2.05-2.13-3.49-4.54-4.33-7.24-.84-2.69-1.26-6.48-1.26-11.36v-36.78H13.57v36.36c0,3.62,.16,6.17,.48,7.64,.32,1.47,.88,2.66,1.66,3.56,1.23,1.46,2.75,2.5,4.54,3.11,1.79,.62,4.28,.93,7.45,.93h15.32v10.27H26.58Z"/>
            <path class="cls-2" d="M69.29,80.58h13.8l26.38,61.86h-14.48l-5.68-14.73h-26.89l-5.51,14.73h-13.8l26.17-61.86Zm6.4,12.29l-9.05,23.82h18.43l-9.38-23.82Z"/>
            <path class="cls-2" d="M119.41,91.43h-19.99v-10.77h53.53v10.77h-20.07v51h-13.47v-51Z"/>
            <path class="cls-2" d="M184.74,91.35c-4.71,0-8.26,1.18-10.65,3.54-2.4,2.36-3.72,5.96-3.97,10.81l35.98,.04v10.77h-36.06c.03,5.39,1.17,9.26,3.43,11.61,2.26,2.36,6.02,3.54,11.29,3.54h21.35v10.77h-21.98c-4.85,0-8.66-.41-11.44-1.24-2.78-.83-5.38-2.22-7.82-4.19-3.17-2.52-5.54-5.81-7.13-9.87-1.58-4.05-2.38-8.9-2.38-14.54,0-10.94,2.37-19.01,7.11-24.22,4.74-5.2,12.08-7.81,22.04-7.81h21.6v10.77h-21.35Z"/>
            <path class="cls-2" d="M217.5,80.58h16.45l25.33,44.44-.63-44.44h13.3v61.86h-15.11l-26.59-46.79,.59,46.79h-13.34v-61.86Z"/>
            <path class="cls-2" d="M310.03,91.14c-5.39,0-9.27,1.71-11.64,5.13-2.37,3.42-3.56,9.05-3.56,16.87,0,6.79,1.14,11.57,3.41,14.35s6.2,4.17,11.78,4.17h21.38v10.77h-22.01c-4.85,0-8.67-.41-11.45-1.24s-5.39-2.22-7.83-4.19c-3.17-2.52-5.55-5.81-7.13-9.87-1.59-4.05-2.38-8.9-2.38-14.54,0-10.94,2.37-19.01,7.11-24.22,4.74-5.2,12.09-7.81,22.05-7.81h21.63v10.56h-21.38Z"/>
            <path class="cls-2" d="M331.03,80.58h14.64l15.27,23.61,15.49-23.61h15.11l-23.9,34.55v27.31h-13v-27.31l-23.61-34.55Z"/>
          </g>
          <g>
            <path class="cls-2" d="M3.38,245.45c0-5.23,.32-9.07,.95-11.52,.63-2.45,1.71-4.44,3.24-5.99,1.56-1.58,3.65-2.76,6.26-3.52,2.61-.76,5.85-1.15,9.75-1.15h13.15v7.15h-13.88c-3.74,0-6.46,.79-8.17,2.36s-2.58,4.11-2.64,7.61l24.69,.03v7.09H12.04v16.81H3.38v-18.88Z"/>
            <path class="cls-2" d="M39.82,243.38c0-7.06,1.69-12.31,5.06-15.75,3.38-3.44,8.52-5.17,15.42-5.17s12.11,1.74,15.45,5.22c3.34,3.48,5.01,8.85,5.01,16.11s-1.67,12.64-5.01,16.14c-3.34,3.5-8.49,5.25-15.45,5.25s-12.2-1.76-15.52-5.28c-3.31-3.52-4.97-9.03-4.97-16.53Zm20.48-13.88c-3.7,0-6.47,1.15-8.3,3.46-1.83,2.31-2.75,5.8-2.75,10.47,0,5.06,.89,8.77,2.66,11.13s4.57,3.53,8.38,3.53,6.54-1.17,8.35-3.5c1.81-2.34,2.72-5.93,2.72-10.79s-.91-8.48-2.72-10.81c-1.81-2.33-4.6-3.49-8.35-3.49Z"/>
            <path class="cls-2" d="M86.68,223.27h21.25c4.95,0,8.58,1,10.89,2.99,2.31,1.99,3.46,5.11,3.46,9.35,0,3.15-.71,5.72-2.14,7.71-1.42,1.99-3.48,3.28-6.16,3.85l10.25,17.15h-9.72l-9.05-16.14h-10.17v16.14h-8.63v-41.05Zm19.21,7.32h-10.58v10.33h10.58c2.87,0,4.86-.39,5.98-1.17,1.12-.78,1.68-2.12,1.68-4.02s-.54-3.21-1.63-3.98c-1.09-.77-3.1-1.16-6.02-1.16Z"/>
            <path class="cls-2" d="M166.63,247.23v-7.26h20.41v24.35h-18.57c-3.43,0-6.06-.28-7.89-.84s-3.55-1.48-5.15-2.76c-2.1-1.68-3.68-3.86-4.73-6.55-1.05-2.69-1.58-5.91-1.58-9.65,0-7.24,1.58-12.59,4.73-16.06,3.16-3.46,8.03-5.19,14.62-5.19h18.57v7.07h-18.57c-3.39,0-5.86,1.1-7.41,3.29-1.55,2.2-2.33,5.7-2.33,10.5,0,4.49,.77,7.74,2.32,9.75,1.54,2.01,4.02,3.02,7.43,3.02h9.72v-9.66h-11.56Z"/>
            <path class="cls-2" d="M206.98,223.27h9.16l17.51,41.05h-9.61l-3.77-9.77h-17.84l-3.66,9.77h-9.16l17.37-41.05Zm4.24,8.15l-6,15.81h12.23l-6.23-15.81Z"/>
            <path class="cls-2" d="M236.53,223.27h12.68l10.47,31.5,10.47-31.5h12.62v41.05h-8.46l.7-31.97-10.53,31.97h-9.16l-10.86-32.31,.87,32.31h-8.8v-41.05Z"/>
            <path class="cls-2" d="M300.34,264.32h-9.02v-41.05h9.02v41.05Z"/>
            <path class="cls-2" d="M308.89,223.27h10.92l16.81,29.49-.42-29.49h8.82v41.05h-10.03l-17.65-31.05,.39,31.05h-8.85v-41.05Z"/>
            <path class="cls-2" d="M368.28,247.23v-7.26h20.41v24.35h-18.57c-3.43,0-6.06-.28-7.89-.84s-3.55-1.48-5.15-2.76c-2.1-1.68-3.68-3.86-4.73-6.55-1.05-2.69-1.58-5.91-1.58-9.65,0-7.24,1.58-12.59,4.73-16.06,3.16-3.46,8.03-5.19,14.62-5.19h18.57v7.07h-18.57c-3.39,0-5.86,1.1-7.41,3.29-1.55,2.2-2.33,5.7-2.33,10.5,0,4.49,.77,7.74,2.32,9.75,1.54,2.01,4.02,3.02,7.43,3.02h9.72v-9.66h-11.56Z"/>
          </g>
          <g>
            <path class="cls-2" d="M0,153.08H27.2c4.59,0,8.26,.24,10.99,.71,2.73,.47,4.91,1.22,6.53,2.25,2.7,1.73,4.75,3.99,6.14,6.79,1.39,2.8,2.09,6.02,2.09,9.67s-.57,6.63-1.7,9.18c-1.14,2.55-2.87,4.67-5.19,6.34-1.95,1.38-4.18,2.36-6.71,2.94-2.53,.58-6.4,.87-11.62,.87H12.53v20.84H0v-59.6Zm27.04,10.62H12.53v17.6h15.28c3.78,0,6.59-.72,8.43-2.17,1.84-1.45,2.76-3.66,2.76-6.63,0-3.19-.9-5.45-2.7-6.79-1.8-1.34-4.89-2.01-9.26-2.01Z"/>
            <path class="cls-2" d="M86.18,163.46c-4.54,0-7.96,1.13-10.27,3.41-2.31,2.27-3.58,5.74-3.83,10.42l34.66,.04v10.38h-34.74c.03,5.19,1.13,8.92,3.3,11.19,2.17,2.27,5.8,3.41,10.87,3.41h20.57v10.38h-21.18c-4.67,0-8.35-.4-11.02-1.2-2.67-.8-5.19-2.14-7.54-4.03-3.05-2.43-5.34-5.6-6.87-9.51-1.53-3.91-2.29-8.57-2.29-14.01,0-10.54,2.28-18.32,6.85-23.33,4.56-5.01,11.64-7.52,21.23-7.52h20.81v10.38h-20.57Z"/>
            <path class="cls-2" d="M117.73,153.08h30.85c7.19,0,12.46,1.45,15.81,4.34,3.35,2.89,5.03,7.42,5.03,13.58,0,4.57-1.03,8.3-3.1,11.19-2.07,2.89-5.05,4.76-8.94,5.59l14.88,24.89h-14.11l-13.14-23.43h-14.76v23.43h-12.53v-59.6Zm27.89,10.62h-15.37v15h15.37c4.16,0,7.05-.57,8.68-1.7s2.43-3.08,2.43-5.84-.79-4.66-2.37-5.78c-1.58-1.12-4.49-1.68-8.74-1.68Z"/>
            <path class="cls-2" d="M179.56,185.27c0-7.59,.46-13.17,1.38-16.72,.92-3.55,2.49-6.45,4.7-8.7,2.27-2.3,5.3-4,9.08-5.11,3.78-1.11,8.5-1.66,14.15-1.66h19.1v10.38h-20.15c-5.43,0-9.39,1.14-11.86,3.43-2.47,2.28-3.75,5.97-3.83,11.05l35.84,.04v10.3h-35.84v24.41h-12.57v-27.41Z"/>
            <path class="cls-2" d="M260.87,163.46c-4.54,0-7.96,1.13-10.27,3.41-2.31,2.27-3.58,5.74-3.83,10.42l34.66,.04v10.38h-34.74c.03,5.19,1.13,8.92,3.3,11.19,2.17,2.27,5.8,3.41,10.87,3.41h20.57v10.38h-21.18c-4.67,0-8.35-.4-11.02-1.2-2.67-.8-5.19-2.14-7.54-4.03-3.05-2.43-5.34-5.6-6.87-9.51-1.53-3.91-2.29-8.57-2.29-14.01,0-10.54,2.28-18.32,6.85-23.33,4.56-5.01,11.64-7.52,21.23-7.52h20.81v10.38h-20.57Z"/>
            <path class="cls-2" d="M317,163.26c-5.19,0-8.93,1.65-11.21,4.95-2.28,3.3-3.43,8.72-3.43,16.26,0,6.54,1.09,11.15,3.28,13.82,2.19,2.68,5.97,4.01,11.35,4.01h20.6v10.38h-21.2c-4.68,0-8.35-.4-11.03-1.2-2.68-.8-5.19-2.14-7.54-4.03-3.05-2.43-5.35-5.6-6.87-9.51-1.53-3.91-2.29-8.57-2.29-14.01,0-10.54,2.28-18.32,6.85-23.33,4.57-5.01,11.65-7.52,21.24-7.52h20.84v10.18h-20.6Z"/>
            <path class="cls-2" d="M359.81,163.54h-19.26v-10.38h51.57v10.38h-19.34v49.14h-12.97v-49.14Z"/>
          </g>
        </g>
        <circle class="cls-2" cx="167.52" cy="35.8" r="35.8"/>
        <g>
          <path class="cls-1" d="M157.24,22.58c-.51,.37-1.01,.77-1.49,1.2-.64,.56-.7,1.54-.13,2.17,.56,.64,1.54,.7,2.17,.13,3.09-2.73,7.07-4.24,11.21-4.24,9.34,0,16.93,7.59,16.93,16.93s-7.59,16.93-16.93,16.93c-4.13,0-8.1-1.5-11.19-4.23-.64-.56-1.61-.5-2.17,.14-.56,.64-.5,1.61,.14,2.17,3.65,3.22,8.35,5,13.23,5,11.03,0,20.01-8.98,20.01-20.01s-8.15-19.15-18.47-19.94v-6.21h1.54c.85,0,1.54-.69,1.54-1.54s-.69-1.54-1.54-1.54h-6.15c-.85,0-1.54,.69-1.54,1.54s.69,1.54,1.54,1.54h1.53v6.21c-2.63,.2-5.18,.92-7.51,2.1l-3.7-3.7c-.6-.6-1.57-.6-2.18,0-.6,.6-.6,1.57,0,2.18l3.18,3.18Z"/>
          <path class="cls-1" d="M168.99,24.94c-.85,0-1.54,.69-1.54,1.54v12.3c0,.47,.21,.91,.57,1.2l7.65,6.16c.28,.23,.63,.34,.96,.34,.45,0,.9-.2,1.2-.57,.53-.66,.43-1.63-.23-2.16l-7.08-5.7v-11.57c0-.85-.69-1.54-1.54-1.54Z"/>
          <path class="cls-1" d="M145.91,31.09h13.76c.85,0,1.54-.69,1.54-1.54s-.69-1.54-1.54-1.54h-13.76c-.85,0-1.54,.69-1.54,1.54s.69,1.54,1.54,1.54Z"/>
          <path class="cls-1" d="M143.64,40.32h13.76c.85,0,1.54-.69,1.54-1.54s-.69-1.54-1.54-1.54h-13.76c-.85,0-1.54,.69-1.54,1.54s.69,1.54,1.54,1.54Z"/>
          <path class="cls-1" d="M141.29,49.55h13.76c.85,0,1.54-.69,1.54-1.54s-.69-1.54-1.54-1.54h-13.76c-.85,0-1.54,.69-1.54,1.54s.69,1.54,1.54,1.54Z"/>
        </g>
      </g>
      <g>
        <path class="cls-2" d="M6.48,285.32H2.35v-2.19H13.41v2.19h-4.15v10.35h-2.78v-10.35Z"/>
        <path class="cls-2" d="M13.88,289.27c0-2.16,.53-3.76,1.58-4.81s2.65-1.58,4.8-1.58,3.77,.53,4.81,1.6c1.04,1.06,1.56,2.71,1.56,4.93s-.52,3.86-1.56,4.93c-1.04,1.07-2.64,1.61-4.81,1.61s-3.8-.54-4.83-1.61c-1.03-1.08-1.55-2.76-1.55-5.05Zm6.37-4.24c-1.15,0-2.01,.35-2.58,1.06-.57,.71-.85,1.77-.85,3.2,0,1.55,.28,2.68,.83,3.4,.55,.72,1.42,1.08,2.61,1.08s2.04-.36,2.6-1.07c.56-.71,.85-1.81,.85-3.3s-.28-2.59-.85-3.3c-.56-.71-1.43-1.07-2.6-1.07Z"/>
        <path class="cls-2" d="M38.04,283.12v5.09h4.93v-5.09h2.69v12.55h-2.69v-5.24h-4.93v5.24h-2.69v-12.55h2.69Z"/>
        <path class="cls-2" d="M51.96,283.12h2.85l5.45,12.55h-2.99l-1.17-2.99h-5.55l-1.14,2.99h-2.85l5.41-12.55Zm1.32,2.49l-1.87,4.83h3.81l-1.94-4.83Z"/>
        <path class="cls-2" d="M64.52,295.67l-5.57-12.55h3.05l3.84,9.35,3.94-9.35h2.86l-5.34,12.55h-2.78Z"/>
        <path class="cls-2" d="M78.59,285.31c-.97,0-1.71,.24-2.2,.72-.5,.48-.77,1.21-.82,2.19h7.43v2.19h-7.45c0,1.09,.24,1.88,.71,2.36,.47,.48,1.24,.72,2.33,.72h4.41v2.19h-4.54c-1,0-1.79-.08-2.36-.25s-1.11-.45-1.62-.85c-.65-.51-1.15-1.18-1.47-2s-.49-1.81-.49-2.95c0-2.22,.49-3.86,1.47-4.91s2.5-1.58,4.55-1.58h4.46v2.19h-4.41Z"/>
        <path class="cls-2" d="M92.24,283.12h6.61c1.54,0,2.67,.3,3.39,.91,.72,.61,1.08,1.56,1.08,2.86,0,.96-.22,1.75-.67,2.36s-1.08,1-1.92,1.18l3.19,5.24h-3.02l-2.82-4.93h-3.16v4.93h-2.69v-12.55Zm5.98,2.24h-3.29v3.16h3.29c.89,0,1.51-.12,1.86-.36s.52-.65,.52-1.23-.17-.98-.51-1.22c-.34-.24-.96-.35-1.87-.35Z"/>
        <path class="cls-2" d="M110.86,285.31c-.97,0-1.71,.24-2.2,.72-.5,.48-.77,1.21-.82,2.19h7.43v2.19h-7.45c0,1.09,.24,1.88,.71,2.36,.47,.48,1.24,.72,2.33,.72h4.41v2.19h-4.54c-1,0-1.79-.08-2.36-.25s-1.11-.45-1.62-.85c-.65-.51-1.15-1.18-1.47-2s-.49-1.81-.49-2.95c0-2.22,.49-3.86,1.47-4.91s2.5-1.58,4.55-1.58h4.46v2.19h-4.41Z"/>
        <path class="cls-2" d="M121.28,283.12h2.85l5.45,12.55h-2.99l-1.17-2.99h-5.55l-1.14,2.99h-2.85l5.41-12.55Zm1.32,2.49l-1.87,4.83h3.81l-1.94-4.83Z"/>
        <path class="cls-2" d="M135.54,295.67c-1.19,0-2.08-.1-2.66-.29-.58-.2-1.1-.54-1.56-1.02-.42-.43-.72-.92-.9-1.47-.17-.55-.26-1.31-.26-2.3v-7.46h2.69v7.38c0,.73,.03,1.25,.1,1.55,.07,.3,.18,.54,.34,.72,.25,.3,.57,.51,.94,.63,.37,.12,.88,.19,1.54,.19h3.16v2.08h-3.4Z"/>
        <path class="cls-2" d="M140.71,285.32h-4.13v-2.19h11.06v2.19h-4.15v10.35h-2.78v-10.35Z"/>
        <path class="cls-2" d="M151.77,295.67h-2.81v-12.55h2.81v12.55Z"/>
        <path class="cls-2" d="M154.43,283.12h3.95l3.26,9.63,3.26-9.63h3.93v12.55h-2.63l.22-9.78-3.28,9.78h-2.85l-3.38-9.88,.27,9.88h-2.74v-12.55Z"/>
        <path class="cls-2" d="M176.73,285.31c-.97,0-1.71,.24-2.2,.72-.5,.48-.77,1.21-.82,2.19h7.43v2.19h-7.45c0,1.09,.24,1.88,.71,2.36,.47,.48,1.24,.72,2.33,.72h4.41v2.19h-4.54c-1,0-1.79-.08-2.36-.25s-1.11-.45-1.62-.85c-.65-.51-1.15-1.18-1.47-2s-.49-1.81-.49-2.95c0-2.22,.49-3.86,1.47-4.91s2.5-1.58,4.55-1.58h4.46v2.19h-4.41Z"/>
        <path class="cls-2" d="M195.65,285.31c-.97,0-1.71,.24-2.2,.72-.5,.48-.77,1.21-.82,2.19h7.43v2.19h-7.45c0,1.09,.24,1.88,.71,2.36,.47,.48,1.24,.72,2.33,.72h4.41v2.19h-4.54c-1,0-1.79-.08-2.36-.25s-1.11-.45-1.62-.85c-.65-.51-1.15-1.18-1.47-2s-.49-1.81-.49-2.95c0-2.22,.49-3.86,1.47-4.91s2.5-1.58,4.55-1.58h4.46v2.19h-4.41Z"/>
        <path class="cls-2" d="M202.32,289.9c0-1.6,.1-2.77,.3-3.52,.2-.75,.53-1.36,1.01-1.83,.49-.48,1.14-.84,1.95-1.08,.81-.23,1.82-.35,3.03-.35h4.09v2.19h-4.32c-1.16,0-2.01,.24-2.54,.72-.53,.48-.8,1.26-.82,2.33h7.68v2.18h-7.68v5.14h-2.69v-5.77Z"/>
        <path class="cls-2" d="M214.39,289.9c0-1.6,.1-2.77,.3-3.52,.2-.75,.53-1.36,1.01-1.83,.49-.48,1.14-.84,1.95-1.08,.81-.23,1.82-.35,3.03-.35h4.09v2.19h-4.32c-1.16,0-2.01,.24-2.54,.72-.53,.48-.8,1.26-.82,2.33h7.68v2.18h-7.68v5.14h-2.69v-5.77Z"/>
        <path class="cls-2" d="M231.82,285.31c-.97,0-1.71,.24-2.2,.72-.5,.48-.77,1.21-.82,2.19h7.43v2.19h-7.45c0,1.09,.24,1.88,.71,2.36,.47,.48,1.24,.72,2.33,.72h4.41v2.19h-4.54c-1,0-1.79-.08-2.36-.25s-1.11-.45-1.62-.85c-.65-.51-1.15-1.18-1.47-2s-.49-1.81-.49-2.95c0-2.22,.49-3.86,1.47-4.91s2.5-1.58,4.55-1.58h4.46v2.19h-4.41Z"/>
        <path class="cls-2" d="M243.85,285.26c-1.11,0-1.91,.35-2.4,1.04-.49,.69-.73,1.83-.73,3.42,0,1.38,.23,2.35,.7,2.91s1.28,.84,2.43,.84h4.42v2.19h-4.55c-1,0-1.79-.08-2.36-.25-.57-.17-1.11-.45-1.62-.85-.65-.51-1.15-1.18-1.47-2-.33-.82-.49-1.81-.49-2.95,0-2.22,.49-3.86,1.47-4.91s2.5-1.58,4.55-1.58h4.47v2.14h-4.42Z"/>
        <path class="cls-2" d="M253.03,285.32h-4.13v-2.19h11.06v2.19h-4.15v10.35h-2.78v-10.35Z"/>
        <path class="cls-2" d="M2.86,307.75c0-2.16,.53-3.76,1.58-4.81s2.65-1.58,4.8-1.58,3.77,.53,4.81,1.6c1.04,1.06,1.56,2.71,1.56,4.93s-.52,3.86-1.56,4.93c-1.04,1.07-2.64,1.61-4.81,1.61s-3.8-.54-4.83-1.61c-1.03-1.08-1.55-2.76-1.55-5.05Zm6.37-4.24c-1.15,0-2.01,.35-2.58,1.06-.57,.71-.85,1.77-.85,3.2,0,1.55,.28,2.68,.83,3.4,.55,.72,1.42,1.08,2.61,1.08s2.04-.36,2.6-1.07c.56-.71,.85-1.81,.85-3.3s-.28-2.59-.85-3.3c-.56-.71-1.43-1.07-2.6-1.07Z"/>
        <path class="cls-2" d="M17.35,308.38c0-1.6,.1-2.77,.3-3.52,.2-.75,.53-1.36,1.01-1.83,.49-.48,1.14-.84,1.95-1.08,.81-.23,1.82-.35,3.03-.35h4.09v2.19h-4.32c-1.16,0-2.01,.24-2.54,.72-.53,.48-.8,1.26-.82,2.33h7.68v2.18h-7.68v5.14h-2.69v-5.77Z"/>
        <path class="cls-2" d="M39.2,303.81h-4.13v-2.19h11.06v2.19h-4.15v10.35h-2.78v-10.35Z"/>
        <path class="cls-2" d="M50.12,301.6v5.09h4.93v-5.09h2.69v12.55h-2.69v-5.24h-4.93v5.24h-2.69v-12.55h2.69Z"/>
        <path class="cls-2" d="M65.64,303.79c-.97,0-1.71,.24-2.2,.72-.5,.48-.77,1.21-.82,2.19h7.43v2.19h-7.45c0,1.09,.24,1.88,.71,2.36,.47,.48,1.24,.72,2.33,.72h4.41v2.19h-4.54c-1,0-1.79-.08-2.36-.25s-1.11-.45-1.62-.85c-.65-.51-1.15-1.18-1.47-2s-.49-1.81-.49-2.95c0-2.22,.49-3.86,1.47-4.91s2.5-1.58,4.55-1.58h4.46v2.19h-4.41Z"/>
        <path class="cls-2" d="M84.56,303.79c-.97,0-1.71,.24-2.2,.72-.5,.48-.77,1.21-.82,2.19h7.43v2.19h-7.45c0,1.09,.24,1.88,.71,2.36,.47,.48,1.24,.72,2.33,.72h4.41v2.19h-4.54c-1,0-1.79-.08-2.36-.25s-1.11-.45-1.62-.85c-.65-.51-1.15-1.18-1.47-2s-.49-1.81-.49-2.95c0-2.22,.49-3.86,1.47-4.91s2.5-1.58,4.55-1.58h4.46v2.19h-4.41Z"/>
        <path class="cls-2" d="M91.32,301.6h3.4l5.23,9.02-.13-9.02h2.75v12.55h-3.12l-5.49-9.49,.12,9.49h-2.75v-12.55Z"/>
        <path class="cls-2" d="M107.96,303.81h-4.13v-2.19h11.06v2.19h-4.15v10.35h-2.78v-10.35Z"/>
        <path class="cls-2" d="M121.45,303.79c-.97,0-1.71,.24-2.2,.72-.5,.48-.77,1.21-.82,2.19h7.43v2.19h-7.45c0,1.09,.24,1.88,.71,2.36,.47,.48,1.24,.72,2.33,.72h4.41v2.19h-4.54c-1,0-1.79-.08-2.36-.25s-1.11-.45-1.62-.85c-.65-.51-1.15-1.18-1.47-2s-.49-1.81-.49-2.95c0-2.22,.49-3.86,1.47-4.91s2.5-1.58,4.55-1.58h4.46v2.19h-4.41Z"/>
        <path class="cls-2" d="M128.22,301.6h6.61c1.54,0,2.67,.3,3.39,.91,.72,.61,1.08,1.56,1.08,2.86,0,.96-.22,1.75-.67,2.36s-1.08,1-1.92,1.18l3.19,5.24h-3.02l-2.82-4.93h-3.16v4.93h-2.69v-12.55Zm5.98,2.24h-3.29v3.16h3.29c.89,0,1.51-.12,1.86-.36s.52-.65,.52-1.23-.17-.98-.51-1.22c-.34-.24-.96-.35-1.87-.35Z"/>
        <path class="cls-2" d="M144.35,303.81h-4.13v-2.19h11.06v2.19h-4.15v10.35h-2.78v-10.35Z"/>
        <path class="cls-2" d="M154.61,301.6h2.85l5.45,12.55h-2.99l-1.17-2.99h-5.55l-1.14,2.99h-2.85l5.41-12.55Zm1.32,2.49l-1.87,4.83h3.81l-1.94-4.83Z"/>
        <path class="cls-2" d="M166.63,314.15h-2.81v-12.55h2.81v12.55Z"/>
        <path class="cls-2" d="M169.29,301.6h3.4l5.23,9.02-.13-9.02h2.75v12.55h-3.12l-5.49-9.49,.12,9.49h-2.75v-12.55Z"/>
        <path class="cls-2" d="M183.13,301.6h3.95l3.26,9.63,3.26-9.63h3.93v12.55h-2.63l.22-9.78-3.28,9.78h-2.85l-3.38-9.88,.27,9.88h-2.74v-12.55Z"/>
        <path class="cls-2" d="M205.43,303.79c-.97,0-1.71,.24-2.2,.72-.5,.48-.77,1.21-.82,2.19h7.43v2.19h-7.45c0,1.09,.24,1.88,.71,2.36,.47,.48,1.24,.72,2.33,.72h4.41v2.19h-4.54c-1,0-1.79-.08-2.36-.25s-1.11-.45-1.62-.85c-.65-.51-1.15-1.18-1.47-2s-.49-1.81-.49-2.95c0-2.22,.49-3.86,1.47-4.91s2.5-1.58,4.55-1.58h4.46v2.19h-4.41Z"/>
        <path class="cls-2" d="M212.2,301.6h3.4l5.23,9.02-.13-9.02h2.75v12.55h-3.12l-5.49-9.49,.12,9.49h-2.75v-12.55Z"/>
        <path class="cls-2" d="M228.83,303.81h-4.13v-2.19h11.06v2.19h-4.15v10.35h-2.78v-10.35Z"/>
      </g>
    </g>
  </g>
</svg>