<?xml version="1.0" encoding="UTF-8"?>
<svg id="Layer_2" data-name="Layer 2" xmlns="http://www.w3.org/2000/svg" viewBox="0 0 336.33 189.04">
  <defs>
    <style>
      .cls-1 {
        fill: #fff;
      }

      .cls-2 {
        stroke-linecap: round;
        stroke-miterlimit: 10;
      }

      .cls-2, .cls-3 {
        fill: none;
        stroke: #f06669;
        stroke-width: 2.09px;
      }

      .cls-4 {
        opacity: .52;
      }

      .cls-3 {
        stroke-linejoin: round;
      }
    </style>
  </defs>
  <g id="Layer_1-2" data-name="Layer 1">
    <g>
      <g>
        <path class="cls-1" d="M4.11,183.01c0-1.6,.1-2.77,.3-3.52,.2-.75,.53-1.36,1.01-1.83,.49-.48,1.14-.84,1.95-1.08,.81-.23,1.82-.35,3.03-.35h4.09v2.19h-4.32c-1.16,0-2.01,.24-2.54,.72-.53,.48-.8,1.26-.82,2.33h7.68v2.18H6.81v5.14h-2.69v-5.77Z"/>
        <path class="cls-1" d="M15.45,182.38c0-2.16,.53-3.76,1.58-4.81s2.65-1.58,4.8-1.58,3.77,.53,4.81,1.6c1.04,1.06,1.56,2.71,1.56,4.93s-.52,3.86-1.56,4.93c-1.04,1.07-2.64,1.61-4.81,1.61s-3.8-.54-4.83-1.61c-1.03-1.08-1.55-2.76-1.55-5.05Zm6.37-4.24c-1.15,0-2.01,.35-2.58,1.06-.57,.71-.85,1.77-.85,3.2,0,1.55,.28,2.68,.83,3.4,.55,.72,1.42,1.08,2.61,1.08s2.04-.36,2.6-1.07c.56-.71,.85-1.81,.85-3.3s-.28-2.59-.85-3.3c-.56-.71-1.43-1.07-2.6-1.07Z"/>
        <path class="cls-1" d="M30.04,176.23h6.61c1.54,0,2.67,.3,3.39,.91,.72,.61,1.08,1.56,1.08,2.86,0,.96-.22,1.75-.67,2.36s-1.08,1-1.92,1.18l3.19,5.24h-3.02l-2.82-4.93h-3.16v4.93h-2.69v-12.55Zm5.98,2.24h-3.29v3.16h3.29c.89,0,1.51-.12,1.86-.36s.52-.65,.52-1.23-.17-.98-.51-1.22c-.34-.24-.96-.35-1.87-.35Z"/>
        <path class="cls-1" d="M61.08,178.47h-6.64c-.71,0-1.24,.13-1.57,.39-.33,.26-.5,.68-.5,1.25,0,.46,.14,.8,.43,1.02,.28,.23,.71,.34,1.27,.34h3.55c1.47,0,2.52,.27,3.14,.82,.62,.55,.93,1.46,.93,2.73s-.36,2.24-1.08,2.85c-.72,.61-1.85,.91-3.39,.91h-7.15v-2.24h6.73c.76,0,1.3-.11,1.62-.33,.31-.22,.47-.58,.47-1.09s-.14-.9-.43-1.12c-.29-.22-.78-.33-1.47-.33h-3.17c-1.47,0-2.55-.29-3.23-.87-.68-.58-1.02-1.49-1.02-2.74,0-1.33,.36-2.3,1.07-2.92,.72-.61,1.85-.92,3.41-.92h7.03v2.24Z"/>
        <path class="cls-1" d="M66.35,176.23v7.51c0,1.17,.22,1.99,.65,2.46s1.17,.7,2.23,.7,1.8-.23,2.23-.69,.64-1.28,.64-2.46v-7.51h2.69v7.58c0,.89-.06,1.6-.18,2.13s-.31,.95-.57,1.25c-.51,.59-1.15,1.03-1.92,1.31-.77,.28-1.73,.42-2.88,.42s-2.11-.14-2.89-.42c-.78-.28-1.42-.71-1.93-1.31-.26-.3-.44-.71-.56-1.22-.12-.51-.17-1.23-.17-2.16v-7.58h2.68Z"/>
        <path class="cls-1" d="M77.39,176.23h5.83c.98,0,1.77,.05,2.36,.15,.58,.1,1.05,.26,1.4,.47,.58,.36,1.02,.84,1.32,1.43,.3,.59,.45,1.27,.45,2.04s-.12,1.4-.37,1.93c-.24,.54-.61,.98-1.11,1.34-.42,.29-.9,.5-1.44,.62-.54,.12-1.37,.18-2.49,.18h-3.26v4.39h-2.69v-12.55Zm5.8,2.24h-3.11v3.71h3.28c.81,0,1.41-.15,1.81-.46s.59-.77,.59-1.4c0-.67-.19-1.15-.58-1.43-.39-.28-1.05-.42-1.99-.42Z"/>
        <path class="cls-1" d="M95.86,178.42c-.97,0-1.71,.24-2.2,.72-.5,.48-.77,1.21-.82,2.19h7.43v2.19h-7.45c0,1.09,.24,1.88,.71,2.36,.47,.48,1.24,.72,2.33,.72h4.41v2.19h-4.54c-1,0-1.79-.08-2.36-.25s-1.11-.45-1.62-.85c-.65-.51-1.15-1.18-1.47-2s-.49-1.81-.49-2.95c0-2.22,.49-3.86,1.47-4.91s2.5-1.58,4.55-1.58h4.46v2.19h-4.41Z"/>
        <path class="cls-1" d="M102.63,176.23h6.61c1.54,0,2.67,.3,3.39,.91,.72,.61,1.08,1.56,1.08,2.86,0,.96-.22,1.75-.67,2.36s-1.08,1-1.92,1.18l3.19,5.24h-3.02l-2.82-4.93h-3.16v4.93h-2.69v-12.55Zm5.98,2.24h-3.29v3.16h3.29c.89,0,1.51-.12,1.86-.36s.52-.65,.52-1.23-.17-.98-.51-1.22c-.34-.24-.96-.35-1.87-.35Z"/>
        <path class="cls-1" d="M118.8,188.78h-2.81v-12.55h2.81v12.55Z"/>
        <path class="cls-1" d="M120.63,182.38c0-2.16,.53-3.76,1.58-4.81s2.65-1.58,4.8-1.58,3.77,.53,4.81,1.6c1.04,1.06,1.56,2.71,1.56,4.93s-.52,3.86-1.56,4.93c-1.04,1.07-2.64,1.61-4.81,1.61s-3.8-.54-4.83-1.61c-1.03-1.08-1.55-2.76-1.55-5.05Zm6.37-4.24c-1.15,0-2.01,.35-2.58,1.06-.57,.71-.85,1.77-.85,3.2,0,1.55,.28,2.68,.83,3.4,.55,.72,1.42,1.08,2.61,1.08s2.04-.36,2.6-1.07c.56-.71,.85-1.81,.85-3.3s-.28-2.59-.85-3.3c-.56-.71-1.43-1.07-2.6-1.07Z"/>
        <path class="cls-1" d="M135.22,176.23h6.61c1.54,0,2.67,.3,3.39,.91,.72,.61,1.08,1.56,1.08,2.86,0,.96-.22,1.75-.67,2.36s-1.08,1-1.92,1.18l3.19,5.24h-3.02l-2.82-4.93h-3.16v4.93h-2.69v-12.55Zm5.98,2.24h-3.29v3.16h3.29c.89,0,1.51-.12,1.86-.36s.52-.65,.52-1.23-.17-.98-.51-1.22c-.34-.24-.96-.35-1.87-.35Z"/>
        <path class="cls-1" d="M159.12,176.23h2.85l5.45,12.55h-2.99l-1.17-2.99h-5.55l-1.14,2.99h-2.85l5.41-12.55Zm1.32,2.49l-1.87,4.83h3.81l-1.94-4.83Z"/>
        <path class="cls-1" d="M170.63,176.23v7.51c0,1.17,.22,1.99,.65,2.46s1.17,.7,2.23,.7,1.8-.23,2.23-.69,.64-1.28,.64-2.46v-7.51h2.69v7.58c0,.89-.06,1.6-.18,2.13s-.31,.95-.57,1.25c-.51,.59-1.15,1.03-1.92,1.31-.77,.28-1.73,.42-2.88,.42s-2.11-.14-2.89-.42c-.78-.28-1.42-.71-1.93-1.31-.26-.3-.44-.71-.56-1.22-.12-.51-.17-1.23-.17-2.16v-7.58h2.68Z"/>
        <path class="cls-1" d="M181.67,176.23h5.85c2.06,0,3.57,.53,4.55,1.58,.98,1.06,1.47,2.69,1.47,4.91,0,1.14-.16,2.13-.49,2.95-.33,.82-.82,1.49-1.47,2-.5,.4-1.04,.68-1.62,.85s-1.36,.25-2.36,.25h-5.93v-12.55Zm5.8,2.19h-3.11v8.18h3.11c1.19,0,2.01-.29,2.46-.88,.45-.59,.68-1.66,.68-3.21s-.23-2.62-.68-3.21-1.27-.88-2.46-.88Z"/>
        <path class="cls-1" d="M198.22,188.78h-2.81v-12.55h2.81v12.55Z"/>
        <path class="cls-1" d="M200.05,182.38c0-2.16,.53-3.76,1.58-4.81s2.65-1.58,4.8-1.58,3.77,.53,4.81,1.6c1.04,1.06,1.56,2.71,1.56,4.93s-.52,3.86-1.56,4.93c-1.04,1.07-2.64,1.61-4.81,1.61s-3.8-.54-4.83-1.61c-1.03-1.08-1.55-2.76-1.55-5.05Zm6.37-4.24c-1.15,0-2.01,.35-2.58,1.06-.57,.71-.85,1.77-.85,3.2,0,1.55,.28,2.68,.83,3.4,.55,.72,1.42,1.08,2.61,1.08s2.04-.36,2.6-1.07c.56-.71,.85-1.81,.85-3.3s-.28-2.59-.85-3.3c-.56-.71-1.43-1.07-2.6-1.07Z"/>
        <path class="cls-1" d="M226.79,178.42c-.97,0-1.71,.24-2.2,.72-.5,.48-.77,1.21-.82,2.19h7.43v2.19h-7.45c0,1.09,.24,1.88,.71,2.36,.47,.48,1.24,.72,2.33,.72h4.41v2.19h-4.54c-1,0-1.79-.08-2.36-.25s-1.11-.45-1.62-.85c-.65-.51-1.15-1.18-1.47-2s-.49-1.81-.49-2.95c0-2.22,.49-3.86,1.47-4.91s2.5-1.58,4.55-1.58h4.46v2.19h-4.41Z"/>
        <path class="cls-1" d="M236.43,182.51l-4.32-6.28h3.15l2.63,3.96,2.62-3.96h3.1l-4.11,6.1,4.41,6.45h-3.22l-2.69-4.37-2.85,4.37h-3.19l4.47-6.27Z"/>
        <path class="cls-1" d="M245.06,176.23h5.83c.98,0,1.77,.05,2.36,.15,.58,.1,1.05,.26,1.4,.47,.58,.36,1.02,.84,1.32,1.43,.3,.59,.45,1.27,.45,2.04s-.12,1.4-.37,1.93c-.24,.54-.61,.98-1.11,1.34-.42,.29-.9,.5-1.44,.62-.54,.12-1.37,.18-2.49,.18h-3.26v4.39h-2.69v-12.55Zm5.8,2.24h-3.11v3.71h3.28c.81,0,1.41-.15,1.81-.46s.59-.77,.59-1.4c0-.67-.19-1.15-.58-1.43-.39-.28-1.05-.42-1.99-.42Z"/>
        <path class="cls-1" d="M263.53,178.42c-.97,0-1.71,.24-2.2,.72-.5,.48-.77,1.21-.82,2.19h7.43v2.19h-7.45c0,1.09,.24,1.88,.71,2.36,.47,.48,1.24,.72,2.33,.72h4.41v2.19h-4.54c-1,0-1.79-.08-2.36-.25s-1.11-.45-1.62-.85c-.65-.51-1.15-1.18-1.47-2s-.49-1.81-.49-2.95c0-2.22,.49-3.86,1.47-4.91s2.5-1.58,4.55-1.58h4.46v2.19h-4.41Z"/>
        <path class="cls-1" d="M270.3,176.23h6.61c1.54,0,2.67,.3,3.39,.91,.72,.61,1.08,1.56,1.08,2.86,0,.96-.22,1.75-.67,2.36s-1.08,1-1.92,1.18l3.19,5.24h-3.02l-2.82-4.93h-3.16v4.93h-2.69v-12.55Zm5.98,2.24h-3.29v3.16h3.29c.89,0,1.51-.12,1.86-.36s.52-.65,.52-1.23-.17-.98-.51-1.22c-.34-.24-.96-.35-1.87-.35Z"/>
        <path class="cls-1" d="M286.47,188.78h-2.81v-12.55h2.81v12.55Z"/>
        <path class="cls-1" d="M294.39,178.42c-.97,0-1.71,.24-2.2,.72-.5,.48-.77,1.21-.82,2.19h7.43v2.19h-7.45c0,1.09,.24,1.88,.71,2.36,.47,.48,1.24,.72,2.33,.72h4.41v2.19h-4.54c-1,0-1.79-.08-2.36-.25s-1.11-.45-1.62-.85c-.65-.51-1.15-1.18-1.47-2s-.49-1.81-.49-2.95c0-2.22,.49-3.86,1.47-4.91s2.5-1.58,4.55-1.58h4.46v2.19h-4.41Z"/>
        <path class="cls-1" d="M301.16,176.23h3.4l5.23,9.02-.13-9.02h2.75v12.55h-3.12l-5.49-9.49,.12,9.49h-2.75v-12.55Z"/>
        <path class="cls-1" d="M320.27,178.37c-1.11,0-1.91,.35-2.4,1.04-.49,.69-.73,1.83-.73,3.42,0,1.38,.23,2.35,.7,2.91s1.28,.84,2.43,.84h4.42v2.19h-4.55c-1,0-1.79-.08-2.36-.25-.57-.17-1.11-.45-1.62-.85-.65-.51-1.15-1.18-1.47-2-.33-.82-.49-1.81-.49-2.95,0-2.22,.49-3.86,1.47-4.91s2.5-1.58,4.55-1.58h4.47v2.14h-4.42Z"/>
        <path class="cls-1" d="M331.92,178.42c-.97,0-1.71,.24-2.2,.72-.5,.48-.77,1.21-.82,2.19h7.43v2.19h-7.45c0,1.09,.24,1.88,.71,2.36,.47,.48,1.24,.72,2.33,.72h4.41v2.19h-4.54c-1,0-1.79-.08-2.36-.25s-1.11-.45-1.62-.85c-.65-.51-1.15-1.18-1.47-2s-.49-1.81-.49-2.95c0-2.22,.49-3.86,1.47-4.91s2.5-1.58,4.55-1.58h4.46v2.19h-4.41Z"/>
      </g>
      <g class="cls-4">
        <path class="cls-1" d="M44.05,6.66H24.62c-2.08,0-3.62,.39-4.59,1.17-.98,.78-1.46,2.02-1.46,3.71,0,1.36,.42,2.37,1.25,3.05,.83,.68,2.07,1.02,3.71,1.02h10.4c4.31,0,7.37,.81,9.19,2.44,1.82,1.63,2.73,4.34,2.73,8.14s-1.05,6.67-3.15,8.48c-2.1,1.81-5.41,2.71-9.92,2.71H11.85v-6.66H31.54c2.24,0,3.81-.33,4.73-.98,.92-.65,1.37-1.73,1.37-3.24s-.42-2.67-1.26-3.33c-.84-.66-2.28-.99-4.31-.99h-9.28c-4.31,0-7.46-.86-9.45-2.58-1.99-1.72-2.99-4.44-2.99-8.15,0-3.97,1.05-6.87,3.14-8.7S18.91,0,23.47,0h20.57V6.66Z"/>
        <path class="cls-1" d="M52.79,0h17.06c2.88,0,5.18,.15,6.89,.44,1.71,.3,3.08,.77,4.09,1.41,1.69,1.09,2.98,2.5,3.85,4.26,.87,1.75,1.31,3.78,1.31,6.06s-.36,4.16-1.07,5.76c-.71,1.6-1.8,2.93-3.25,3.98-1.22,.87-2.62,1.48-4.21,1.84-1.59,.37-4.01,.55-7.29,.55h-9.54v13.07h-7.86V0Zm16.96,6.66h-9.1v11.04h9.59c2.37,0,4.14-.45,5.29-1.36,1.15-.91,1.73-2.29,1.73-4.16,0-2-.56-3.42-1.69-4.26-1.13-.84-3.06-1.26-5.81-1.26Z"/>
        <path class="cls-1" d="M107.89,6.51c-2.84,0-4.99,.71-6.44,2.14s-2.25,3.6-2.4,6.54l21.74,.03v6.51h-21.79c.02,3.25,.71,5.59,2.07,7.02,1.36,1.42,3.64,2.14,6.82,2.14h12.9v6.51h-13.28c-2.93,0-5.24-.25-6.91-.75-1.68-.5-3.25-1.34-4.73-2.53-1.92-1.53-3.35-3.51-4.31-5.96-.96-2.45-1.44-5.38-1.44-8.79,0-6.61,1.43-11.49,4.29-14.63s7.3-4.72,13.32-4.72h13.06V6.51h-12.9Z"/>
        <path class="cls-1" d="M144.13,6.38c-3.25,0-5.6,1.03-7.03,3.1-1.43,2.07-2.15,5.47-2.15,10.2,0,4.1,.69,6.99,2.06,8.67,1.37,1.68,3.75,2.52,7.12,2.52h12.92v6.51h-13.3c-2.93,0-5.24-.25-6.92-.75s-3.25-1.34-4.73-2.53c-1.92-1.53-3.35-3.51-4.31-5.96-.96-2.45-1.44-5.38-1.44-8.79,0-6.61,1.43-11.49,4.3-14.63,2.86-3.14,7.31-4.72,13.32-4.72h13.07V6.38h-12.92Z"/>
        <path class="cls-1" d="M172.13,37.38h-8.21V0h8.21V37.38Z"/>
        <path class="cls-1" d="M191.66,0h8.34l15.94,37.38h-8.75l-3.43-8.9h-16.25l-3.33,8.9h-8.34L191.66,0Zm3.87,7.42l-5.47,14.39h11.14l-5.67-14.39Z"/>
        <path class="cls-1" d="M234.43,37.38c-3.49,0-6.09-.29-7.78-.88-1.7-.58-3.21-1.6-4.55-3.04-1.24-1.29-2.11-2.75-2.62-4.37-.51-1.63-.76-3.92-.76-6.87V0h7.86V21.97c0,2.19,.1,3.73,.29,4.62,.19,.89,.53,1.61,1,2.15,.75,.88,1.66,1.51,2.75,1.88,1.08,.37,2.58,.56,4.5,.56h9.26v6.21h-9.94Z"/>
      </g>
      <g class="cls-4">
        <g>
          <path class="cls-1" d="M1.34,122.96H21.65c7.14,0,12.42,1.87,15.82,5.6,3.4,3.73,5.1,9.52,5.1,17.37,0,4.04-.57,7.52-1.71,10.43-1.14,2.91-2.84,5.27-5.12,7.08-1.75,1.41-3.62,2.41-5.61,3-1.99,.59-4.73,.89-8.21,.89H1.34v-44.37Zm20.13,7.73H10.66v28.92h10.81c4.12,0,6.97-1.04,8.54-3.11,1.57-2.07,2.35-5.86,2.35-11.35s-.79-9.25-2.35-11.33c-1.57-2.08-4.42-3.12-8.54-3.12Z"/>
          <path class="cls-1" d="M50.23,122.96h22.97c5.35,0,9.28,1.08,11.77,3.23,2.49,2.15,3.74,5.52,3.74,10.11,0,3.4-.77,6.18-2.31,8.33s-3.76,3.54-6.66,4.17l11.08,18.53h-10.5l-9.78-17.45h-10.99v17.45h-9.33v-44.37Zm20.77,7.91h-11.44v11.17h11.44c3.1,0,5.25-.42,6.46-1.27,1.21-.84,1.81-2.29,1.81-4.35s-.59-3.47-1.77-4.3c-1.18-.83-3.35-1.25-6.5-1.25Z"/>
          <path class="cls-1" d="M107.64,167.33h-9.75v-44.37h9.75v44.37Z"/>
          <path class="cls-1" d="M130.88,167.33l-19.35-44.37h10.59l13.34,33.05,13.67-33.05h9.93l-18.53,44.37h-9.66Z"/>
          <path class="cls-1" d="M180.97,130.69c-3.38,0-5.92,.85-7.64,2.54-1.72,1.69-2.67,4.28-2.85,7.76l25.81,.03v7.73h-25.87c.02,3.86,.84,6.64,2.46,8.33,1.62,1.69,4.32,2.54,8.09,2.54h15.31v7.73h-15.77c-3.48,0-6.21-.3-8.21-.89-1.99-.59-3.86-1.59-5.61-3-2.27-1.81-3.98-4.17-5.11-7.08-1.14-2.91-1.7-6.38-1.7-10.43,0-7.85,1.7-13.64,5.1-17.37,3.4-3.73,8.67-5.6,15.81-5.6h15.5v7.73h-15.31Z"/>
          <path class="cls-1" d="M205.7,122.96h22.97c5.35,0,9.28,1.08,11.77,3.23,2.49,2.15,3.74,5.52,3.74,10.11,0,3.4-.77,6.18-2.31,8.33s-3.76,3.54-6.66,4.17l11.08,18.53h-10.5l-9.78-17.45h-10.99v17.45h-9.33v-44.37Zm20.77,7.91h-11.44v11.17h11.44c3.1,0,5.25-.42,6.46-1.27,1.21-.84,1.81-2.29,1.81-4.35s-.59-3.47-1.77-4.3c-1.18-.83-3.35-1.25-6.5-1.25Z"/>
        </g>
      </g>
      <g class="cls-4">
        <path class="cls-1" d="M28.9,46.36h15.24l29.13,68.3h-15.98l-6.27-16.26H21.33l-6.09,16.26H0L28.9,46.36Zm7.06,13.57l-9.99,26.3h20.35l-10.36-26.3Z"/>
        <path class="cls-1" d="M92.37,46.36v40.89c0,6.38,1.15,10.83,3.46,13.36,2.31,2.52,6.28,3.79,11.92,3.79s9.6-1.25,11.89-3.76c2.29-2.51,3.44-6.97,3.44-13.38V46.36h14.36v41.26c0,4.83-.32,8.69-.95,11.57-.64,2.88-1.65,5.16-3.04,6.83-2.73,3.22-6.16,5.59-10.29,7.11-4.14,1.52-9.27,2.28-15.4,2.28s-11.28-.76-15.45-2.28c-4.17-1.52-7.61-3.89-10.34-7.11-1.36-1.64-2.35-3.86-2.97-6.64-.62-2.79-.93-6.71-.93-11.75V46.36h14.31Z"/>
        <path class="cls-1" d="M153.28,46.36h31.27c11,0,19.11,2.87,24.35,8.62,5.23,5.75,7.85,14.66,7.85,26.74,0,6.23-.88,11.58-2.62,16.05-1.75,4.48-4.38,8.11-7.88,10.9-2.69,2.17-5.58,3.71-8.64,4.62-3.07,.91-7.28,1.37-12.64,1.37h-31.69V46.36Zm30.99,11.89h-16.63v44.51h16.63c6.35,0,10.73-1.59,13.15-4.79s3.62-9.01,3.62-17.47-1.21-14.24-3.62-17.45-6.8-4.81-13.15-4.81Z"/>
        <path class="cls-1" d="M243.65,114.66h-15.01V46.36h15.01V114.66Z"/>
        <path class="cls-1" d="M255.35,79.81c0-11.74,2.81-20.47,8.43-26.21,5.62-5.73,14.17-8.6,25.65-8.6s20.14,2.9,25.7,8.69c5.56,5.79,8.33,14.73,8.33,26.81s-2.78,21.03-8.33,26.86c-5.56,5.82-14.12,8.74-25.7,8.74s-20.31-2.93-25.82-8.78c-5.51-5.85-8.26-15.02-8.26-27.51Zm34.08-23.09c-6.16,0-10.76,1.92-13.81,5.76s-4.57,9.65-4.57,17.42c0,8.43,1.48,14.6,4.43,18.52,2.95,3.92,7.6,5.88,13.94,5.88s10.88-1.94,13.9-5.83c3.02-3.89,4.52-9.87,4.52-17.96s-1.51-14.11-4.52-17.98c-3.02-3.87-7.65-5.81-13.9-5.81Z"/>
      </g>
      <circle class="cls-1" cx="290.49" cy="80.54" r="38.07"/>
      <g>
        <line class="cls-3" x1="305.42" y1="65.43" x2="305.42" y2="73.67"/>
        <line class="cls-3" x1="309.54" y1="69.55" x2="301.3" y2="69.55"/>
        <line class="cls-3" x1="309.54" y1="98.41" x2="309.54" y2="106.65"/>
        <line class="cls-3" x1="313.66" y1="102.53" x2="305.42" y2="102.53"/>
        <line class="cls-3" x1="266.95" y1="58.56" x2="266.95" y2="66.8"/>
        <line class="cls-3" x1="271.07" y1="62.68" x2="262.82" y2="62.68"/>
        <line class="cls-3" x1="272.44" y1="98.41" x2="272.44" y2="106.65"/>
        <line class="cls-3" x1="276.56" y1="102.53" x2="268.32" y2="102.53"/>
        <path class="cls-2" d="M285.27,108.25c.61,3.87,5.44,4.67,8.02,3.23,3.63-2.03,6.48-7.09,1.9-20.83-5.03-15.1-8.17-23-9.15-28.85-1.31-7.74,.81-11.56,4.17-12.65,2.9-.94,6.65,1.41,7.1,5.22,.47,3.99-1.28,8.89-7.54,15.26-5.6,5.7-13.33,9.62-13.2,18.05,.1,7.14,7.16,10.5,15.26,10.37,8.1-.12,13.47-5.15,11.97-10.36-1.49-5.22-8.69-7.51-13.75-6.02-4.56,1.34-6.56,5.93-2.73,9.66"/>
      </g>
    </g>
  </g>
</svg>