<?xml version="1.0" encoding="UTF-8"?>
<svg id="Layer_2" data-name="Layer 2" xmlns="http://www.w3.org/2000/svg" viewBox="0 0 422.71 308.07">
  <defs>
    <style>
      .cls-1 {
        fill: #f06669;
      }

      .cls-2 {
        fill: #fff;
      }

      .cls-3 {
        opacity: .6;
      }
    </style>
  </defs>
  <g id="Layer_1-2" data-name="Layer 1">
    <g>
      <g>
        <path class="cls-2" d="M20.7,279.01h-6.64c-.71,0-1.24,.13-1.57,.39-.33,.26-.5,.68-.5,1.25,0,.46,.14,.8,.43,1.02,.28,.23,.71,.34,1.27,.34h3.55c1.47,0,2.52,.27,3.14,.82,.62,.55,.93,1.46,.93,2.73s-.36,2.24-1.08,2.85c-.72,.61-1.85,.91-3.39,.91h-7.15v-2.24h6.73c.76,0,1.3-.11,1.62-.33,.31-.22,.47-.58,.47-1.09s-.14-.9-.43-1.12c-.29-.22-.78-.33-1.47-.33h-3.17c-1.47,0-2.55-.29-3.23-.87-.68-.58-1.02-1.49-1.02-2.74,0-1.33,.36-2.3,1.07-2.92,.72-.61,1.85-.92,3.41-.92h7.03v2.24Z"/>
        <path class="cls-2" d="M22.51,282.92c0-2.16,.53-3.76,1.58-4.81s2.65-1.58,4.8-1.58,3.77,.53,4.81,1.6c1.04,1.06,1.56,2.71,1.56,4.93s-.52,3.86-1.56,4.93c-1.04,1.07-2.64,1.61-4.81,1.61s-3.8-.54-4.83-1.61c-1.03-1.08-1.55-2.76-1.55-5.05Zm6.37-4.24c-1.15,0-2.01,.35-2.58,1.06-.57,.71-.85,1.77-.85,3.2,0,1.55,.28,2.68,.83,3.4,.55,.72,1.42,1.08,2.61,1.08s2.04-.36,2.6-1.07c.56-.71,.85-1.81,.85-3.3s-.28-2.59-.85-3.3c-.56-.71-1.43-1.07-2.6-1.07Z"/>
        <path class="cls-2" d="M46.81,289.32h-2.81v-12.55h2.81v12.55Z"/>
        <path class="cls-2" d="M52.26,278.97h-4.13v-2.19h11.06v2.19h-4.15v10.35h-2.78v-10.35Z"/>
        <path class="cls-2" d="M65.94,276.77h2.88l2.96,9.65,2.49-9.65h3.17l2.86,9.65,2.76-9.65h2.75l-3.95,12.55h-3.29l-2.73-9.37-2.38,9.37h-3.28l-4.25-12.55Z"/>
        <path class="cls-2" d="M89.89,289.32h-2.81v-12.55h2.81v12.55Z"/>
        <path class="cls-2" d="M97.62,289.32c-1.19,0-2.08-.1-2.66-.29-.58-.2-1.1-.54-1.56-1.02-.42-.43-.72-.92-.9-1.47-.17-.55-.26-1.31-.26-2.3v-7.46h2.69v7.38c0,.73,.03,1.25,.1,1.55,.07,.3,.18,.54,.34,.72,.25,.3,.57,.51,.94,.63,.37,.12,.88,.19,1.54,.19h3.16v2.08h-3.4Z"/>
        <path class="cls-2" d="M107.52,289.32c-1.19,0-2.08-.1-2.66-.29-.58-.2-1.1-.54-1.56-1.02-.42-.43-.72-.92-.9-1.47-.17-.55-.26-1.31-.26-2.3v-7.46h2.69v7.38c0,.73,.03,1.25,.1,1.55,.07,.3,.18,.54,.34,.72,.25,.3,.57,.51,.94,.63,.37,.12,.88,.19,1.54,.19h3.16v2.08h-3.4Z"/>
        <path class="cls-2" d="M126.27,289.32h-7.03v-12.55h6.56c.83,0,1.5,.05,2.02,.14s.94,.24,1.26,.44c.47,.29,.83,.67,1.07,1.13,.25,.46,.37,.98,.37,1.57,0,.7-.15,1.29-.46,1.78s-.79,.9-1.44,1.23c.66,.27,1.15,.64,1.46,1.11s.47,1.05,.47,1.75c0,1.17-.35,2.04-1.04,2.59-.7,.55-1.78,.83-3.24,.83Zm-4.35-10.3v2.9h3.93c.61,0,1.05-.12,1.34-.35,.28-.24,.43-.6,.43-1.1s-.14-.87-.43-1.1c-.28-.23-.73-.35-1.34-.35h-3.93Zm3.97,8.08c.61,0,1.06-.12,1.34-.35s.42-.61,.42-1.11-.14-.89-.42-1.13c-.28-.24-.73-.36-1.33-.36h-3.97v2.95h3.97Z"/>
        <path class="cls-2" d="M137.94,278.95c-.97,0-1.71,.24-2.2,.72-.5,.48-.77,1.21-.82,2.19h7.43v2.19h-7.45c0,1.09,.24,1.88,.71,2.36,.47,.48,1.24,.72,2.33,.72h4.41v2.19h-4.54c-1,0-1.79-.08-2.36-.25s-1.11-.45-1.62-.85c-.65-.51-1.15-1.18-1.47-2s-.49-1.81-.49-2.95c0-2.22,.49-3.86,1.47-4.91s2.5-1.58,4.55-1.58h4.46v2.19h-4.41Z"/>
        <path class="cls-2" d="M148.37,276.77h2.85l5.45,12.55h-2.99l-1.17-2.99h-5.55l-1.14,2.99h-2.85l5.41-12.55Zm1.32,2.49l-1.87,4.83h3.81l-1.94-4.83Z"/>
        <path class="cls-2" d="M157.56,276.77h6.61c1.54,0,2.67,.3,3.39,.91,.72,.61,1.08,1.56,1.08,2.86,0,.96-.22,1.75-.67,2.36s-1.08,1-1.92,1.18l3.19,5.24h-3.02l-2.82-4.93h-3.16v4.93h-2.69v-12.55Zm5.98,2.24h-3.29v3.16h3.29c.89,0,1.51-.12,1.86-.36s.52-.65,.52-1.23-.17-.98-.51-1.22c-.34-.24-.96-.35-1.87-.35Z"/>
        <path class="cls-2" d="M181.46,276.77h2.85l5.45,12.55h-2.99l-1.17-2.99h-5.55l-1.14,2.99h-2.85l5.41-12.55Zm1.32,2.49l-1.87,4.83h3.81l-1.94-4.83Z"/>
        <path class="cls-2" d="M190.66,276.77h3.4l5.23,9.02-.13-9.02h2.75v12.55h-3.12l-5.49-9.49,.12,9.49h-2.75v-12.55Z"/>
        <path class="cls-2" d="M202.45,276.77h3.02l3.15,4.79,3.2-4.79h3.12l-4.94,7.01v5.54h-2.69v-5.54l-4.88-7.01Z"/>
        <path class="cls-2" d="M218.33,278.97h-4.13v-2.19h11.06v2.19h-4.15v10.35h-2.78v-10.35Z"/>
        <path class="cls-2" d="M229.25,276.77v5.09h4.93v-5.09h2.69v12.55h-2.69v-5.24h-4.93v5.24h-2.69v-12.55h2.69Z"/>
        <path class="cls-2" d="M242.33,289.32h-2.81v-12.55h2.81v12.55Z"/>
        <path class="cls-2" d="M244.99,276.77h3.4l5.23,9.02-.13-9.02h2.75v12.55h-3.12l-5.49-9.49,.12,9.49h-2.75v-12.55Z"/>
        <path class="cls-2" d="M263.47,284.09v-2.22h6.35v7.44h-5.78c-1.07,0-1.88-.08-2.46-.26-.57-.17-1.11-.45-1.6-.85-.65-.51-1.15-1.18-1.47-2-.33-.82-.49-1.81-.49-2.95,0-2.21,.49-3.85,1.47-4.91,.98-1.06,2.5-1.59,4.55-1.59h5.78v2.16h-5.78c-1.05,0-1.82,.34-2.31,1.01-.48,.67-.73,1.74-.73,3.21,0,1.37,.24,2.37,.72,2.98,.48,.62,1.25,.92,2.31,.92h3.02v-2.95h-3.6Z"/>
        <path class="cls-2" d="M278.84,283.55c0-1.6,.1-2.77,.3-3.52,.2-.75,.53-1.36,1.01-1.83,.49-.48,1.14-.84,1.95-1.08,.81-.23,1.82-.35,3.03-.35h4.09v2.19h-4.32c-1.16,0-2.01,.24-2.54,.72-.53,.48-.8,1.26-.82,2.33h7.68v2.18h-7.68v5.14h-2.69v-5.77Z"/>
        <path class="cls-2" d="M291.01,276.77h6.61c1.54,0,2.67,.3,3.39,.91,.72,.61,1.08,1.56,1.08,2.86,0,.96-.22,1.75-.67,2.36s-1.08,1-1.92,1.18l3.19,5.24h-3.02l-2.82-4.93h-3.16v4.93h-2.69v-12.55Zm5.98,2.24h-3.29v3.16h3.29c.89,0,1.51-.12,1.86-.36s.52-.65,.52-1.23-.17-.98-.51-1.22c-.34-.24-.96-.35-1.87-.35Z"/>
        <path class="cls-2" d="M303.53,282.92c0-2.16,.53-3.76,1.58-4.81s2.65-1.58,4.8-1.58,3.77,.53,4.81,1.6c1.04,1.06,1.56,2.71,1.56,4.93s-.52,3.86-1.56,4.93c-1.04,1.07-2.64,1.61-4.81,1.61s-3.8-.54-4.83-1.61c-1.03-1.08-1.55-2.76-1.55-5.05Zm6.37-4.24c-1.15,0-2.01,.35-2.58,1.06-.57,.71-.85,1.77-.85,3.2,0,1.55,.28,2.68,.83,3.4,.55,.72,1.42,1.08,2.61,1.08s2.04-.36,2.6-1.07c.56-.71,.85-1.81,.85-3.3s-.28-2.59-.85-3.3c-.56-.71-1.43-1.07-2.6-1.07Z"/>
        <path class="cls-2" d="M318.11,276.77h3.95l3.26,9.63,3.26-9.63h3.93v12.55h-2.63l.22-9.78-3.28,9.78h-2.85l-3.38-9.88,.27,9.88h-2.74v-12.55Z"/>
        <path class="cls-2" d="M20.7,297.49h-6.64c-.71,0-1.24,.13-1.57,.39-.33,.26-.5,.68-.5,1.25,0,.46,.14,.8,.43,1.02,.28,.23,.71,.34,1.27,.34h3.55c1.47,0,2.52,.27,3.14,.82,.62,.55,.93,1.46,.93,2.73s-.36,2.24-1.08,2.85c-.72,.61-1.85,.91-3.39,.91h-7.15v-2.24h6.73c.76,0,1.3-.11,1.62-.33,.31-.22,.47-.58,.47-1.09s-.14-.9-.43-1.12c-.29-.22-.78-.33-1.47-.33h-3.17c-1.47,0-2.55-.29-3.23-.87-.68-.58-1.02-1.49-1.02-2.74,0-1.33,.36-2.3,1.07-2.92,.72-.61,1.85-.92,3.41-.92h7.03v2.24Z"/>
        <path class="cls-2" d="M23.34,295.25h5.83c.98,0,1.77,.05,2.36,.15,.58,.1,1.05,.26,1.4,.47,.58,.36,1.02,.84,1.32,1.43,.3,.59,.45,1.27,.45,2.04s-.12,1.4-.37,1.93c-.24,.54-.61,.98-1.11,1.34-.42,.29-.9,.5-1.44,.62-.54,.12-1.37,.18-2.49,.18h-3.26v4.39h-2.69v-12.55Zm5.8,2.24h-3.11v3.71h3.28c.81,0,1.41-.15,1.81-.46s.59-.77,.59-1.4c0-.67-.19-1.15-.58-1.43-.39-.28-1.05-.42-1.99-.42Z"/>
        <path class="cls-2" d="M36.55,295.25h6.61c1.54,0,2.67,.3,3.39,.91,.72,.61,1.08,1.56,1.08,2.86,0,.96-.22,1.75-.67,2.36s-1.08,1-1.92,1.18l3.19,5.24h-3.02l-2.82-4.93h-3.16v4.93h-2.69v-12.55Zm5.98,2.24h-3.29v3.16h3.29c.89,0,1.51-.12,1.86-.36s.52-.65,.52-1.23-.17-.98-.51-1.22c-.34-.24-.96-.35-1.87-.35Z"/>
        <path class="cls-2" d="M52.72,307.8h-2.81v-12.55h2.81v12.55Z"/>
        <path class="cls-2" d="M55.38,295.25h3.4l5.23,9.02-.13-9.02h2.75v12.55h-3.12l-5.49-9.49,.12,9.49h-2.75v-12.55Z"/>
        <path class="cls-2" d="M69.23,295.25h2.69v6.03l5.03-6.03h3.22l-5.13,6.13,5.18,6.42h-3.43l-4.88-6.24v6.24h-2.69v-12.55Z"/>
        <path class="cls-2" d="M86.23,307.8c-1.19,0-2.08-.1-2.66-.29-.58-.2-1.1-.54-1.56-1.02-.42-.43-.72-.92-.9-1.47-.17-.55-.26-1.31-.26-2.3v-7.46h2.69v7.38c0,.73,.03,1.25,.1,1.55,.07,.3,.18,.54,.34,.72,.25,.3,.57,.51,.94,.63,.37,.12,.88,.19,1.54,.19h3.16v2.08h-3.4Z"/>
        <path class="cls-2" d="M96.33,297.44c-.97,0-1.71,.24-2.2,.72-.5,.48-.77,1.21-.82,2.19h7.43v2.19h-7.45c0,1.09,.24,1.88,.71,2.36,.47,.48,1.24,.72,2.33,.72h4.41v2.19h-4.54c-1,0-1.79-.08-2.36-.25s-1.11-.45-1.62-.85c-.65-.51-1.15-1.18-1.47-2s-.49-1.81-.49-2.95c0-2.22,.49-3.86,1.47-4.91s2.5-1.58,4.55-1.58h4.46v2.19h-4.41Z"/>
        <path class="cls-2" d="M103.09,295.25h5.85c2.06,0,3.57,.53,4.55,1.58,.98,1.06,1.47,2.69,1.47,4.91,0,1.14-.16,2.13-.49,2.95-.33,.82-.82,1.49-1.47,2-.5,.4-1.04,.68-1.62,.85s-1.36,.25-2.36,.25h-5.93v-12.55Zm5.8,2.19h-3.11v8.18h3.11c1.19,0,2.01-.29,2.46-.88,.45-.59,.68-1.66,.68-3.21s-.23-2.62-.68-3.21-1.27-.88-2.46-.88Z"/>
        <path class="cls-2" d="M122.27,295.25h2.88l2.96,9.65,2.49-9.65h3.17l2.86,9.65,2.76-9.65h2.75l-3.95,12.55h-3.29l-2.73-9.37-2.38,9.37h-3.28l-4.25-12.55Z"/>
        <path class="cls-2" d="M146.74,295.25h2.85l5.45,12.55h-2.99l-1.17-2.99h-5.55l-1.14,2.99h-2.85l5.41-12.55Zm1.32,2.49l-1.87,4.83h3.81l-1.94-4.83Z"/>
        <path class="cls-2" d="M157.09,297.46h-4.13v-2.19h11.06v2.19h-4.15v10.35h-2.78v-10.35Z"/>
        <path class="cls-2" d="M170.59,297.44c-.97,0-1.71,.24-2.2,.72-.5,.48-.77,1.21-.82,2.19h7.43v2.19h-7.45c0,1.09,.24,1.88,.71,2.36,.47,.48,1.24,.72,2.33,.72h4.41v2.19h-4.54c-1,0-1.79-.08-2.36-.25s-1.11-.45-1.62-.85c-.65-.51-1.15-1.18-1.47-2s-.49-1.81-.49-2.95c0-2.22,.49-3.86,1.47-4.91s2.5-1.58,4.55-1.58h4.46v2.19h-4.41Z"/>
        <path class="cls-2" d="M177.35,295.25h6.61c1.54,0,2.67,.3,3.39,.91,.72,.61,1.08,1.56,1.08,2.86,0,.96-.22,1.75-.67,2.36s-1.08,1-1.92,1.18l3.19,5.24h-3.02l-2.82-4.93h-3.16v4.93h-2.69v-12.55Zm5.98,2.24h-3.29v3.16h3.29c.89,0,1.51-.12,1.86-.36s.52-.65,.52-1.23-.17-.98-.51-1.22c-.34-.24-.96-.35-1.87-.35Z"/>
        <path class="cls-2" d="M200.38,297.46h-4.13v-2.19h11.06v2.19h-4.15v10.35h-2.78v-10.35Z"/>
        <path class="cls-2" d="M207.79,301.4c0-2.16,.53-3.76,1.58-4.81s2.65-1.58,4.8-1.58,3.77,.53,4.81,1.6c1.04,1.06,1.56,2.71,1.56,4.93s-.52,3.86-1.56,4.93c-1.04,1.07-2.64,1.61-4.81,1.61s-3.8-.54-4.83-1.61c-1.03-1.08-1.55-2.76-1.55-5.05Zm6.37-4.24c-1.15,0-2.01,.35-2.58,1.06-.57,.71-.85,1.77-.85,3.2,0,1.55,.28,2.68,.83,3.4,.55,.72,1.42,1.08,2.61,1.08s2.04-.36,2.6-1.07c.56-.71,.85-1.81,.85-3.3s-.28-2.59-.85-3.3c-.56-.71-1.43-1.07-2.6-1.07Z"/>
        <path class="cls-2" d="M240.07,297.49h-6.64c-.71,0-1.24,.13-1.57,.39-.33,.26-.5,.68-.5,1.25,0,.46,.14,.8,.43,1.02,.28,.23,.71,.34,1.27,.34h3.55c1.47,0,2.52,.27,3.14,.82,.62,.55,.93,1.46,.93,2.73s-.36,2.24-1.08,2.85c-.72,.61-1.85,.91-3.39,.91h-7.15v-2.24h6.73c.76,0,1.3-.11,1.62-.33,.31-.22,.47-.58,.47-1.09s-.14-.9-.43-1.12c-.29-.22-.78-.33-1.47-.33h-3.17c-1.47,0-2.55-.29-3.23-.87-.68-.58-1.02-1.49-1.02-2.74,0-1.33,.36-2.3,1.07-2.92,.72-.61,1.85-.92,3.41-.92h7.03v2.24Z"/>
        <path class="cls-2" d="M241.26,295.25h2.88l2.96,9.65,2.49-9.65h3.17l2.86,9.65,2.76-9.65h2.75l-3.95,12.55h-3.29l-2.73-9.37-2.38,9.37h-3.28l-4.25-12.55Z"/>
        <path class="cls-2" d="M267.65,297.44c-.97,0-1.71,.24-2.2,.72-.5,.48-.77,1.21-.82,2.19h7.43v2.19h-7.45c0,1.09,.24,1.88,.71,2.36,.47,.48,1.24,.72,2.33,.72h4.41v2.19h-4.54c-1,0-1.79-.08-2.36-.25s-1.11-.45-1.62-.85c-.65-.51-1.15-1.18-1.47-2s-.49-1.81-.49-2.95c0-2.22,.49-3.86,1.47-4.91s2.5-1.58,4.55-1.58h4.46v2.19h-4.41Z"/>
        <path class="cls-2" d="M278.07,295.25h2.85l5.45,12.55h-2.99l-1.17-2.99h-5.55l-1.14,2.99h-2.85l5.41-12.55Zm1.32,2.49l-1.87,4.83h3.81l-1.94-4.83Z"/>
        <path class="cls-2" d="M288.42,297.46h-4.13v-2.19h11.06v2.19h-4.15v10.35h-2.78v-10.35Z"/>
        <path class="cls-2" d="M294.6,295.25h3.02l3.15,4.79,3.2-4.79h3.12l-4.94,7.01v5.54h-2.69v-5.54l-4.88-7.01Z"/>
        <path class="cls-2" d="M313.14,295.25h2.88l2.96,9.65,2.49-9.65h3.17l2.86,9.65,2.76-9.65h2.75l-3.95,12.55h-3.29l-2.73-9.37-2.38,9.37h-3.28l-4.25-12.55Z"/>
        <path class="cls-2" d="M333.44,301.4c0-2.16,.53-3.76,1.58-4.81s2.65-1.58,4.8-1.58,3.77,.53,4.81,1.6c1.04,1.06,1.56,2.71,1.56,4.93s-.52,3.86-1.56,4.93c-1.04,1.07-2.64,1.61-4.81,1.61s-3.8-.54-4.83-1.61c-1.03-1.08-1.55-2.76-1.55-5.05Zm6.37-4.24c-1.15,0-2.01,.35-2.58,1.06-.57,.71-.85,1.77-.85,3.2,0,1.55,.28,2.68,.83,3.4,.55,.72,1.42,1.08,2.61,1.08s2.04-.36,2.6-1.07c.56-.71,.85-1.81,.85-3.3s-.28-2.59-.85-3.3c-.56-.71-1.43-1.07-2.6-1.07Z"/>
        <path class="cls-2" d="M348.03,295.25h6.61c1.54,0,2.67,.3,3.39,.91,.72,.61,1.08,1.56,1.08,2.86,0,.96-.22,1.75-.67,2.36s-1.08,1-1.92,1.18l3.19,5.24h-3.02l-2.82-4.93h-3.16v4.93h-2.69v-12.55Zm5.98,2.24h-3.29v3.16h3.29c.89,0,1.51-.12,1.86-.36s.52-.65,.52-1.23-.17-.98-.51-1.22c-.34-.24-.96-.35-1.87-.35Z"/>
        <path class="cls-2" d="M361.38,295.25h2.69v6.03l5.03-6.03h3.22l-5.13,6.13,5.18,6.42h-3.43l-4.88-6.24v6.24h-2.69v-12.55Z"/>
        <path class="cls-2" d="M372.02,301.4c0-2.16,.53-3.76,1.58-4.81s2.65-1.58,4.8-1.58,3.77,.53,4.81,1.6c1.04,1.06,1.56,2.71,1.56,4.93s-.52,3.86-1.56,4.93c-1.04,1.07-2.64,1.61-4.81,1.61s-3.8-.54-4.83-1.61c-1.03-1.08-1.55-2.76-1.55-5.05Zm6.37-4.24c-1.15,0-2.01,.35-2.58,1.06-.57,.71-.85,1.77-.85,3.2,0,1.55,.28,2.68,.83,3.4,.55,.72,1.42,1.08,2.61,1.08s2.04-.36,2.6-1.07c.56-.71,.85-1.81,.85-3.3s-.28-2.59-.85-3.3c-.56-.71-1.43-1.07-2.6-1.07Z"/>
        <path class="cls-2" d="M389.23,295.25v7.51c0,1.17,.22,1.99,.65,2.46s1.17,.7,2.23,.7,1.8-.23,2.23-.69,.64-1.28,.64-2.46v-7.51h2.69v7.58c0,.89-.06,1.6-.18,2.13s-.31,.95-.57,1.25c-.51,.59-1.15,1.03-1.92,1.31-.77,.28-1.73,.42-2.88,.42s-2.11-.14-2.89-.42c-.78-.28-1.42-.71-1.93-1.31-.26-.3-.44-.71-.56-1.22-.12-.51-.17-1.23-.17-2.16v-7.58h2.68Z"/>
        <path class="cls-2" d="M403.06,297.46h-4.13v-2.19h11.06v2.19h-4.15v10.35h-2.78v-10.35Z"/>
        <path class="cls-2" d="M422.09,297.49h-6.64c-.71,0-1.24,.13-1.57,.39-.33,.26-.5,.68-.5,1.25,0,.46,.14,.8,.43,1.02,.28,.23,.71,.34,1.27,.34h3.55c1.47,0,2.52,.27,3.14,.82,.62,.55,.93,1.46,.93,2.73s-.36,2.24-1.08,2.85c-.72,.61-1.85,.91-3.39,.91h-7.15v-2.24h6.73c.76,0,1.3-.11,1.62-.33,.31-.22,.47-.58,.47-1.09s-.14-.9-.43-1.12c-.29-.22-.78-.33-1.47-.33h-3.17c-1.47,0-2.55-.29-3.23-.87-.68-.58-1.02-1.49-1.02-2.74,0-1.33,.36-2.3,1.07-2.92,.72-.61,1.85-.92,3.41-.92h7.03v2.24Z"/>
      </g>
      <g class="cls-3">
        <path class="cls-2" d="M68.38,13.38H29.37c-4.19,0-7.26,.78-9.22,2.35-1.96,1.57-2.94,4.05-2.94,7.45,0,2.72,.83,4.77,2.5,6.13,1.67,1.36,4.15,2.04,7.45,2.04h20.88c8.65,0,14.8,1.63,18.46,4.9,3.66,3.27,5.49,8.71,5.49,16.34s-2.11,13.4-6.33,17.03c-4.22,3.62-10.86,5.44-19.91,5.44H3.74v-13.38H43.26c4.49,0,7.66-.65,9.5-1.96s2.76-3.48,2.76-6.51-.84-5.36-2.53-6.69c-1.69-1.33-4.57-1.99-8.65-1.99H25.7c-8.65,0-14.97-1.73-18.97-5.18C2.73,35.88,.73,30.43,.73,22.97,.73,15.01,2.83,9.19,7.04,5.51,11.24,1.84,17.92,0,27.08,0h41.3V13.38Z"/>
        <path class="cls-2" d="M75.37,0h16.9l17.36,57.69L124.29,0h18.63l16.8,57.69L175.95,0h16.18l-23.18,75.05h-19.35l-16.03-56.06-13.99,56.06h-19.25L75.37,0Z"/>
        <path class="cls-2" d="M230.41,13.07c-5.71,0-10.02,1.43-12.93,4.29-2.91,2.86-4.51,7.23-4.82,13.12l43.65,.05v13.07h-43.75c.03,6.54,1.42,11.23,4.16,14.09,2.74,2.86,7.3,4.29,13.69,4.29h25.91v13.07h-26.67c-5.89,0-10.51-.5-13.88-1.51-3.37-1-6.53-2.7-9.49-5.08-3.84-3.06-6.73-7.05-8.65-11.97-1.92-4.92-2.88-10.8-2.88-17.64,0-13.27,2.87-23.07,8.62-29.38,5.75-6.31,14.66-9.47,26.74-9.47h26.21V13.07h-25.91Z"/>
        <path class="cls-2" d="M291.64,0h16.75l32.01,75.05h-17.56l-6.89-17.87h-32.62l-6.69,17.87h-16.75L291.64,0Zm7.76,14.91l-10.98,28.9h22.36l-11.39-28.9Z"/>
        <path class="cls-2" d="M352.45,13.17h-24.25V.1h64.94V13.17h-24.35v61.88h-16.34V13.17Z"/>
      </g>
      <g class="cls-3">
        <path class="cls-2" d="M164.52,87.74h6.03l11.54,27.05h-6.33l-2.48-6.44h-11.76l-2.41,6.44h-6.03l11.44-27.05Zm2.8,5.37l-3.96,10.41h8.06l-4.1-10.41Z"/>
        <path class="cls-2" d="M183.98,87.74h7.19l11.08,19.43-.28-19.43h5.81v27.05h-6.6l-11.63-20.46,.26,20.46h-5.83v-27.05Z"/>
        <path class="cls-2" d="M213.29,87.74h12.38c4.35,0,7.57,1.14,9.64,3.41s3.11,5.8,3.11,10.59c0,2.46-.35,4.58-1.04,6.36s-1.73,3.21-3.12,4.31c-1.07,.86-2.21,1.47-3.42,1.83-1.21,.36-2.88,.54-5,.54h-12.55v-27.05Zm12.27,4.71h-6.59v17.63h6.59c2.51,0,4.25-.63,5.21-1.9,.96-1.26,1.44-3.57,1.44-6.92s-.48-5.64-1.44-6.91c-.96-1.27-2.69-1.9-5.21-1.9Z"/>
      </g>
      <g class="cls-3">
        <g>
          <path class="cls-2" d="M0,126.25H16.9l17.36,57.69,14.65-57.69h18.63l16.8,57.69,16.24-57.69h16.18l-23.18,75.05h-19.35l-16.03-56.06-13.99,56.06H24.97L0,126.25Z"/>
          <path class="cls-2" d="M143.77,126.25h16.75l32.01,75.05h-17.56l-6.89-17.87h-32.62l-6.69,17.87h-16.75l31.76-75.05Zm7.76,14.91l-10.98,28.9h22.36l-11.39-28.9Z"/>
          <path class="cls-2" d="M204.58,139.42h-24.25v-13.07h64.94v13.07h-24.35v61.88h-16.34v-61.88Z"/>
          <path class="cls-2" d="M283.85,139.32c-5.71,0-10.02,1.43-12.93,4.29-2.91,2.86-4.51,7.23-4.82,13.12l43.65,.05v13.07h-43.75c.03,6.54,1.42,11.23,4.16,14.09,2.74,2.86,7.3,4.29,13.69,4.29h25.91v13.07h-26.67c-5.89,0-10.51-.5-13.88-1.51-3.37-1-6.53-2.7-9.49-5.08-3.84-3.06-6.73-7.05-8.65-11.97-1.92-4.92-2.88-10.8-2.88-17.64,0-13.27,2.87-23.07,8.62-29.38,5.75-6.31,14.66-9.47,26.74-9.47h26.21v13.07h-25.91Z"/>
          <path class="cls-2" d="M323.59,126.25h38.85c9.05,0,15.69,1.82,19.91,5.46,4.22,3.64,6.33,9.34,6.33,17.1,0,5.75-1.3,10.45-3.91,14.09-2.6,3.64-6.36,5.99-11.26,7.05l18.74,31.35h-17.77l-16.54-29.51h-18.58v29.51h-15.78V126.25Zm35.13,13.38h-19.35v18.89h19.35c5.24,0,8.88-.71,10.93-2.14,2.04-1.43,3.06-3.88,3.06-7.35s-1-5.86-2.99-7.28-5.66-2.12-11-2.12Z"/>
        </g>
      </g>
      <g class="cls-3">
        <path class="cls-2" d="M5.66,215.03H30.41c5.77,0,10,1.16,12.69,3.48,2.69,2.32,4.03,5.95,4.03,10.9,0,3.67-.83,6.66-2.49,8.98-1.66,2.32-4.05,3.82-7.17,4.49l11.94,19.97h-11.32l-10.54-18.8H15.71v18.8H5.66v-47.81Zm22.38,8.52H15.71v12.03h12.33c3.34,0,5.66-.46,6.96-1.37,1.3-.91,1.95-2.47,1.95-4.68s-.63-3.73-1.9-4.63c-1.27-.9-3.6-1.35-7.01-1.35Z"/>
        <path class="cls-2" d="M75.32,223.36c-3.64,0-6.38,.91-8.24,2.73-1.85,1.82-2.88,4.61-3.07,8.36l27.81,.03v8.33h-27.88c.02,4.16,.9,7.16,2.65,8.98,1.74,1.82,4.65,2.73,8.72,2.73h16.5v8.33h-16.99c-3.75,0-6.7-.32-8.84-.96-2.15-.64-4.16-1.72-6.05-3.24-2.45-1.95-4.29-4.49-5.51-7.63-1.23-3.13-1.84-6.88-1.84-11.24,0-8.46,1.83-14.7,5.49-18.72,3.66-4.02,9.34-6.03,17.03-6.03h16.7v8.33h-16.5Z"/>
        <path class="cls-2" d="M141.06,223.56h-24.85c-2.67,0-4.62,.5-5.87,1.5-1.25,1-1.87,2.58-1.87,4.75,0,1.73,.53,3.04,1.59,3.9,1.06,.87,2.65,1.3,4.75,1.3h13.3c5.51,0,9.43,1.04,11.76,3.12,2.33,2.08,3.5,5.55,3.5,10.41s-1.34,8.54-4.03,10.85c-2.69,2.31-6.92,3.46-12.69,3.46h-26.77v-8.52h25.18c2.86,0,4.88-.42,6.05-1.25,1.17-.83,1.76-2.22,1.76-4.15s-.54-3.42-1.61-4.26c-1.07-.85-2.91-1.27-5.51-1.27h-11.87c-5.51,0-9.54-1.1-12.08-3.3-2.55-2.2-3.82-5.68-3.82-10.42,0-5.07,1.34-8.78,4.02-11.12,2.68-2.34,6.93-3.51,12.77-3.51h26.31v8.52Z"/>
        <path class="cls-2" d="M161.49,262.85h-10.51v-47.81h10.51v47.81Z"/>
        <path class="cls-2" d="M211.87,223.56h-24.85c-2.67,0-4.62,.5-5.87,1.5-1.25,1-1.87,2.58-1.87,4.75,0,1.73,.53,3.04,1.59,3.9,1.06,.87,2.65,1.3,4.75,1.3h13.3c5.51,0,9.43,1.04,11.76,3.12,2.33,2.08,3.5,5.55,3.5,10.41s-1.34,8.54-4.03,10.85c-2.69,2.31-6.92,3.46-12.69,3.46h-26.77v-8.52h25.18c2.86,0,4.88-.42,6.05-1.25,1.17-.83,1.76-2.22,1.76-4.15s-.54-3.42-1.61-4.26c-1.07-.85-2.91-1.27-5.51-1.27h-11.87c-5.51,0-9.54-1.1-12.08-3.3-2.55-2.2-3.82-5.68-3.82-10.42,0-5.07,1.34-8.78,4.02-11.12,2.68-2.34,6.93-3.51,12.77-3.51h26.31v8.52Z"/>
        <path class="cls-2" d="M232.17,223.42h-15.45v-8.33h41.37v8.33h-15.52v39.42h-10.41v-39.42Z"/>
        <path class="cls-2" d="M270.55,215.03h10.67l20.39,47.81h-11.19l-4.39-11.38h-20.78l-4.26,11.38h-10.67l20.23-47.81Zm4.94,9.5l-6.99,18.41h14.25l-7.25-18.41Z"/>
        <path class="cls-2" d="M304.96,215.03h12.72l19.58,34.35-.49-34.35h10.28v47.81h-11.68l-20.56-36.17,.46,36.17h-10.31v-47.81Z"/>
        <path class="cls-2" d="M367.22,223.42h-15.45v-8.33h41.37v8.33h-15.52v39.42h-10.41v-39.42Z"/>
      </g>
      <polygon class="cls-2" points="143.77 126.24 112.01 201.3 192.53 201.3 160.52 126.24 143.77 126.24"/>
      <g>
        <path class="cls-1" d="M150.33,195c-5.07,0-9.75-1.79-13.17-5.05-3.52-3.35-5.45-8.04-5.45-13.22,0-4.27,1.76-9.19,5.37-15.04,3.06-4.95,6.88-9.68,10.26-13.85,.79-.97,1.53-1.89,2.23-2.77,.18-.23,.46-.37,.76-.37s.57,.13,.76,.37c.7,.88,1.44,1.8,2.23,2.77,1.08,1.34,2.2,2.72,3.34,4.17,.33,.42,.26,1.03-.16,1.36-.42,.33-1.03,.26-1.36-.16-1.13-1.44-2.25-2.82-3.32-4.15-.51-.63-1.01-1.24-1.48-1.84-.48,.59-.97,1.21-1.49,1.84-6.41,7.93-15.2,18.79-15.2,27.67,0,4.64,1.72,8.84,4.85,11.82,3.06,2.91,7.26,4.52,11.84,4.52s8.78-1.6,11.84-4.52c3.13-2.98,4.85-7.18,4.85-11.82,0-1.68-.32-3.53-.95-5.49-.16-.51,.12-1.05,.62-1.22,.51-.16,1.05,.12,1.22,.62,.69,2.15,1.04,4.2,1.04,6.08,0,5.18-1.93,9.87-5.45,13.22-3.42,3.26-8.1,5.05-13.17,5.05Z"/>
        <path class="cls-1" d="M150.33,189.39c-6.95,0-12.6-5.65-12.6-12.6,0-.53,.43-.97,.97-.97s.97,.43,.97,.97c0,5.88,4.79,10.67,10.67,10.67,.53,0,.97,.43,.97,.97s-.43,.97-.97,.97Z"/>
        <path class="cls-1" d="M161.52,171.91c-2.58,0-4.95-.91-6.7-2.57-1.8-1.71-2.78-4.1-2.78-6.74,0-4.79,4.42-10.25,7.65-14.24,.38-.47,.74-.91,1.07-1.33,.18-.23,.46-.37,.76-.37h0c.29,0,.57,.13,.76,.37,.34,.42,.69,.87,1.07,1.33,3.23,3.99,7.65,9.45,7.65,14.24,0,2.63-.99,5.03-2.78,6.74-1.74,1.66-4.12,2.57-6.7,2.57Zm0-22.74c-.11,.13-.22,.27-.33,.4-3.05,3.76-7.22,8.92-7.22,13.02,0,2.13,.75,3.97,2.18,5.33,1.38,1.32,3.29,2.04,5.36,2.04s3.98-.72,5.36-2.04c1.43-1.36,2.18-3.21,2.18-5.33,0-4.1-4.17-9.26-7.22-13.02-.11-.14-.22-.27-.33-.4Z"/>
      </g>
    </g>
  </g>
</svg>