<?xml version="1.0" encoding="UTF-8"?>
<svg id="Layer_2" data-name="Layer 2" xmlns="http://www.w3.org/2000/svg" viewBox="0 0 444.24 173.6">
  <defs>
    <style>
      .cls-1 {
        fill: #fff;
      }

      .cls-2 {
        fill: #b43b2f;
      }

      .cls-3 {
        opacity: .6;
      }
    </style>
  </defs>
  <g id="Layer_1-2" data-name="Layer 1">
    <g>
      <g>
        <path class="cls-1" d="M0,160.91H2.83l2.9,9.65,2.45-9.65h3.12l2.81,9.65,2.71-9.65h2.71l-3.88,12.55h-3.24l-2.68-9.37-2.34,9.37h-3.22l-4.17-12.55Z"/>
        <path class="cls-1" d="M23.53,173.46h-2.76v-12.55h2.76v12.55Z"/>
        <path class="cls-1" d="M28.88,163.11h-4.06v-2.19h10.86v2.19h-4.07v10.35h-2.73v-10.35Z"/>
        <path class="cls-1" d="M39.6,160.91v5.09h4.84v-5.09h2.64v12.55h-2.64v-5.24h-4.84v5.24h-2.64v-12.55h2.64Z"/>
        <path class="cls-1" d="M56.45,160.91h3.88l3.2,9.63,3.2-9.63h3.86v12.55h-2.59l.21-9.78-3.22,9.78h-2.8l-3.32-9.88,.26,9.88h-2.69v-12.55Z"/>
        <path class="cls-1" d="M78.35,163.1c-.96,0-1.68,.24-2.16,.72-.49,.48-.75,1.21-.81,2.19h7.3v2.19h-7.32c0,1.09,.24,1.88,.69,2.36,.46,.48,1.22,.72,2.29,.72h4.33v2.19h-4.46c-.98,0-1.76-.08-2.32-.25s-1.09-.45-1.59-.85c-.64-.51-1.12-1.18-1.45-2-.32-.82-.48-1.81-.48-2.95,0-2.22,.48-3.86,1.44-4.91,.96-1.06,2.45-1.58,4.47-1.58h4.38v2.19h-4.33Z"/>
        <path class="cls-1" d="M87.74,163.11h-4.06v-2.19h10.86v2.19h-4.07v10.35h-2.73v-10.35Z"/>
        <path class="cls-1" d="M97.81,160.91h2.8l5.35,12.55h-2.94l-1.15-2.99h-5.46l-1.12,2.99h-2.8l5.31-12.55Zm1.3,2.49l-1.84,4.83h3.74l-1.9-4.83Z"/>
        <path class="cls-1" d="M111.82,173.46c-1.17,0-2.04-.1-2.61-.29-.57-.2-1.08-.54-1.53-1.02-.42-.43-.71-.92-.88-1.47-.17-.55-.26-1.31-.26-2.3v-7.46h2.64v7.38c0,.73,.03,1.25,.1,1.55s.18,.54,.34,.72c.25,.3,.56,.51,.92,.63,.36,.12,.87,.19,1.51,.19h3.11v2.08h-3.34Z"/>
        <path class="cls-1" d="M121.54,173.46c-1.17,0-2.04-.1-2.61-.29-.57-.2-1.08-.54-1.53-1.02-.42-.43-.71-.92-.88-1.47-.17-.55-.26-1.31-.26-2.3v-7.46h2.64v7.38c0,.73,.03,1.25,.1,1.55s.18,.54,.34,.72c.25,.3,.56,.51,.92,.63,.36,.12,.87,.19,1.51,.19h3.11v2.08h-3.34Z"/>
        <path class="cls-1" d="M129.07,173.46h-2.76v-12.55h2.76v12.55Z"/>
        <path class="cls-1" d="M136.85,163.05c-1.09,0-1.88,.35-2.36,1.04-.48,.69-.72,1.83-.72,3.42,0,1.38,.23,2.35,.69,2.91,.46,.56,1.26,.84,2.39,.84h4.34v2.19h-4.46c-.98,0-1.76-.08-2.32-.25s-1.09-.45-1.59-.85c-.64-.51-1.13-1.18-1.45-2-.32-.82-.48-1.81-.48-2.95,0-2.22,.48-3.86,1.44-4.91s2.45-1.58,4.47-1.58h4.39v2.14h-4.34Z"/>
        <path class="cls-1" d="M149.9,160.91h5.75c2.02,0,3.51,.53,4.47,1.58s1.44,2.69,1.44,4.91c0,1.14-.16,2.13-.48,2.95s-.8,1.49-1.45,2c-.5,.4-1.02,.68-1.59,.85-.56,.17-1.34,.25-2.32,.25h-5.82v-12.55Zm5.69,2.19h-3.06v8.18h3.06c1.17,0,1.97-.29,2.42-.88,.44-.59,.67-1.66,.67-3.21s-.22-2.62-.67-3.21c-.44-.59-1.25-.88-2.42-.88Z"/>
        <path class="cls-1" d="M165.96,160.91v7.51c0,1.17,.21,1.99,.64,2.46,.42,.46,1.15,.7,2.19,.7s1.76-.23,2.19-.69c.42-.46,.63-1.28,.63-2.46v-7.51h2.64v7.58c0,.89-.06,1.6-.17,2.13-.12,.53-.3,.95-.56,1.25-.5,.59-1.13,1.03-1.89,1.31-.76,.28-1.7,.42-2.83,.42s-2.07-.14-2.84-.42c-.77-.28-1.4-.71-1.9-1.31-.25-.3-.43-.71-.55-1.22-.11-.51-.17-1.23-.17-2.16v-7.58h2.63Z"/>
        <path class="cls-1" d="M176.81,160.91h6.5c1.51,0,2.62,.3,3.33,.91,.71,.61,1.06,1.56,1.06,2.86,0,.96-.22,1.75-.65,2.36-.44,.61-1.06,1-1.88,1.18l3.13,5.24h-2.97l-2.77-4.93h-3.11v4.93h-2.64v-12.55Zm5.87,2.24h-3.24v3.16h3.24c.88,0,1.49-.12,1.83-.36,.34-.24,.51-.65,.51-1.23s-.17-.98-.5-1.22c-.33-.24-.95-.35-1.84-.35Z"/>
        <path class="cls-1" d="M193.51,160.91h2.8l5.35,12.55h-2.94l-1.15-2.99h-5.46l-1.12,2.99h-2.8l5.31-12.55Zm1.3,2.49l-1.84,4.83h3.74l-1.9-4.83Z"/>
        <path class="cls-1" d="M209.45,173.46h-6.91v-12.55h6.45c.81,0,1.48,.05,1.98,.14s.92,.24,1.23,.44c.46,.29,.81,.67,1.05,1.13,.24,.46,.36,.98,.36,1.57,0,.7-.15,1.29-.45,1.78s-.77,.9-1.42,1.23c.65,.27,1.13,.64,1.44,1.11s.47,1.05,.47,1.75c0,1.17-.34,2.04-1.02,2.59-.68,.55-1.74,.83-3.18,.83Zm-4.27-10.3v2.9h3.86c.6,0,1.04-.12,1.31-.35,.28-.24,.42-.6,.42-1.1s-.14-.87-.42-1.1c-.28-.23-.72-.35-1.31-.35h-3.86Zm3.9,8.08c.6,0,1.04-.12,1.31-.35,.27-.24,.41-.61,.41-1.11s-.14-.89-.41-1.13c-.28-.24-.71-.36-1.31-.36h-3.9v2.95h3.9Z"/>
        <path class="cls-1" d="M218.52,173.46h-2.76v-12.55h2.76v12.55Z"/>
        <path class="cls-1" d="M226.11,173.46c-1.17,0-2.04-.1-2.61-.29-.57-.2-1.08-.54-1.53-1.02-.42-.43-.71-.92-.88-1.47-.17-.55-.26-1.31-.26-2.3v-7.46h2.64v7.38c0,.73,.03,1.25,.1,1.55s.18,.54,.34,.72c.25,.3,.56,.51,.92,.63,.36,.12,.87,.19,1.51,.19h3.11v2.08h-3.34Z"/>
        <path class="cls-1" d="M233.63,173.46h-2.76v-12.55h2.76v12.55Z"/>
        <path class="cls-1" d="M238.98,163.11h-4.06v-2.19h10.86v2.19h-4.07v10.35h-2.73v-10.35Z"/>
        <path class="cls-1" d="M245.05,160.91h2.97l3.1,4.79,3.14-4.79h3.06l-4.85,7.01v5.54h-2.64v-5.54l-4.79-7.01Z"/>
      </g>
      <g>
        <g class="cls-3">
          <path class="cls-1" d="M1.63,26.41c0-6.01,.36-10.42,1.09-13.24s1.97-5.11,3.72-6.88c1.8-1.82,4.19-3.17,7.19-4.04,2.99-.88,6.73-1.32,11.2-1.32h15.11V9.14h-15.95c-4.3,0-7.43,.9-9.39,2.71-1.96,1.81-2.97,4.72-3.03,8.74l28.36,.03v8.15H11.58v19.32H1.63V26.41Z"/>
          <path class="cls-1" d="M58.71,.93h10.52l20.12,47.17h-11.04l-4.33-11.23h-20.5l-4.2,11.23h-10.52L58.71,.93Zm4.88,9.37l-6.9,18.16h14.05l-7.16-18.16Z"/>
          <path class="cls-1" d="M133.85,9.34h-24.51c-2.63,0-4.56,.49-5.79,1.48-1.23,.98-1.85,2.55-1.85,4.68,0,1.71,.52,3,1.57,3.85,1.05,.86,2.61,1.28,4.68,1.28h13.12c5.43,0,9.3,1.03,11.6,3.08s3.45,5.48,3.45,10.27-1.33,8.42-3.98,10.7-6.82,3.42-12.51,3.42h-26.41v-8.41h24.83c2.82,0,4.81-.41,5.97-1.24,1.16-.82,1.73-2.19,1.73-4.09s-.53-3.37-1.59-4.2c-1.06-.83-2.87-1.25-5.44-1.25h-11.71c-5.43,0-9.41-1.08-11.92-3.26-2.51-2.17-3.77-5.6-3.77-10.28,0-5,1.32-8.66,3.96-10.97,2.64-2.31,6.84-3.47,12.59-3.47h25.96V9.34Z"/>
          <path class="cls-1" d="M155.31,48.1h-10.36V.93h10.36V48.1Z"/>
          <path class="cls-1" d="M163.4,24.03c0-8.11,1.94-14.14,5.82-18.1,3.88-3.96,9.78-5.94,17.72-5.94s13.91,2,17.75,6c3.84,4,5.76,10.17,5.76,18.51s-1.92,14.52-5.76,18.55c-3.84,4.02-9.75,6.03-17.75,6.03s-14.02-2.02-17.83-6.06c-3.81-4.04-5.71-10.37-5.71-19Zm23.53-15.95c-4.25,0-7.43,1.33-9.53,3.98-2.1,2.65-3.16,6.66-3.16,12.03,0,5.82,1.02,10.08,3.06,12.79s5.25,4.06,9.63,4.06,7.51-1.34,9.6-4.03c2.08-2.68,3.12-6.82,3.12-12.4s-1.04-9.74-3.12-12.42c-2.08-2.67-5.28-4.01-9.6-4.01Z"/>
          <path class="cls-1" d="M218.55,.93h12.55l19.32,33.88-.48-33.88h10.14V48.1h-11.52l-20.28-35.68,.45,35.68h-10.17V.93Z"/>
          <path class="cls-1" d="M284.49,.93h10.52l20.12,47.17h-11.04l-4.33-11.23h-20.5l-4.2,11.23h-10.52L284.49,.93Zm4.88,9.37l-6.9,18.16h14.05l-7.16-18.16Z"/>
          <path class="cls-1" d="M345.7,48.1h-25.96V.93h24.22c3.06,0,5.55,.17,7.46,.51,1.91,.34,3.46,.89,4.64,1.64,1.73,1.09,3.05,2.5,3.96,4.24,.91,1.73,1.36,3.7,1.36,5.9,0,2.63-.57,4.86-1.7,6.69-1.13,1.83-2.91,3.36-5.33,4.6,2.44,1.03,4.24,2.41,5.41,4.16s1.75,3.93,1.75,6.56c0,4.41-1.28,7.65-3.85,9.74-2.57,2.08-6.56,3.13-11.97,3.13Zm-16.04-38.7v10.91h14.5c2.25,0,3.89-.44,4.94-1.33,1.05-.89,1.57-2.26,1.57-4.12s-.52-3.26-1.57-4.14c-1.05-.88-2.7-1.32-4.94-1.32h-14.5Zm14.66,30.35c2.27,0,3.91-.44,4.94-1.33s1.54-2.28,1.54-4.19-.52-3.34-1.56-4.23c-1.04-.9-2.68-1.35-4.92-1.35h-14.66v11.1h14.66Z"/>
          <path class="cls-1" d="M389.37,48.1c-4.41,0-7.68-.37-9.82-1.11-2.14-.74-4.05-2.02-5.74-3.83-1.56-1.62-2.66-3.46-3.3-5.52-.64-2.05-.96-4.94-.96-8.66V.93h9.91V28.65c0,2.76,.12,4.7,.37,5.82,.25,1.12,.67,2.03,1.27,2.71,.94,1.11,2.1,1.9,3.47,2.37,1.37,.47,3.26,.71,5.68,.71h11.68v7.83h-12.55Z"/>
          <path class="cls-1" d="M427.96,9.14c-3.59,0-6.3,.9-8.12,2.7s-2.84,4.55-3.03,8.25l27.43,.03v8.21h-27.5c.02,4.11,.89,7.06,2.61,8.86s4.59,2.7,8.6,2.7h16.28v8.21h-16.76c-3.7,0-6.61-.32-8.72-.95s-4.1-1.7-5.96-3.19c-2.42-1.93-4.23-4.43-5.44-7.52-1.21-3.09-1.81-6.79-1.81-11.09,0-8.34,1.81-14.5,5.42-18.46s9.21-5.95,16.8-5.95h16.47V9.14h-16.28Z"/>
        </g>
        <g class="cls-3">
          <path class="cls-1" d="M.21,61.52H36.66c12.82,0,22.28,3.35,28.38,10.05,6.1,6.7,9.15,17.09,9.15,31.17,0,7.26-1.02,13.49-3.06,18.71-2.04,5.22-5.1,9.45-9.18,12.7-3.14,2.53-6.5,4.32-10.07,5.39-3.57,1.07-8.48,1.6-14.73,1.6H.21V61.52Zm36.12,13.86H16.95v51.88h19.39c7.4,0,12.51-1.86,15.33-5.58,2.82-3.72,4.22-10.51,4.22-20.36s-1.41-16.6-4.22-20.33c-2.82-3.74-7.93-5.61-15.33-5.61Z"/>
          <path class="cls-1" d="M120.74,75.39c-6.06,0-10.63,1.52-13.71,4.55-3.08,3.03-4.79,7.67-5.11,13.92l46.3,.05v13.86h-46.41c.04,6.93,1.51,11.91,4.41,14.95,2.9,3.03,7.74,4.55,14.52,4.55h27.48v13.86h-28.29c-6.24,0-11.15-.53-14.72-1.6-3.57-1.06-6.93-2.86-10.07-5.39-4.08-3.25-7.14-7.48-9.17-12.7-2.04-5.22-3.06-11.45-3.06-18.71,0-14.08,3.05-24.47,9.15-31.17s15.55-10.05,28.36-10.05h27.8v13.86h-27.48Z"/>
          <path class="cls-1" d="M232.42,75.71h-41.37c-4.44,0-7.7,.83-9.77,2.49-2.08,1.66-3.11,4.3-3.11,7.91,0,2.89,.88,5.06,2.65,6.5,1.77,1.44,4.4,2.17,7.91,2.17h22.15c9.17,0,15.7,1.73,19.58,5.2,3.88,3.47,5.82,9.24,5.82,17.33s-2.24,14.22-6.72,18.06c-4.48,3.84-11.52,5.77-21.12,5.77h-44.57v-14.19h41.92c4.77,0,8.12-.69,10.07-2.08,1.95-1.39,2.92-3.69,2.92-6.91s-.89-5.69-2.68-7.09-4.85-2.11-9.18-2.11h-19.77c-9.17,0-15.88-1.83-20.12-5.5-4.24-3.66-6.36-9.45-6.36-17.36,0-8.45,2.23-14.62,6.69-18.52,4.46-3.9,11.54-5.85,21.26-5.85h43.81v14.19Z"/>
          <path class="cls-1" d="M268.65,141.13h-17.49V61.52h17.49v79.61Z"/>
          <path class="cls-1" d="M316.36,107.99v-14.08h39.59v47.22h-36.01c-6.64,0-11.74-.54-15.3-1.62-3.56-1.08-6.89-2.87-9.99-5.36-4.08-3.25-7.14-7.48-9.18-12.7-2.04-5.22-3.06-11.45-3.06-18.71,0-14.04,3.06-24.42,9.18-31.14,6.12-6.71,15.57-10.07,28.35-10.07h36.01v13.7h-36.01c-6.57,0-11.36,2.13-14.38,6.39-3.01,4.26-4.52,11.05-4.52,20.36,0,8.7,1.5,15,4.5,18.9,3,3.9,7.8,5.85,14.41,5.85h18.85v-18.74h-22.42Z"/>
          <path class="cls-1" d="M371.97,61.52h21.17l32.6,57.19-.81-57.19h17.11v79.61h-19.44l-34.23-60.22,.76,60.22h-17.17V61.52Z"/>
        </g>
      </g>
      <path class="cls-1" d="M27.35,52.18c-9.76,0-18.84,2.9-26.46,7.83v81.97c7.63,4.94,16.7,7.83,26.46,7.83,26.96,0,48.82-21.86,48.82-48.82S54.31,52.18,27.35,52.18Z"/>
      <path class="cls-2" d="M59.29,84.11c0-.3-.14-.58-.38-.76l-23.22-17.14c-.33-.25-.79-.25-1.12,0l-23.22,17.14c-.24,.18-.38,.46-.38,.76,0,0,0,.01,0,.02,0,0,0,.02,0,.02v27.77c0,.3,.14,.58,.38,.76l23.3,17.23c.17,.12,.36,.18,.56,.18,0,0,.01,0,.02,0,0,0,.01,0,.02,0,.2,0,.4-.06,.56-.19l23.1-17.23c.24-.18,.38-.46,.38-.76v-27.77s0-.02,0-.02c0,0,0-.01,0-.02Zm-45.79,0l1.22-.9,20.41-15.07,20.41,15.07,1.22,.9-.06,.04-1.28,.94-8.13,6-1.23-.91-6.87-5.09-1.27-.94-1.27-.94-.55-.41c-.09-.19-.24-.35-.43-.45-.32-.16-.7-.13-.99,.09l-1.02,.77-.65,.48-.62,.46-1.28,.94-8.13,6-8.13-6-1.28-.94-.06-.04Zm-.64,1.87l9.1,6.71v14.29c0,.21,.07,.41,.2,.58,.06,.11,.15,.21,.25,.28l11.87,8.76v10.67l-21.41-15.83v-25.47Zm32.99,21.11l-8.05,5.94-1.59,1.17h0s0,.01,0,.01l-.03,.02-.04,.03-.86,.63h0s0,.01,0,.01l-.03,.02h-.02s0,.01,0,.01h-.02s-.86-.65-.86-.65h0s-.04-.03-.04-.03l-.02-.02-9.7-7.16,.03-.02h.01s9.64-7.12,9.64-7.12h.02s.02-.03,.02-.03l.03-.02h0s0-.01,0-.01l.86-.63h.02s0-.02,0-.02h.02s.03,.03,.03,.03h0s0,.01,0,.01l.86,.63h.02s.02,.03,.02,.03l.03,.02h0s0,.01,0,.01l9.55,7.05,.05,.04,.04,.03Zm-11.54-22v12.46l-.03,.02-.02,.02h-.02s-10.33,7.64-10.33,7.64v-12.36l.67-.5,1.26-.94,8.29-6.2,.14-.11,.03-.02h0Zm10.62,6.61l.89,.66,.68,.51v12.36l-.06-.05-10.22-7.54v-12.39l8.33,6.18,.38,.28Zm12.49,19.75l-21.21,15.82v-10.69l2.72-2.03,9.08-6.7c.24-.18,.38-.46,.38-.76,0-.01,0-.02,0-.03,0-.01,0-.02,0-.03v-14.37l9.03-6.67v25.47Z"/>
    </g>
  </g>
</svg>