<?xml version="1.0" encoding="UTF-8"?>
<svg id="Layer_2" data-name="Layer 2" xmlns="http://www.w3.org/2000/svg" viewBox="0 0 318.74 221.99">
  <defs>
    <style>
      .cls-1 {
        fill: #f06669;
      }

      .cls-2 {
        fill: #fff;
      }

      .cls-3 {
        opacity: .6;
      }
    </style>
  </defs>
  <g id="Layer_1-2" data-name="Layer 1">
    <g>
      <g>
        <g class="cls-3">
          <g>
            <path class="cls-2" d="M97.81,98.15h25.77c3.52,0,6.09-.62,7.72-1.85,1.63-1.23,2.45-3.17,2.45-5.81s-.83-4.54-2.49-5.78c-1.66-1.25-4.22-1.87-7.68-1.87h-20.84v-10.72h20.5c3.52,0,6.09-.61,7.72-1.83,1.63-1.22,2.45-3.1,2.45-5.66s-.82-4.53-2.47-5.76c-1.64-1.23-4.21-1.85-7.7-1.85h-25.43v-10.67h30.02c7.06,0,12.27,1.35,15.63,4.04,3.36,2.69,5.04,6.89,5.04,12.59,0,2.89-.69,5.52-2.06,7.89-1.38,2.37-3.51,4.59-6.4,6.66,2.95,1.56,5.11,3.52,6.49,5.89,1.37,2.37,2.06,5.31,2.06,8.82,0,5.3-1.69,9.4-5.08,12.29-3.39,2.89-8.17,4.34-14.35,4.34h-31.34v-10.72Z"/>
            <path class="cls-2" d="M185.42,109.71c-10.66,0-18.54-2.61-23.65-7.83-5.1-5.22-7.66-13.28-7.66-24.2s2.56-19.04,7.68-24.28c5.12-5.24,12.99-7.87,23.62-7.87s18.45,2.62,23.54,7.87c5.09,5.25,7.63,13.34,7.63,24.28s-2.54,18.98-7.63,24.2c-5.09,5.22-12.94,7.83-23.54,7.83Zm-.09-10.33c5.93,0,10.31-1.76,13.14-5.29,2.83-3.53,4.25-8.99,4.25-16.39s-1.42-12.91-4.27-16.46c-2.85-3.54-7.22-5.32-13.12-5.32s-10.3,1.77-13.12,5.32c-2.82,3.54-4.23,9.03-4.23,16.46s1.41,12.87,4.23,16.39c2.82,3.53,7.19,5.29,13.12,5.29Z"/>
            <path class="cls-2" d="M13.14,119.96v25.35h24.11v-25.35h13.14v62.52h-13.14v-26.11H13.14v26.11H0v-62.52H13.14Z"/>
            <path class="cls-2" d="M59.28,150.58c0-10.75,2.57-18.74,7.71-23.99,5.14-5.24,12.97-7.87,23.48-7.87s18.44,2.65,23.52,7.95c5.09,5.3,7.63,13.48,7.63,24.54s-2.54,19.25-7.63,24.58c-5.09,5.33-12.93,8-23.52,8s-18.59-2.68-23.63-8.04c-5.04-5.36-7.56-13.75-7.56-25.18Zm31.19-21.14c-5.64,0-9.85,1.76-12.64,5.27-2.79,3.52-4.18,8.83-4.18,15.95,0,7.71,1.35,13.36,4.06,16.95s6.96,5.38,12.76,5.38,9.96-1.78,12.72-5.34c2.76-3.56,4.14-9.04,4.14-16.44s-1.38-12.91-4.14-16.46-7-5.32-12.72-5.32Z"/>
            <path class="cls-2" d="M143.53,119.96v37.42c0,5.84,1.06,9.92,3.17,12.23,2.11,2.31,5.75,3.47,10.91,3.47s8.79-1.15,10.89-3.45c2.1-2.3,3.15-6.38,3.15-12.25v-37.42h13.14v37.76c0,4.42-.29,7.95-.87,10.59-.58,2.64-1.51,4.72-2.79,6.25-2.5,2.95-5.63,5.12-9.42,6.51-3.78,1.39-8.48,2.08-14.1,2.08s-10.33-.7-14.14-2.08c-3.81-1.39-6.97-3.56-9.46-6.51-1.25-1.5-2.15-3.53-2.72-6.08-.57-2.55-.85-6.14-.85-10.76v-37.76h13.1Z"/>
            <path class="cls-2" d="M197.54,119.96h32.36c7.54,0,13.07,1.52,16.59,4.55,3.52,3.03,5.27,7.78,5.27,14.25,0,4.79-1.08,8.7-3.25,11.74-2.17,3.03-5.29,4.99-9.38,5.87l15.61,26.11h-14.8l-13.78-24.58h-15.48v24.58h-13.14v-62.52Zm29.26,11.14h-16.12v15.74h16.12c4.37,0,7.4-.59,9.1-1.79,1.7-1.19,2.55-3.23,2.55-6.12s-.83-4.88-2.49-6.06c-1.66-1.18-4.71-1.77-9.16-1.77Z"/>
            <path class="cls-2" d="M315.72,131.1h-32.49c-3.49,0-6.05,.65-7.68,1.96-1.63,1.3-2.45,3.37-2.45,6.21,0,2.27,.69,3.97,2.08,5.1,1.39,1.13,3.46,1.7,6.21,1.7h17.39c7.2,0,12.33,1.36,15.37,4.08,3.05,2.72,4.57,7.26,4.57,13.61s-1.76,11.16-5.27,14.18-9.04,4.53-16.59,4.53h-35v-11.14h32.92c3.74,0,6.38-.55,7.91-1.64,1.53-1.09,2.3-2.9,2.3-5.42s-.7-4.46-2.1-5.57c-1.4-1.11-3.81-1.66-7.21-1.66h-15.52c-7.2,0-12.47-1.44-15.8-4.32-3.33-2.88-5-7.42-5-13.63,0-6.63,1.75-11.48,5.25-14.54,3.5-3.06,9.06-4.59,16.69-4.59h34.4v11.14Z"/>
          </g>
        </g>
        <g>
          <path class="cls-2" d="M67.89,211.38h-4.06v-2.19h10.86v2.19h-4.07v10.35h-2.73v-10.35Z"/>
          <path class="cls-2" d="M75.17,215.33c0-2.16,.52-3.76,1.55-4.81s2.6-1.58,4.71-1.58,3.7,.53,4.72,1.6c1.02,1.06,1.53,2.71,1.53,4.93s-.51,3.86-1.53,4.93c-1.02,1.07-2.59,1.61-4.72,1.61s-3.73-.54-4.74-1.61c-1.01-1.08-1.52-2.76-1.52-5.05Zm6.26-4.24c-1.13,0-1.98,.35-2.54,1.06-.56,.71-.84,1.77-.84,3.2,0,1.55,.27,2.68,.81,3.4,.54,.72,1.4,1.08,2.56,1.08s2-.36,2.55-1.07c.55-.71,.83-1.81,.83-3.3s-.28-2.59-.83-3.3c-.55-.71-1.41-1.07-2.55-1.07Z"/>
          <path class="cls-2" d="M92.23,211.38h-4.06v-2.19h10.86v2.19h-4.07v10.35h-2.73v-10.35Z"/>
          <path class="cls-2" d="M102.31,209.18h2.8l5.35,12.55h-2.94l-1.15-2.99h-5.46l-1.12,2.99h-2.8l5.31-12.55Zm1.3,2.49l-1.84,4.83h3.74l-1.9-4.83Z"/>
          <path class="cls-2" d="M116.32,221.73c-1.17,0-2.04-.1-2.61-.29-.57-.2-1.08-.54-1.53-1.02-.42-.43-.71-.92-.88-1.47-.17-.55-.26-1.31-.26-2.3v-7.46h2.64v7.38c0,.73,.03,1.25,.1,1.55s.18,.54,.34,.72c.25,.3,.56,.51,.92,.63,.36,.12,.87,.19,1.51,.19h3.11v2.08h-3.34Z"/>
          <path class="cls-2" d="M132.81,221.73c-1.17,0-2.04-.1-2.61-.29-.57-.2-1.08-.54-1.53-1.02-.42-.43-.71-.92-.88-1.47-.17-.55-.26-1.31-.26-2.3v-7.46h2.64v7.38c0,.73,.03,1.25,.1,1.55s.18,.54,.34,.72c.25,.3,.56,.51,.92,.63,.36,.12,.87,.19,1.51,.19h3.11v2.08h-3.34Z"/>
          <path class="cls-2" d="M140.33,221.73h-2.76v-12.55h2.76v12.55Z"/>
          <path class="cls-2" d="M153.56,211.42h-6.52c-.7,0-1.21,.13-1.54,.39-.33,.26-.49,.68-.49,1.25,0,.46,.14,.8,.42,1.02s.69,.34,1.25,.34h3.49c1.45,0,2.47,.27,3.09,.82,.61,.55,.92,1.46,.92,2.73s-.35,2.24-1.06,2.85c-.71,.61-1.82,.91-3.33,.91h-7.03v-2.24h6.61c.75,0,1.28-.11,1.59-.33,.31-.22,.46-.58,.46-1.09s-.14-.9-.42-1.12-.76-.33-1.45-.33h-3.12c-1.45,0-2.5-.29-3.17-.87-.67-.58-1-1.49-1-2.74,0-1.33,.35-2.3,1.05-2.92,.7-.61,1.82-.92,3.35-.92h6.91v2.24Z"/>
          <path class="cls-2" d="M158.88,211.38h-4.06v-2.19h10.86v2.19h-4.07v10.35h-2.73v-10.35Z"/>
          <path class="cls-2" d="M172.14,211.37c-.96,0-1.68,.24-2.16,.72-.49,.48-.75,1.21-.81,2.19h7.3v2.19h-7.32c0,1.09,.24,1.88,.69,2.36,.46,.48,1.22,.72,2.29,.72h4.33v2.19h-4.46c-.98,0-1.76-.08-2.32-.25s-1.09-.45-1.59-.85c-.64-.51-1.12-1.18-1.45-2-.32-.82-.48-1.81-.48-2.95,0-2.22,.48-3.86,1.44-4.91,.96-1.06,2.45-1.58,4.47-1.58h4.38v2.19h-4.33Z"/>
          <path class="cls-2" d="M178.78,209.18h3.34l5.14,9.02-.13-9.02h2.7v12.55h-3.06l-5.4-9.49,.12,9.49h-2.71v-12.55Z"/>
          <path class="cls-2" d="M195.16,221.73h-2.76v-12.55h2.76v12.55Z"/>
          <path class="cls-2" d="M197.77,209.18h3.34l5.14,9.02-.13-9.02h2.7v12.55h-3.06l-5.4-9.49,.12,9.49h-2.71v-12.55Z"/>
          <path class="cls-2" d="M215.93,216.5v-2.22h6.24v7.44h-5.68c-1.05,0-1.85-.08-2.41-.26s-1.09-.45-1.58-.85c-.64-.51-1.13-1.18-1.45-2-.32-.82-.48-1.81-.48-2.95,0-2.21,.48-3.85,1.45-4.91s2.45-1.59,4.47-1.59h5.68v2.16h-5.68c-1.04,0-1.79,.34-2.27,1.01-.48,.67-.71,1.74-.71,3.21,0,1.37,.24,2.37,.71,2.98,.47,.62,1.23,.92,2.27,.92h2.97v-2.95h-3.53Z"/>
          <path class="cls-2" d="M233.86,211.38h-4.06v-2.19h10.86v2.19h-4.07v10.35h-2.73v-10.35Z"/>
          <path class="cls-2" d="M244.72,221.73h-2.76v-12.55h2.76v12.55Z"/>
          <path class="cls-2" d="M247.33,209.18h3.88l3.2,9.63,3.2-9.63h3.86v12.55h-2.59l.21-9.78-3.22,9.78h-2.8l-3.32-9.88,.26,9.88h-2.69v-12.55Z"/>
          <path class="cls-2" d="M269.23,211.37c-.96,0-1.68,.24-2.16,.72-.49,.48-.75,1.21-.81,2.19h7.3v2.19h-7.32c0,1.09,.24,1.88,.69,2.36,.46,.48,1.22,.72,2.29,.72h4.33v2.19h-4.46c-.98,0-1.76-.08-2.32-.25s-1.09-.45-1.59-.85c-.64-.51-1.12-1.18-1.45-2-.32-.82-.48-1.81-.48-2.95,0-2.22,.48-3.86,1.44-4.91,.96-1.06,2.45-1.58,4.47-1.58h4.38v2.19h-4.33Z"/>
          <path class="cls-2" d="M275.88,213.27l1.62-.95-1.62-.92,.72-1.26,1.62,.93v-1.89h1.47v1.89l1.62-.93,.72,1.26-1.62,.92,1.62,.95-.72,1.24-1.62-.92v1.89h-1.47v-1.89l-1.62,.92-.72-1.24Z"/>
        </g>
        <g class="cls-3">
          <g>
            <path class="cls-2" d="M97.15,.6V18.94c0,2.86,.52,4.86,1.55,5.99,1.03,1.13,2.82,1.7,5.34,1.7s4.31-.56,5.33-1.69c1.03-1.12,1.54-3.12,1.54-6V.6h6.44V19.1c0,2.17-.14,3.9-.43,5.19-.29,1.29-.74,2.31-1.36,3.06-1.22,1.44-2.76,2.51-4.61,3.19s-4.16,1.02-6.91,1.02-5.06-.34-6.93-1.02c-1.87-.68-3.41-1.74-4.64-3.19-.61-.74-1.06-1.73-1.33-2.98-.28-1.25-.42-3.01-.42-5.27V.6h6.42Z"/>
            <path class="cls-2" d="M123.6,.6h13.98c2.36,0,4.24,.12,5.65,.36s2.52,.63,3.35,1.16c1.39,.89,2.44,2.05,3.16,3.49,.71,1.44,1.07,3.09,1.07,4.97s-.29,3.41-.88,4.72c-.58,1.31-1.47,2.4-2.67,3.26-1,.71-2.15,1.21-3.45,1.51-1.3,.3-3.29,.45-5.97,.45h-7.81v10.71h-6.44V.6Zm13.9,5.46h-7.46V15.1h7.85c1.94,0,3.39-.37,4.33-1.11,.94-.74,1.42-1.88,1.42-3.41,0-1.64-.46-2.8-1.39-3.49-.92-.69-2.51-1.03-4.76-1.03Z"/>
            <path class="cls-2" d="M178.47,5.98h-9.9V.65h26.5V5.98h-9.94V31.23h-6.67V5.98Z"/>
            <path class="cls-2" d="M196.22,15.6c0-5.26,1.26-9.18,3.78-11.75,2.52-2.57,6.35-3.85,11.5-3.85s9.03,1.3,11.52,3.9c2.49,2.6,3.74,6.6,3.74,12.02s-1.25,9.43-3.74,12.04c-2.49,2.61-6.33,3.92-11.52,3.92s-9.1-1.31-11.57-3.94c-2.47-2.62-3.71-6.74-3.71-12.33Zm15.28-10.35c-2.76,0-4.82,.86-6.19,2.58s-2.05,4.33-2.05,7.81c0,3.78,.66,6.54,1.99,8.3,1.33,1.76,3.41,2.64,6.25,2.64s4.88-.87,6.23-2.61c1.35-1.74,2.03-4.43,2.03-8.05s-.68-6.33-2.03-8.06c-1.35-1.74-3.43-2.6-6.23-2.6Z"/>
          </g>
        </g>
      </g>
      <g>
        <circle class="cls-2" cx="90.39" cy="151.29" r="34.66"/>
        <g>
          <path class="cls-1" d="M91.56,133.18c-2.06-2.2-4.77-3.76-8.08-4.66-3.28-.89-6.28-.99-8.92-.3-2.14,.56-4.04,1.64-5.65,3.21-2.7,2.64-3.61,5.74-3.64,5.87-.15,.53,.16,1.09,.69,1.24,.53,.15,1.09-.16,1.24-.69,0-.03,.82-2.78,3.17-5.04,1.35-1.3,2.95-2.2,4.74-2.66,2.28-.59,4.92-.48,7.84,.31,2.94,.8,5.34,2.17,7.14,4.09,1.45,1.55,2.53,3.47,3.2,5.71,1.11,3.72,.77,7.33,.61,8.09-.09,.47-.6,2.15-1.78,4.25-1.02,1.81-2.83,4.42-5.69,6.58-5.81,4.39-7.29,6.35-8.41,9.09-.56,1.37-1.5,2.61-2.57,3.4-1.41,1.04-3.08,1.37-4.96,.97-1.86-.4-3.19-1.42-3.95-3.04-.86-1.84-.69-3.75-.58-4.49,.08-.55-.29-1.06-.84-1.15-.55-.08-1.06,.29-1.15,.84-.3,1.94-.03,4,.75,5.65,1.03,2.19,2.88,3.62,5.35,4.15,.65,.14,1.29,.21,1.92,.21,1.7,0,3.28-.51,4.65-1.52,1.86-1.37,2.83-3.26,3.24-4.26,.85-2.08,1.85-3.78,7.76-8.24,2.52-1.9,4.62-4.32,6.23-7.2,1.27-2.25,1.86-4.15,2-4.84,.21-1.07,.55-5.02-.66-9.06-.76-2.54-1.99-4.73-3.66-6.51Z"/>
          <path class="cls-1" d="M70.66,152.13c-.86,.87-1.75,1.76-2.4,2.84-.89,1.48-.74,2.68-.46,3.43,.34,.91,1.05,1.69,2.12,2.34,.73,.44,1.37,.65,1.44,.68,.1,.03,.21,.05,.31,.05,.42,0,.82-.27,.96-.69,.17-.53-.12-1.09-.64-1.27-.52-.17-1.94-.83-2.3-1.81-.18-.49-.08-1.04,.31-1.68,.52-.87,1.33-1.68,2.1-2.46,1.09-1.1,2.22-2.24,2.69-3.66,.34-1.03,.3-2.08-.13-3.18,2.59,.09,4.33,.97,5.07,2.58,.41,.9,.5,2.02,.26,3.17-.21,1.02-.67,1.95-1.22,2.49-.39,.39-.4,1.03,0,1.42,.2,.2,.45,.3,.71,.3s.51-.1,.71-.29c.83-.82,1.47-2.1,1.77-3.51,.33-1.56,.19-3.13-.4-4.42-.59-1.3-1.59-2.28-2.96-2.92-1.36-.64-3.08-.92-5.11-.83-.03-.04-.06-.08-.09-.12-.7-.88-1.07-1.82-1.1-2.8-.03-.88,.22-1.79,.72-2.61,.63-1.04,1.63-1.9,2.82-2.44,1.26-.57,2.63-.74,3.96-.47,1.46,.29,2.97,1.01,4.26,2.03,1.39,1.1,2.45,2.49,3.05,4,1.19,2.96,.6,6.25-1.68,9.5-.32,.45-.21,1.08,.24,1.4,.45,.32,1.08,.21,1.4-.24,1.4-1.99,2.26-4.03,2.54-6.05,.26-1.84,.04-3.64-.64-5.35-.74-1.84-2-3.51-3.67-4.83-1.53-1.22-3.35-2.08-5.12-2.43-1.74-.35-3.53-.14-5.18,.61-1.54,.7-2.86,1.84-3.7,3.22-.71,1.17-1.07,2.46-1.02,3.74,.05,1.41,.57,2.75,1.54,3.97,1.39,1.76,1.28,2.8,1.07,3.43-.32,.97-1.24,1.9-2.21,2.87Z"/>
          <path class="cls-1" d="M101.78,145.67c-.43,.35-.49,.99-.13,1.41,.98,1.18,1.51,2.68,1.51,4.21s-.54,3.03-1.51,4.21c-.35,.43-.29,1.06,.13,1.41,.19,.15,.41,.23,.64,.23,.29,0,.58-.12,.77-.36,1.27-1.54,1.97-3.49,1.97-5.49s-.7-3.95-1.97-5.49c-.35-.43-.99-.49-1.41-.13Z"/>
          <path class="cls-1" d="M107.35,141.69c-.37-.41-1-.45-1.42-.08-.41,.37-.45,1-.08,1.42,2.03,2.28,3.15,5.21,3.15,8.27s-1.12,5.99-3.15,8.27c-.37,.41-.33,1.05,.08,1.42,.19,.17,.43,.25,.67,.25,.28,0,.55-.11,.75-.34,2.36-2.65,3.65-6.06,3.65-9.61s-1.3-6.96-3.65-9.61Z"/>
          <path class="cls-1" d="M111.69,137.67c-.17-.19-.35-.38-.53-.56-.39-.4-1.02-.41-1.42-.02-.4,.39-.41,1.02-.02,1.42,.16,.17,.32,.34,.47,.51,3.04,3.37,4.71,7.74,4.71,12.28s-1.67,8.91-4.71,12.28c-.15,.17-.31,.34-.47,.51-.39,.4-.38,1.03,.02,1.42,.2,.19,.45,.28,.7,.28s.52-.1,.72-.3c.18-.18,.35-.37,.53-.56,3.37-3.74,5.23-8.58,5.23-13.63s-1.86-9.88-5.23-13.63Z"/>
        </g>
      </g>
    </g>
  </g>
</svg>