<?xml version="1.0" encoding="UTF-8"?>
<svg id="Layer_2" data-name="Layer 2" xmlns="http://www.w3.org/2000/svg" viewBox="0 0 396.89 175.01">
  <defs>
    <style>
      .cls-1 {
        fill: #fff;
      }

      .cls-2 {
        fill: #b43b2f;
      }

      .cls-3 {
        opacity: .6;
      }
    </style>
  </defs>
  <g id="Layer_1-2" data-name="Layer 1">
    <g>
      <g class="cls-3">
        <path class="cls-1" d="M48.21,9.15H21.52c-2.87,0-4.97,.54-6.31,1.61-1.34,1.07-2.01,2.77-2.01,5.1,0,1.86,.57,3.26,1.71,4.19,1.14,.93,2.84,1.4,5.1,1.4h14.29c5.92,0,10.13,1.12,12.63,3.35,2.5,2.24,3.76,5.96,3.76,11.18s-1.44,9.17-4.33,11.65c-2.89,2.48-7.43,3.72-13.63,3.72H3.97v-9.15H31.02c3.07,0,5.24-.45,6.5-1.35,1.26-.9,1.89-2.38,1.89-4.46s-.58-3.67-1.73-4.58c-1.15-.91-3.13-1.36-5.92-1.36h-12.75c-5.92,0-10.24-1.18-12.98-3.55S1.91,20.83,1.91,15.72C1.91,10.27,3.35,6.29,6.23,3.77,9.1,1.26,13.68,0,19.94,0h28.27V9.15Z"/>
        <path class="cls-1" d="M79.96,8.94c-3.91,0-6.86,.98-8.85,2.94-1.99,1.96-3.09,4.95-3.3,8.98l29.88,.04v8.95h-29.94c.02,4.47,.97,7.69,2.84,9.64,1.87,1.96,5,2.93,9.37,2.93h17.73v8.95h-18.25c-4.03,0-7.19-.34-9.5-1.03-2.31-.69-4.47-1.85-6.5-3.48-2.63-2.1-4.6-4.83-5.92-8.19-1.32-3.37-1.97-7.39-1.97-12.07,0-9.08,1.97-15.79,5.9-20.11,3.93-4.32,10.03-6.48,18.3-6.48h17.94V8.94h-17.73Z"/>
        <path class="cls-1" d="M107.16,0h13.66l21.03,36.9-.52-36.9h11.04V51.36h-12.54L117.74,12.51l.49,38.85h-11.08V0Z"/>
        <path class="cls-1" d="M206.25,9.15h-26.69c-2.87,0-4.97,.54-6.31,1.61-1.34,1.07-2.01,2.77-2.01,5.1,0,1.86,.57,3.26,1.71,4.19,1.14,.93,2.84,1.4,5.1,1.4h14.29c5.92,0,10.13,1.12,12.63,3.35,2.5,2.24,3.76,5.96,3.76,11.18s-1.44,9.17-4.33,11.65c-2.89,2.48-7.43,3.72-13.63,3.72h-28.76v-9.15h27.04c3.07,0,5.24-.45,6.5-1.35,1.26-.9,1.89-2.38,1.89-4.46s-.58-3.67-1.73-4.58c-1.15-.91-3.13-1.36-5.92-1.36h-12.75c-5.92,0-10.24-1.18-12.98-3.55s-4.11-6.1-4.11-11.2c0-5.45,1.44-9.43,4.32-11.95,2.88-2.52,7.45-3.77,13.71-3.77h28.27V9.15Z"/>
        <path class="cls-1" d="M228.19,51.36h-11.29V0h11.29V51.36Z"/>
        <path class="cls-1" d="M250.1,9.01h-16.6V.07h44.44V9.01h-16.67V51.36h-11.18V9.01Z"/>
        <path class="cls-1" d="M294.54,51.36h-11.29V0h11.29V51.36Z"/>
        <path class="cls-1" d="M320.02,51.36L297.62,0h12.26l15.44,38.26L341.16,0h11.5l-21.45,51.36h-11.18Z"/>
        <path class="cls-1" d="M376.57,8.94c-3.91,0-6.86,.98-8.85,2.94-1.99,1.96-3.09,4.95-3.3,8.98l29.88,.04v8.95h-29.94c.02,4.47,.97,7.69,2.84,9.64,1.87,1.96,5,2.93,9.37,2.93h17.73v8.95h-18.25c-4.03,0-7.19-.34-9.5-1.03-2.31-.69-4.47-1.85-6.5-3.48-2.63-2.1-4.6-4.83-5.92-8.19-1.32-3.37-1.97-7.39-1.97-12.07,0-9.08,1.97-15.79,5.9-20.11,3.93-4.32,10.03-6.48,18.3-6.48h17.94V8.94h-17.73Z"/>
      </g>
      <g class="cls-3">
        <path class="cls-1" d="M26.54,80.24H0v-14.3H71.06v14.3h-26.65v67.71H26.54V80.24Z"/>
        <path class="cls-1" d="M74.14,106.05c0-14.12,3.38-24.62,10.13-31.51,6.75-6.89,17.04-10.33,30.85-10.33s24.22,3.48,30.9,10.45c6.68,6.96,10.02,17.71,10.02,32.24s-3.34,25.29-10.02,32.29c-6.68,7-16.98,10.5-30.9,10.5s-24.42-3.52-31.04-10.56c-6.63-7.04-9.94-18.06-9.94-33.07Zm40.98-27.77c-7.4,0-12.94,2.31-16.6,6.93-3.66,4.62-5.5,11.6-5.5,20.95,0,10.13,1.78,17.55,5.33,22.26,3.55,4.71,9.14,7.07,16.77,7.07s13.08-2.34,16.71-7.01c3.63-4.67,5.44-11.87,5.44-21.59s-1.81-16.96-5.44-21.62c-3.63-4.66-9.2-6.98-16.71-6.98Z"/>
        <path class="cls-1" d="M184.81,65.83v49.16c0,7.67,1.39,13.03,4.16,16.06,2.77,3.04,7.55,4.55,14.33,4.55s11.55-1.51,14.3-4.53c2.76-3.02,4.13-8.38,4.13-16.09v-49.16h17.26v49.61c0,5.81-.38,10.45-1.15,13.91-.76,3.46-1.98,6.2-3.66,8.21-3.28,3.87-7.4,6.72-12.38,8.55-4.97,1.83-11.15,2.74-18.52,2.74s-13.57-.91-18.58-2.74c-5.01-1.82-9.15-4.67-12.43-8.55-1.64-1.97-2.83-4.64-3.58-7.99-.75-3.35-1.12-8.06-1.12-14.13v-49.61h17.21Z"/>
        <path class="cls-1" d="M289.62,79.85c-7.15,0-12.3,2.27-15.45,6.82-3.15,4.54-4.72,12.01-4.72,22.4,0,9.01,1.51,15.36,4.53,19.05,3.02,3.69,8.23,5.53,15.64,5.53h28.38v14.3h-29.22c-6.44,0-11.51-.55-15.2-1.65-3.69-1.1-7.15-2.95-10.39-5.56-4.21-3.35-7.37-7.72-9.47-13.1-2.1-5.38-3.16-11.82-3.16-19.3,0-14.53,3.15-25.24,9.44-32.15,6.29-6.91,16.05-10.36,29.27-10.36h28.72v14.02h-28.38Z"/>
        <path class="cls-1" d="M347.95,65.83v33.3h31.68v-33.3h17.26v82.13h-17.26v-34.3h-31.68v34.3h-17.26V65.83h17.26Z"/>
      </g>
      <circle class="cls-1" cx="115.9" cy="106.67" r="44.99"/>
      <g>
        <path class="cls-2" d="M134.99,101.81c-.82,0-1.6,.2-2.29,.54v-.32c0-2.96-2.4-5.36-5.36-5.36-.82,0-1.59,.2-2.29,.54v-.24c0-2.96-2.4-5.36-5.36-5.36-.82,0-1.59,.2-2.29,.54v-3.02c0-2.96-2.4-5.36-5.36-5.36s-5.36,2.4-5.36,5.36v18.61c-.7-.33-1.47-.54-2.29-.54-2.96,0-5.36,2.4-5.36,5.36v11.63s0,0,0,.01c0,0,0,.01,0,.02v.83c0,.14,.03,.28,.06,.41,.66,10.81,9.63,19.41,20.61,19.41s20.67-9.27,20.67-20.67v-17.03c0-2.96-2.4-5.36-5.36-5.36Zm-15.31,40c-9.7,0-17.59-7.88-17.6-17.58v-11.66c0-1.26,1.03-2.29,2.29-2.29s2.29,1.03,2.29,2.29v7.18c0,.85,.69,1.53,1.53,1.53s1.53-.69,1.53-1.53v-30.62c0-1.26,1.03-2.29,2.29-2.29s2.29,1.03,2.29,2.29v22.92c0,.85,.69,1.53,1.53,1.53s1.53-.69,1.53-1.53v-15.08c0-1.26,1.03-2.29,2.29-2.29s2.29,1.03,2.29,2.29v18.12c0,.85,.69,1.53,1.53,1.53s1.53-.69,1.53-1.53v-13.06c0-1.26,1.03-2.29,2.29-2.29s2.29,1.03,2.29,2.29v16.85c0,.85,.69,1.53,1.53,1.53s1.53-.69,1.53-1.53v-11.7c0-1.26,1.03-2.29,2.29-2.29s2.29,1.03,2.29,2.29v17.03c0,9.71-7.9,17.6-17.6,17.6Z"/>
        <path class="cls-2" d="M112.02,78.66c.82,0,1.49-.67,1.49-1.49v-7.22c0-.82-.67-1.49-1.49-1.49s-1.49,.67-1.49,1.49v7.22c0,.82,.67,1.49,1.49,1.49Z"/>
        <path class="cls-2" d="M101.64,89.04c0-.82-.67-1.49-1.49-1.49h-7.22c-.82,0-1.49,.67-1.49,1.49s.67,1.49,1.49,1.49h7.22c.82,0,1.49-.67,1.49-1.49Z"/>
        <path class="cls-2" d="M102.04,81.64c.28,.28,.65,.43,1.05,.43s.77-.15,1.05-.44c.58-.58,.58-1.52,0-2.1l-5.1-5.1c-.56-.56-1.54-.56-2.1,0-.58,.58-.58,1.52,0,2.1l5.1,5.1Z"/>
        <path class="cls-2" d="M120.11,82.08c.4,0,.77-.15,1.05-.44l5.1-5.1c.28-.28,.44-.65,.44-1.05,0-.4-.16-.77-.44-1.05-.56-.56-1.54-.56-2.1,0l-5.1,5.1c-.28,.28-.44,.65-.44,1.05s.15,.77,.44,1.05c.28,.28,.65,.44,1.05,.44Z"/>
        <path class="cls-2" d="M122.24,89.04c0,.82,.67,1.49,1.49,1.49h7.22c.82,0,1.49-.67,1.49-1.49s-.67-1.49-1.49-1.49h-7.22c-.82,0-1.49,.67-1.49,1.49Z"/>
      </g>
      <g>
        <path class="cls-1" d="M4.22,164.4H.09v-2.19H11.15v2.19H7v10.35h-2.78v-10.35Z"/>
        <path class="cls-1" d="M11.63,168.35c0-2.16,.53-3.76,1.58-4.81s2.65-1.58,4.8-1.58,3.77,.53,4.81,1.6c1.04,1.06,1.56,2.71,1.56,4.93s-.52,3.86-1.56,4.93c-1.04,1.07-2.64,1.61-4.81,1.61s-3.8-.54-4.83-1.61c-1.03-1.08-1.55-2.76-1.55-5.05Zm6.37-4.24c-1.15,0-2.01,.35-2.58,1.06-.57,.71-.85,1.77-.85,3.2,0,1.55,.28,2.68,.83,3.4,.55,.72,1.42,1.08,2.61,1.08s2.04-.36,2.6-1.07c.56-.71,.85-1.81,.85-3.3s-.28-2.59-.85-3.3c-.56-.71-1.43-1.07-2.6-1.07Z"/>
        <path class="cls-1" d="M33.1,162.2h5.83c.98,0,1.77,.05,2.36,.15,.58,.1,1.05,.26,1.4,.47,.58,.36,1.02,.84,1.32,1.43,.3,.59,.45,1.27,.45,2.04s-.12,1.4-.37,1.93c-.24,.54-.61,.98-1.11,1.34-.42,.29-.9,.5-1.44,.62-.54,.12-1.37,.18-2.49,.18h-3.26v4.39h-2.69v-12.55Zm5.8,2.24h-3.11v3.71h3.28c.81,0,1.41-.15,1.81-.46s.59-.77,.59-1.4c0-.67-.19-1.15-.58-1.43-.39-.28-1.05-.42-1.99-.42Z"/>
        <path class="cls-1" d="M51.38,174.75c-1.19,0-2.08-.1-2.66-.29-.58-.2-1.1-.54-1.56-1.02-.42-.43-.72-.92-.9-1.47-.17-.55-.26-1.31-.26-2.3v-7.46h2.69v7.38c0,.73,.03,1.25,.1,1.55,.07,.3,.18,.54,.34,.72,.25,.3,.57,.51,.94,.63,.37,.12,.88,.19,1.54,.19h3.16v2.08h-3.4Z"/>
        <path class="cls-1" d="M60.2,162.2h2.85l5.45,12.55h-2.99l-1.17-2.99h-5.55l-1.14,2.99h-2.85l5.41-12.55Zm1.32,2.49l-1.87,4.83h3.81l-1.94-4.83Z"/>
        <path class="cls-1" d="M66.3,162.2h3.02l3.15,4.79,3.2-4.79h3.12l-4.94,7.01v5.54h-2.69v-5.54l-4.88-7.01Z"/>
        <path class="cls-1" d="M89.94,162.2h2.85l5.45,12.55h-2.99l-1.17-2.99h-5.55l-1.14,2.99h-2.85l5.41-12.55Zm1.32,2.49l-1.87,4.83h3.81l-1.94-4.83Z"/>
        <path class="cls-1" d="M99.14,162.2h3.4l5.23,9.02-.13-9.02h2.75v12.55h-3.12l-5.49-9.49,.12,9.49h-2.75v-12.55Z"/>
        <path class="cls-1" d="M112.98,162.2h5.85c2.06,0,3.57,.53,4.55,1.58,.98,1.06,1.47,2.69,1.47,4.91,0,1.14-.16,2.13-.49,2.95-.33,.82-.82,1.49-1.47,2-.5,.4-1.04,.68-1.62,.85s-1.36,.25-2.36,.25h-5.93v-12.55Zm5.8,2.19h-3.11v8.18h3.11c1.19,0,2.01-.29,2.46-.88,.45-.59,.68-1.66,.68-3.21s-.23-2.62-.68-3.21-1.27-.88-2.46-.88Z"/>
        <path class="cls-1" d="M133.6,162.2h5.83c.98,0,1.77,.05,2.36,.15,.58,.1,1.05,.26,1.4,.47,.58,.36,1.02,.84,1.32,1.43,.3,.59,.45,1.27,.45,2.04s-.12,1.4-.37,1.93c-.24,.54-.61,.98-1.11,1.34-.42,.29-.9,.5-1.44,.62-.54,.12-1.37,.18-2.49,.18h-3.26v4.39h-2.69v-12.55Zm5.8,2.24h-3.11v3.71h3.28c.81,0,1.41-.15,1.81-.46s.59-.77,.59-1.4c0-.67-.19-1.15-.58-1.43-.39-.28-1.05-.42-1.99-.42Z"/>
        <path class="cls-1" d="M149.33,162.2h2.85l5.45,12.55h-2.99l-1.17-2.99h-5.55l-1.14,2.99h-2.85l5.41-12.55Zm1.32,2.49l-1.87,4.83h3.81l-1.94-4.83Z"/>
        <path class="cls-1" d="M160.85,162.2v7.51c0,1.17,.22,1.99,.65,2.46s1.17,.7,2.23,.7,1.8-.23,2.23-.69,.64-1.28,.64-2.46v-7.51h2.69v7.58c0,.89-.06,1.6-.18,2.13s-.31,.95-.57,1.25c-.51,.59-1.15,1.03-1.92,1.31-.77,.28-1.73,.42-2.88,.42s-2.11-.14-2.89-.42c-.78-.28-1.42-.71-1.93-1.31-.26-.3-.44-.71-.56-1.22-.12-.51-.17-1.23-.17-2.16v-7.58h2.68Z"/>
        <path class="cls-1" d="M182.69,164.44h-6.64c-.71,0-1.24,.13-1.57,.39-.33,.26-.5,.68-.5,1.25,0,.46,.14,.8,.43,1.02,.28,.23,.71,.34,1.27,.34h3.55c1.47,0,2.52,.27,3.14,.82,.62,.55,.93,1.46,.93,2.73s-.36,2.24-1.08,2.85c-.72,.61-1.85,.91-3.39,.91h-7.15v-2.24h6.73c.76,0,1.3-.11,1.62-.33,.31-.22,.47-.58,.47-1.09s-.14-.9-.43-1.12c-.29-.22-.78-.33-1.47-.33h-3.17c-1.47,0-2.55-.29-3.23-.87-.68-.58-1.02-1.49-1.02-2.74,0-1.33,.36-2.3,1.07-2.92,.72-.61,1.85-.92,3.41-.92h7.03v2.24Z"/>
        <path class="cls-1" d="M190.58,164.39c-.97,0-1.71,.24-2.2,.72-.5,.48-.77,1.21-.82,2.19h7.43v2.19h-7.45c0,1.09,.24,1.88,.71,2.36,.47,.48,1.24,.72,2.33,.72h4.41v2.19h-4.54c-1,0-1.79-.08-2.36-.25s-1.11-.45-1.62-.85c-.65-.51-1.15-1.18-1.47-2s-.49-1.81-.49-2.95c0-2.22,.49-3.86,1.47-4.91s2.5-1.58,4.55-1.58h4.46v2.19h-4.41Z"/>
      </g>
    </g>
  </g>
</svg>