<?xml version="1.0" encoding="UTF-8"?>
<svg id="Layer_2" data-name="Layer 2" xmlns="http://www.w3.org/2000/svg" viewBox="0 0 456.69 225.52">
  <defs>
    <style>
      .cls-1 {
        fill: #f06669;
      }

      .cls-2 {
        fill: #fff;
      }

      .cls-3 {
        opacity: .6;
      }
    </style>
  </defs>
  <g id="Layer_1-2" data-name="Layer 1">
    <g>
      <g class="cls-3">
        <path class="cls-2" d="M73.12,13.17H34.73c-4.12,0-7.15,.77-9.07,2.31-1.93,1.54-2.89,3.99-2.89,7.34,0,2.68,.82,4.69,2.46,6.03,1.64,1.34,4.09,2.01,7.34,2.01h20.56c8.51,0,14.57,1.61,18.17,4.82,3.6,3.22,5.4,8.58,5.4,16.08s-2.08,13.19-6.23,16.76c-4.15,3.57-10.69,5.35-19.6,5.35H9.5v-13.17H48.4c4.42,0,7.54-.64,9.35-1.93,1.81-1.29,2.71-3.43,2.71-6.41s-.83-5.28-2.49-6.58c-1.66-1.31-4.5-1.96-8.52-1.96H31.11c-8.51,0-14.73-1.7-18.67-5.1-3.94-3.4-5.91-8.77-5.91-16.11,0-7.84,2.07-13.57,6.21-17.19C16.88,1.81,23.45,0,32.47,0h40.66V13.17Z"/>
        <path class="cls-2" d="M88.35,0h33.72c5.7,0,10.24,.29,13.62,.88,3.38,.59,6.08,1.52,8.09,2.79,3.35,2.14,5.89,4.95,7.61,8.42,1.73,3.47,2.59,7.46,2.59,11.99s-.7,8.22-2.11,11.38c-1.41,3.17-3.55,5.79-6.43,7.87-2.41,1.71-5.19,2.92-8.32,3.64s-7.93,1.08-14.4,1.08h-18.85v25.83h-15.53V0Zm33.52,13.17h-17.99v21.81h18.95c4.69,0,8.17-.9,10.45-2.69,2.28-1.79,3.42-4.53,3.42-8.22,0-3.95-1.11-6.76-3.34-8.42-2.23-1.66-6.06-2.49-11.48-2.49Z"/>
        <path class="cls-2" d="M195.18,12.87c-5.62,0-9.86,1.41-12.73,4.22-2.86,2.81-4.44,7.12-4.74,12.92l42.97,.05v12.87h-43.07c.03,6.43,1.4,11.06,4.09,13.87,2.69,2.81,7.19,4.22,13.48,4.22h25.5v12.87h-26.25c-5.79,0-10.35-.49-13.66-1.48-3.32-.99-6.43-2.66-9.34-5-3.78-3.02-6.62-6.94-8.51-11.79-1.89-4.84-2.84-10.63-2.84-17.36,0-13.07,2.83-22.71,8.49-28.92,5.66-6.21,14.43-9.32,26.32-9.32h25.8V12.87h-25.5Z"/>
        <path class="cls-2" d="M264.76,12.62c-6.43,0-11.07,2.04-13.9,6.13-2.83,4.09-4.25,10.8-4.25,20.15,0,8.11,1.36,13.82,4.07,17.14,2.71,3.32,7.4,4.98,14.07,4.98h25.53v12.87h-26.29c-5.8,0-10.35-.49-13.67-1.48-3.32-.99-6.43-2.66-9.35-5-3.79-3.02-6.63-6.94-8.52-11.79-1.89-4.84-2.84-10.63-2.84-17.36,0-13.07,2.83-22.71,8.49-28.92,5.66-6.21,14.44-9.32,26.33-9.32h25.83V12.62h-25.53Z"/>
        <path class="cls-2" d="M318.03,73.88h-16.23V0h16.23V73.88Z"/>
        <path class="cls-2" d="M354.57,0h16.48l31.51,73.88h-17.29l-6.79-17.59h-32.11l-6.58,17.59h-16.48L354.57,0Zm7.64,14.68l-10.81,28.45h22.01l-11.21-28.45Z"/>
        <path class="cls-2" d="M437.04,73.88c-6.9,0-12.03-.58-15.38-1.73-3.35-1.16-6.35-3.16-9-6.01-2.45-2.55-4.17-5.43-5.18-8.64-1.01-3.22-1.51-7.74-1.51-13.57V0h15.53V43.42c0,4.32,.19,7.36,.58,9.12,.38,1.76,1.05,3.17,1.99,4.25,1.47,1.74,3.28,2.98,5.43,3.72,2.14,.74,5.11,1.11,8.9,1.11h18.29v12.26h-19.65Z"/>
      </g>
      <g class="cls-3">
        <path class="cls-2" d="M40.92,104.35c-6.29,0-10.83,2-13.6,6-2.77,4-4.16,10.57-4.16,19.72,0,7.93,1.33,13.52,3.98,16.77,2.66,3.25,7.25,4.87,13.77,4.87h24.98v12.59h-25.72c-5.67,0-10.13-.48-13.38-1.45-3.25-.97-6.29-2.6-9.15-4.89-3.71-2.95-6.48-6.79-8.34-11.53-1.85-4.74-2.78-10.4-2.78-16.99,0-12.79,2.77-22.22,8.31-28.3,5.54-6.08,14.13-9.12,25.77-9.12h25.28v12.34h-24.98Z"/>
        <path class="cls-2" d="M92.26,92v29.31h27.88v-29.31h15.2v72.29h-15.2v-30.19h-27.88v30.19h-15.2V92h15.2Z"/>
        <path class="cls-2" d="M166.27,164.29h-15.88V92h15.88v72.29Z"/>
        <path class="cls-2" d="M181.32,92h33c5.57,0,10.02,.29,13.33,.86,3.31,.57,5.95,1.48,7.92,2.73,3.28,2.1,5.76,4.84,7.45,8.24,1.69,3.39,2.53,7.3,2.53,11.73s-.69,8.04-2.07,11.14-3.48,5.66-6.29,7.7c-2.36,1.67-5.07,2.86-8.14,3.57-3.07,.71-7.76,1.06-14.09,1.06h-18.44v25.28h-15.2V92Zm32.8,12.88h-17.61v21.34h18.54c4.59,0,8-.88,10.23-2.63,2.23-1.75,3.34-4.43,3.34-8.04,0-3.87-1.09-6.61-3.27-8.24-2.18-1.62-5.93-2.43-11.24-2.43Z"/>
        <path class="cls-2" d="M317.19,104.89h-37.57c-4.03,0-6.99,.75-8.88,2.26-1.89,1.51-2.83,3.9-2.83,7.18,0,2.62,.8,4.59,2.41,5.9,1.61,1.31,4,1.97,7.18,1.97h20.11c8.33,0,14.25,1.57,17.78,4.72,3.52,3.15,5.29,8.39,5.29,15.74s-2.03,12.91-6.1,16.4c-4.07,3.49-10.46,5.24-19.18,5.24h-40.47v-12.88h38.06c4.33,0,7.38-.63,9.15-1.89,1.77-1.26,2.66-3.35,2.66-6.27s-.81-5.16-2.43-6.44c-1.62-1.28-4.4-1.92-8.34-1.92h-17.95c-8.33,0-14.42-1.66-18.27-4.99-3.85-3.33-5.78-8.58-5.78-15.76,0-7.67,2.02-13.28,6.07-16.82,4.05-3.54,10.48-5.31,19.3-5.31h39.78v12.88Z"/>
        <path class="cls-2" d="M361.88,104.59c-5.5,0-9.65,1.38-12.45,4.13-2.8,2.75-4.35,6.97-4.64,12.64l42.05,.05v12.59h-42.14c.03,6.29,1.37,10.82,4,13.57,2.64,2.75,7.03,4.13,13.19,4.13h24.95v12.59h-25.69c-5.67,0-10.12-.48-13.37-1.45-3.24-.97-6.29-2.6-9.14-4.89-3.7-2.95-6.48-6.79-8.33-11.53-1.85-4.74-2.78-10.4-2.78-16.99,0-12.79,2.77-22.22,8.31-28.3,5.54-6.08,14.12-9.12,25.75-9.12h25.25v12.59h-24.95Z"/>
        <path class="cls-2" d="M415.94,104.69h-23.36v-12.59h62.55v12.59h-23.46v59.6h-15.74v-59.6Z"/>
      </g>
      <g>
        <path class="cls-2" d="M9.05,201c0-1.6,.1-2.77,.3-3.52,.2-.75,.53-1.36,1.01-1.83,.49-.48,1.14-.84,1.95-1.08,.81-.23,1.82-.35,3.03-.35h4.09v2.19h-4.32c-1.16,0-2.01,.24-2.54,.72-.53,.48-.8,1.26-.82,2.33h7.68v2.18h-7.68v5.14h-2.69v-5.77Z"/>
        <path class="cls-2" d="M20.39,200.36c0-2.16,.53-3.76,1.58-4.81s2.65-1.58,4.8-1.58,3.77,.53,4.81,1.6c1.04,1.06,1.56,2.71,1.56,4.93s-.52,3.86-1.56,4.93c-1.04,1.07-2.64,1.61-4.81,1.61s-3.8-.54-4.83-1.61c-1.03-1.08-1.55-2.76-1.55-5.05Zm6.37-4.24c-1.15,0-2.01,.35-2.58,1.06-.57,.71-.85,1.77-.85,3.2,0,1.55,.28,2.68,.83,3.4,.55,.72,1.42,1.08,2.61,1.08s2.04-.36,2.6-1.07c.56-.71,.85-1.81,.85-3.3s-.28-2.59-.85-3.3c-.56-.71-1.43-1.07-2.6-1.07Z"/>
        <path class="cls-2" d="M34.97,194.22h6.61c1.54,0,2.67,.3,3.39,.91,.72,.61,1.08,1.56,1.08,2.86,0,.96-.22,1.75-.67,2.36s-1.08,1-1.92,1.18l3.19,5.24h-3.02l-2.82-4.93h-3.16v4.93h-2.69v-12.55Zm5.98,2.24h-3.29v3.16h3.29c.89,0,1.51-.12,1.86-.36s.52-.65,.52-1.23-.17-.98-.51-1.22c-.34-.24-.96-.35-1.87-.35Z"/>
        <path class="cls-2" d="M55.22,194.22h6.61c1.54,0,2.67,.3,3.39,.91,.72,.61,1.08,1.56,1.08,2.86,0,.96-.22,1.75-.67,2.36s-1.08,1-1.92,1.18l3.19,5.24h-3.02l-2.82-4.93h-3.16v4.93h-2.69v-12.55Zm5.98,2.24h-3.29v3.16h3.29c.89,0,1.51-.12,1.86-.36s.52-.65,.52-1.23-.17-.98-.51-1.22c-.34-.24-.96-.35-1.87-.35Z"/>
        <path class="cls-2" d="M73.83,196.4c-.97,0-1.71,.24-2.2,.72-.5,.48-.77,1.21-.82,2.19h7.43v2.19h-7.45c0,1.09,.24,1.88,.71,2.36,.47,.48,1.24,.72,2.33,.72h4.41v2.19h-4.54c-1,0-1.79-.08-2.36-.25s-1.11-.45-1.62-.85c-.65-.51-1.15-1.18-1.47-2s-.49-1.81-.49-2.95c0-2.22,.49-3.86,1.47-4.91s2.5-1.58,4.55-1.58h4.46v2.19h-4.41Z"/>
        <path class="cls-2" d="M80.59,194.22h3.4l5.23,9.02-.13-9.02h2.75v12.55h-3.12l-5.49-9.49,.12,9.49h-2.76v-12.55Z"/>
        <path class="cls-2" d="M94.44,194.22h5.85c2.06,0,3.58,.53,4.55,1.58s1.47,2.69,1.47,4.91c0,1.14-.16,2.13-.49,2.95-.33,.82-.82,1.49-1.47,2-.5,.4-1.04,.68-1.62,.85s-1.36,.25-2.36,.25h-5.93v-12.55Zm5.8,2.19h-3.11v8.18h3.11c1.19,0,2.01-.29,2.46-.88,.45-.59,.68-1.66,.68-3.21s-.23-2.62-.68-3.21c-.45-.59-1.27-.88-2.46-.88Z"/>
        <path class="cls-2" d="M113.43,196.4c-.97,0-1.71,.24-2.2,.72-.5,.48-.77,1.21-.82,2.19h7.43v2.19h-7.45c0,1.09,.24,1.88,.71,2.36,.47,.48,1.24,.72,2.33,.72h4.41v2.19h-4.54c-1,0-1.79-.08-2.36-.25s-1.11-.45-1.62-.85c-.65-.51-1.15-1.18-1.47-2s-.49-1.81-.49-2.95c0-2.22,.49-3.86,1.47-4.91s2.5-1.58,4.55-1.58h4.46v2.19h-4.41Z"/>
        <path class="cls-2" d="M120.19,194.22h6.61c1.54,0,2.67,.3,3.39,.91,.72,.61,1.08,1.56,1.08,2.86,0,.96-.22,1.75-.67,2.36s-1.08,1-1.92,1.18l3.19,5.24h-3.02l-2.82-4.93h-3.16v4.93h-2.69v-12.55Zm5.98,2.24h-3.29v3.16h3.29c.89,0,1.51-.12,1.86-.36s.52-.65,.52-1.23-.17-.98-.51-1.22c-.34-.24-.96-.35-1.87-.35Z"/>
        <path class="cls-2" d="M136.36,206.77h-2.81v-12.55h2.81v12.55Z"/>
        <path class="cls-2" d="M139.02,194.22h3.4l5.23,9.02-.13-9.02h2.75v12.55h-3.12l-5.49-9.49,.12,9.49h-2.76v-12.55Z"/>
        <path class="cls-2" d="M157.51,201.54v-2.22h6.35v7.44h-5.78c-1.07,0-1.88-.08-2.46-.26-.57-.17-1.11-.45-1.6-.85-.65-.51-1.15-1.18-1.47-2-.33-.82-.49-1.81-.49-2.95,0-2.21,.49-3.85,1.47-4.91s2.5-1.59,4.55-1.59h5.78v2.16h-5.78c-1.05,0-1.82,.34-2.31,1.01-.48,.67-.73,1.74-.73,3.21,0,1.37,.24,2.37,.72,2.98,.48,.62,1.25,.92,2.31,.92h3.02v-2.95h-3.6Z"/>
        <path class="cls-2" d="M172.97,194.22h3.95l3.26,9.63,3.26-9.63h3.93v12.55h-2.63l.22-9.78-3.28,9.78h-2.85l-3.38-9.88,.27,9.88h-2.74v-12.55Z"/>
        <path class="cls-2" d="M192.64,194.22v7.51c0,1.17,.22,1.99,.65,2.46s1.17,.7,2.23,.7,1.8-.23,2.23-.69,.64-1.28,.64-2.46v-7.51h2.69v7.58c0,.89-.06,1.6-.18,2.13s-.31,.95-.57,1.25c-.51,.59-1.15,1.03-1.92,1.31-.77,.28-1.73,.42-2.88,.42s-2.11-.14-2.89-.42c-.78-.28-1.42-.71-1.93-1.31-.26-.3-.44-.71-.56-1.22-.12-.51-.17-1.23-.17-2.16v-7.58h2.68Z"/>
        <path class="cls-2" d="M214.48,196.46h-6.64c-.71,0-1.24,.13-1.57,.39-.33,.26-.5,.68-.5,1.25,0,.46,.14,.8,.43,1.02,.28,.23,.71,.34,1.27,.34h3.55c1.47,0,2.52,.27,3.14,.82,.62,.55,.93,1.46,.93,2.73s-.36,2.24-1.08,2.85c-.72,.61-1.85,.91-3.39,.91h-7.15v-2.24h6.73c.76,0,1.3-.11,1.62-.33,.31-.22,.47-.58,.47-1.09s-.14-.9-.43-1.12c-.29-.22-.78-.33-1.47-.33h-3.17c-1.47,0-2.55-.29-3.23-.87-.68-.58-1.02-1.49-1.02-2.74,0-1.33,.36-2.3,1.07-2.92,.72-.61,1.85-.92,3.41-.92h7.03v2.24Z"/>
        <path class="cls-2" d="M219.94,206.77h-2.81v-12.55h2.81v12.55Z"/>
        <path class="cls-2" d="M227.86,196.36c-1.11,0-1.91,.35-2.4,1.04s-.73,1.83-.73,3.42c0,1.38,.23,2.35,.7,2.91s1.28,.84,2.43,.84h4.42v2.19h-4.55c-1,0-1.79-.08-2.36-.25-.57-.17-1.11-.45-1.62-.85-.65-.51-1.15-1.18-1.47-2-.33-.82-.49-1.81-.49-2.95,0-2.22,.49-3.86,1.47-4.91s2.5-1.58,4.55-1.58h4.47v2.14h-4.42Z"/>
        <path class="cls-2" d="M243.97,206.77h-2.81v-12.55h2.81v12.55Z"/>
        <path class="cls-2" d="M246.63,194.22h3.4l5.23,9.02-.13-9.02h2.75v12.55h-3.12l-5.49-9.49,.12,9.49h-2.76v-12.55Z"/>
        <path class="cls-2" d="M272.63,196.4c-.97,0-1.71,.24-2.2,.72-.5,.48-.77,1.21-.82,2.19h7.43v2.19h-7.45c0,1.09,.24,1.88,.71,2.36,.47,.48,1.24,.72,2.33,.72h4.41v2.19h-4.54c-1,0-1.79-.08-2.36-.25s-1.11-.45-1.62-.85c-.65-.51-1.15-1.18-1.47-2s-.49-1.81-.49-2.95c0-2.22,.49-3.86,1.47-4.91s2.5-1.58,4.55-1.58h4.46v2.19h-4.41Z"/>
        <path class="cls-2" d="M282.27,200.49l-4.32-6.28h3.15l2.63,3.96,2.62-3.96h3.1l-4.11,6.1,4.41,6.45h-3.22l-2.69-4.37-2.85,4.37h-3.19l4.47-6.27Z"/>
        <path class="cls-2" d="M295.85,196.36c-1.11,0-1.91,.35-2.4,1.04s-.73,1.83-.73,3.42c0,1.38,.23,2.35,.7,2.91s1.28,.84,2.43,.84h4.42v2.19h-4.55c-1,0-1.79-.08-2.36-.25-.57-.17-1.11-.45-1.62-.85-.65-.51-1.15-1.18-1.47-2-.33-.82-.49-1.81-.49-2.95,0-2.22,.49-3.86,1.47-4.91s2.5-1.58,4.55-1.58h4.47v2.14h-4.42Z"/>
        <path class="cls-2" d="M307.5,196.4c-.97,0-1.71,.24-2.2,.72-.5,.48-.77,1.21-.82,2.19h7.43v2.19h-7.45c0,1.09,.24,1.88,.71,2.36,.47,.48,1.24,.72,2.33,.72h4.41v2.19h-4.54c-1,0-1.79-.08-2.36-.25s-1.11-.45-1.62-.85c-.65-.51-1.15-1.18-1.47-2s-.49-1.81-.49-2.95c0-2.22,.49-3.86,1.47-4.91s2.5-1.58,4.55-1.58h4.46v2.19h-4.41Z"/>
        <path class="cls-2" d="M314.26,194.22h5.83c.98,0,1.77,.05,2.35,.15,.59,.1,1.05,.26,1.4,.47,.58,.36,1.02,.84,1.32,1.43,.3,.59,.45,1.27,.45,2.04s-.12,1.4-.36,1.93c-.24,.54-.61,.98-1.11,1.34-.42,.29-.9,.5-1.44,.62-.54,.12-1.37,.18-2.49,.18h-3.26v4.39h-2.69v-12.55Zm5.8,2.24h-3.11v3.71h3.28c.81,0,1.41-.15,1.81-.46s.59-.77,.59-1.4c0-.67-.19-1.15-.58-1.43-.39-.28-1.05-.42-1.99-.42Z"/>
        <path class="cls-2" d="M330.26,196.42h-4.13v-2.19h11.06v2.19h-4.15v10.35h-2.78v-10.35Z"/>
        <path class="cls-2" d="M341.32,206.77h-2.81v-12.55h2.81v12.55Z"/>
        <path class="cls-2" d="M343.15,200.36c0-2.16,.53-3.76,1.58-4.81s2.65-1.58,4.8-1.58,3.77,.53,4.81,1.6c1.04,1.06,1.56,2.71,1.56,4.93s-.52,3.86-1.56,4.93c-1.04,1.07-2.64,1.61-4.81,1.61s-3.8-.54-4.83-1.61c-1.03-1.08-1.55-2.76-1.55-5.05Zm6.37-4.24c-1.15,0-2.01,.35-2.58,1.06-.57,.71-.85,1.77-.85,3.2,0,1.55,.28,2.68,.83,3.4,.55,.72,1.42,1.08,2.61,1.08s2.04-.36,2.6-1.07c.56-.71,.85-1.81,.85-3.3s-.28-2.59-.85-3.3c-.56-.71-1.43-1.07-2.6-1.07Z"/>
        <path class="cls-2" d="M357.73,194.22h3.4l5.23,9.02-.13-9.02h2.75v12.55h-3.12l-5.49-9.49,.12,9.49h-2.76v-12.55Z"/>
        <path class="cls-2" d="M375.24,194.22h2.85l5.45,12.55h-2.99l-1.17-2.99h-5.55l-1.14,2.99h-2.85l5.41-12.55Zm1.32,2.49l-1.87,4.83h3.81l-1.94-4.83Z"/>
        <path class="cls-2" d="M389.5,206.77c-1.19,0-2.08-.1-2.66-.29-.58-.2-1.1-.54-1.56-1.02-.42-.43-.72-.92-.9-1.47-.17-.55-.26-1.31-.26-2.3v-7.46h2.69v7.38c0,.73,.03,1.25,.1,1.55s.18,.54,.34,.72c.25,.3,.57,.51,.94,.63,.37,.12,.88,.19,1.54,.19h3.16v2.08h-3.4Z"/>
        <path class="cls-2" d="M399.4,206.77c-1.19,0-2.08-.1-2.66-.29-.58-.2-1.1-.54-1.56-1.02-.42-.43-.72-.92-.9-1.47-.17-.55-.26-1.31-.26-2.3v-7.46h2.69v7.38c0,.73,.03,1.25,.1,1.55s.18,.54,.34,.72c.25,.3,.57,.51,.94,.63,.37,.12,.88,.19,1.54,.19h3.16v2.08h-3.4Z"/>
        <path class="cls-2" d="M400.22,194.22h3.02l3.15,4.79,3.2-4.79h3.12l-4.94,7.01v5.54h-2.69v-5.54l-4.88-7.01Z"/>
        <path class="cls-2" d="M9.14,212.7h5.85c2.06,0,3.58,.53,4.55,1.58s1.47,2.69,1.47,4.91c0,1.14-.16,2.13-.49,2.95-.33,.82-.82,1.49-1.47,2-.5,.4-1.04,.68-1.62,.85s-1.36,.25-2.36,.25h-5.93v-12.55Zm5.8,2.19h-3.11v8.18h3.11c1.19,0,2.01-.29,2.46-.88,.45-.59,.68-1.66,.68-3.21s-.23-2.62-.68-3.21c-.45-.59-1.27-.88-2.46-.88Z"/>
        <path class="cls-2" d="M28.13,214.89c-.97,0-1.71,.24-2.2,.72-.5,.48-.77,1.21-.82,2.19h7.43v2.19h-7.45c0,1.09,.24,1.88,.71,2.36,.47,.48,1.24,.72,2.33,.72h4.41v2.19h-4.54c-1,0-1.79-.08-2.36-.25s-1.11-.45-1.62-.85c-.65-.51-1.15-1.18-1.47-2s-.49-1.81-.49-2.95c0-2.22,.49-3.86,1.47-4.91s2.5-1.58,4.55-1.58h4.46v2.19h-4.41Z"/>
        <path class="cls-2" d="M37.69,214.9h-4.13v-2.19h11.06v2.19h-4.15v10.35h-2.78v-10.35Z"/>
        <path class="cls-2" d="M47.94,212.7h2.85l5.45,12.55h-2.99l-1.17-2.99h-5.55l-1.14,2.99h-2.85l5.41-12.55Zm1.32,2.49l-1.87,4.83h3.81l-1.94-4.83Z"/>
        <path class="cls-2" d="M59.96,225.25h-2.81v-12.55h2.81v12.55Z"/>
        <path class="cls-2" d="M67.69,225.25c-1.19,0-2.08-.1-2.66-.29-.58-.2-1.1-.54-1.56-1.02-.42-.43-.72-.92-.9-1.47-.17-.55-.26-1.31-.26-2.3v-7.46h2.69v7.38c0,.73,.03,1.25,.1,1.55s.18,.54,.34,.72c.25,.3,.57,.51,.94,.63,.37,.12,.88,.19,1.54,.19h3.16v2.08h-3.4Z"/>
        <path class="cls-2" d="M77.78,214.89c-.97,0-1.71,.24-2.2,.72-.5,.48-.77,1.21-.82,2.19h7.43v2.19h-7.45c0,1.09,.24,1.88,.71,2.36,.47,.48,1.24,.72,2.33,.72h4.41v2.19h-4.54c-1,0-1.79-.08-2.36-.25s-1.11-.45-1.62-.85c-.65-.51-1.15-1.18-1.47-2s-.49-1.81-.49-2.95c0-2.22,.49-3.86,1.47-4.91s2.5-1.58,4.55-1.58h4.46v2.19h-4.41Z"/>
        <path class="cls-2" d="M84.55,212.7h5.85c2.06,0,3.58,.53,4.55,1.58s1.47,2.69,1.47,4.91c0,1.14-.16,2.13-.49,2.95-.33,.82-.82,1.49-1.47,2-.5,.4-1.04,.68-1.62,.85s-1.36,.25-2.36,.25h-5.93v-12.55Zm5.8,2.19h-3.11v8.18h3.11c1.19,0,2.01-.29,2.46-.88,.45-.59,.68-1.66,.68-3.21s-.23-2.62-.68-3.21c-.45-.59-1.27-.88-2.46-.88Z"/>
        <path class="cls-2" d="M115.97,214.94h-6.64c-.71,0-1.24,.13-1.57,.39-.33,.26-.5,.68-.5,1.25,0,.46,.14,.8,.43,1.02,.28,.23,.71,.34,1.27,.34h3.55c1.47,0,2.52,.27,3.14,.82,.62,.55,.93,1.46,.93,2.73s-.36,2.24-1.08,2.85c-.72,.61-1.85,.91-3.39,.91h-7.15v-2.24h6.73c.76,0,1.3-.11,1.62-.33,.31-.22,.47-.58,.47-1.09s-.14-.9-.43-1.12c-.29-.22-.78-.33-1.47-.33h-3.17c-1.47,0-2.55-.29-3.23-.87-.68-.58-1.02-1.49-1.02-2.74,0-1.33,.36-2.3,1.07-2.92,.72-.61,1.85-.92,3.41-.92h7.03v2.24Z"/>
        <path class="cls-2" d="M117.77,218.85c0-2.16,.53-3.76,1.58-4.81s2.65-1.58,4.8-1.58,3.77,.53,4.81,1.6c1.04,1.06,1.56,2.71,1.56,4.93s-.52,3.86-1.56,4.93c-1.04,1.07-2.64,1.61-4.81,1.61s-3.8-.54-4.83-1.61c-1.03-1.08-1.55-2.76-1.55-5.05Zm6.37-4.24c-1.15,0-2.01,.35-2.58,1.06-.57,.71-.85,1.77-.85,3.2,0,1.55,.28,2.68,.83,3.4,.55,.72,1.42,1.08,2.61,1.08s2.04-.36,2.6-1.07c.56-.71,.85-1.81,.85-3.3s-.28-2.59-.85-3.3c-.56-.71-1.43-1.07-2.6-1.07Z"/>
        <path class="cls-2" d="M134.99,212.7v7.51c0,1.17,.22,1.99,.65,2.46s1.17,.7,2.23,.7,1.8-.23,2.23-.69,.64-1.28,.64-2.46v-7.51h2.69v7.58c0,.89-.06,1.6-.18,2.13s-.31,.95-.57,1.25c-.51,.59-1.15,1.03-1.92,1.31-.77,.28-1.73,.42-2.88,.42s-2.11-.14-2.89-.42c-.78-.28-1.42-.71-1.93-1.31-.26-.3-.44-.71-.56-1.22-.12-.51-.17-1.23-.17-2.16v-7.58h2.68Z"/>
        <path class="cls-2" d="M146.03,212.7h3.4l5.23,9.02-.13-9.02h2.75v12.55h-3.12l-5.49-9.49,.12,9.49h-2.76v-12.55Z"/>
        <path class="cls-2" d="M159.87,212.7h5.85c2.06,0,3.58,.53,4.55,1.58s1.47,2.69,1.47,4.91c0,1.14-.16,2.13-.49,2.95-.33,.82-.82,1.49-1.47,2-.5,.4-1.04,.68-1.62,.85s-1.36,.25-2.36,.25h-5.93v-12.55Zm5.8,2.19h-3.11v8.18h3.11c1.19,0,2.01-.29,2.46-.88,.45-.59,.68-1.66,.68-3.21s-.23-2.62-.68-3.21c-.45-.59-1.27-.88-2.46-.88Z"/>
        <path class="cls-2" d="M189.59,224.82c-.49,.24-1.03,.42-1.61,.53-.58,.11-1.23,.17-1.94,.17-2.17,0-3.78-.54-4.81-1.61-1.04-1.07-1.56-2.71-1.56-4.93s.52-3.86,1.56-4.93c1.04-1.06,2.64-1.6,4.82-1.6s3.77,.53,4.81,1.6c1.04,1.06,1.56,2.71,1.56,4.93,0,.93-.09,1.76-.28,2.49-.19,.73-.46,1.37-.83,1.9l1.94,1.89h-3.22l-.43-.44Zm-3.55-1.47c1.17,0,2.04-.36,2.6-1.07,.56-.71,.85-1.81,.85-3.3s-.28-2.59-.85-3.3c-.56-.71-1.43-1.07-2.6-1.07s-2.03,.36-2.6,1.07c-.56,.71-.84,1.81-.84,3.3s.28,2.58,.84,3.3c.56,.71,1.43,1.07,2.6,1.07Z"/>
        <path class="cls-2" d="M196.88,212.7v7.51c0,1.17,.22,1.99,.65,2.46s1.17,.7,2.23,.7,1.8-.23,2.23-.69,.64-1.28,.64-2.46v-7.51h2.69v7.58c0,.89-.06,1.6-.18,2.13s-.31,.95-.57,1.25c-.51,.59-1.15,1.03-1.92,1.31-.77,.28-1.73,.42-2.88,.42s-2.11-.14-2.89-.42c-.78-.28-1.42-.71-1.93-1.31-.26-.3-.44-.71-.56-1.22-.12-.51-.17-1.23-.17-2.16v-7.58h2.68Z"/>
        <path class="cls-2" d="M211.26,212.7h2.85l5.45,12.55h-2.99l-1.17-2.99h-5.55l-1.14,2.99h-2.85l5.41-12.55Zm1.32,2.49l-1.87,4.83h3.81l-1.94-4.83Z"/>
        <path class="cls-2" d="M225.53,225.25c-1.19,0-2.08-.1-2.66-.29-.58-.2-1.1-.54-1.56-1.02-.42-.43-.72-.92-.9-1.47-.17-.55-.26-1.31-.26-2.3v-7.46h2.69v7.38c0,.73,.03,1.25,.1,1.55s.18,.54,.34,.72c.25,.3,.57,.51,.94,.63,.37,.12,.88,.19,1.54,.19h3.16v2.08h-3.4Z"/>
        <path class="cls-2" d="M233.18,225.25h-2.81v-12.55h2.81v12.55Z"/>
        <path class="cls-2" d="M238.63,214.9h-4.13v-2.19h11.06v2.19h-4.15v10.35h-2.78v-10.35Z"/>
        <path class="cls-2" d="M244.81,212.7h3.02l3.15,4.79,3.2-4.79h3.12l-4.94,7.01v5.54h-2.69v-5.54l-4.88-7.01Z"/>
      </g>
      <path class="cls-2" d="M69.6,158.6c-5.87,7.5-15.35,11.04-25.65,11.04C19.68,169.65,0,149.97,0,125.7s19.68-43.95,43.95-43.95c10.73,0,19.99,3.84,25.99,8.67l-.34,68.19Z"/>
      <g>
        <path class="cls-1" d="M43.81,115.87H26.13c-.55,0-.99,.44-.99,.99v17.68c0,.55,.44,.99,.99,.99h17.68c.55,0,.99-.44,.99-.99v-17.68c0-.55-.44-.99-.99-.99Zm-.99,17.68h-15.71v-15.71h15.71v15.71Z"/>
        <path class="cls-1" d="M57.21,121.15c.55,0,.99-.44,.99-.99s-.44-.99-.99-.99h-5.68v-3.55h5.68c.55,0,.99-.44,.99-.99s-.44-.99-.99-.99h-5.68v-3.52c0-.55-.44-.99-.99-.99h-3.52v-5.68c0-.55-.44-.99-.99-.99s-.99,.44-.99,.99v5.68h-3.55v-5.68c0-.55-.44-.99-.99-.99s-.99,.44-.99,.99v5.68h-3.55v-5.68c0-.55-.44-.99-.99-.99s-.99,.44-.99,.99v5.68h-3.55v-5.68c0-.55-.44-.99-.99-.99s-.99,.44-.99,.99v5.68h-3.55v-5.68c0-.55-.44-.99-.99-.99s-.99,.44-.99,.99v5.68h-3.52c-.55,0-.99,.44-.99,.99v3.52h-5.68c-.55,0-.99,.44-.99,.99s.44,.99,.99,.99h5.68v3.55h-5.68c-.55,0-.99,.44-.99,.99s.44,.99,.99,.99h5.68v3.55h-5.68c-.55,0-.99,.44-.99,.99s.44,.99,.99,.99h5.68v3.55h-5.68c-.55,0-.99,.44-.99,.99s.44,.99,.99,.99h5.68v3.55h-5.68c-.55,0-.99,.44-.99,.99s.44,.99,.99,.99h5.68v3.52c0,.55,.44,.99,.99,.99h3.52v5.68c0,.55,.44,.99,.99,.99s.99-.44,.99-.99v-5.68h3.55v5.68c0,.55,.44,.99,.99,.99s.99-.44,.99-.99v-5.68h3.55v5.68c0,.55,.44,.99,.99,.99s.99-.44,.99-.99v-5.68h3.55v5.68c0,.55,.44,.99,.99,.99s.99-.44,.99-.99v-5.68h3.55v5.68c0,.55,.44,.99,.99,.99s.99-.44,.99-.99v-5.68h3.52c.55,0,.99-.44,.99-.99v-3.52h5.68c.55,0,.99-.44,.99-.99s-.44-.99-.99-.99h-5.68v-3.55h5.68c.55,0,.99-.44,.99-.99s-.44-.99-.99-.99h-5.68v-3.55h5.68c.55,0,.99-.44,.99-.99s-.44-.99-.99-.99h-5.68v-3.55h5.68Zm-7.66,19.13H20.39v-29.17h29.17v29.17Z"/>
      </g>
    </g>
  </g>
</svg>